<?xml version="1.0" encoding="utf-8"?>
<!-- Generator: Adobe Illustrator 26.2.1, SVG Export Plug-In . SVG Version: 6.00 Build 0)  -->
<svg version="1.1" id="Layer_2" xmlns="http://www.w3.org/2000/svg" xmlns:xlink="http://www.w3.org/1999/xlink" x="0px" y="0px"
	 viewBox="0 0 611.8 180.1" style="enable-background:new 0 0 611.8 180.1;" xml:space="preserve">
<style type="text/css">
	.st0{fill-rule:evenodd;clip-rule:evenodd;fill:#818E46;}
	.st1{fill-rule:evenodd;clip-rule:evenodd;fill:#866D9E;}
	.st2{fill-rule:evenodd;clip-rule:evenodd;fill:#424C17;}
	.st3{fill-rule:evenodd;clip-rule:evenodd;}
	.st4{fill-rule:evenodd;clip-rule:evenodd;fill:#6F7B37;}
</style>
<path class="st0" d="M115.4,30.3c-3.7-1.7-7-3.7-9.6-5.9l0,0c-2.8-2.2-5-4.7-7-7.5v-0.1h-0.1l-1.6-2.6H86.3l-3.8,6.6l-3.6-6.6H36.9
	l-1.7,2.8c-2,2.8-4.4,5.3-7,7.5c-2.6,2.2-5.9,4.2-9.8,5.9h0l-3.8,1.6v117l3.7,1.6h0.1c3.7,1.7,7,3.7,9.6,5.9c2.8,2.2,5,4.7,7,7.6
	l1.7,2.8h60l1.8-2.8c2-2.9,4.2-5.4,7-7.6c2.6-2.2,5.9-4.2,9.6-5.9l3.7-1.6v-117L115.4,30.3z"/>
<path class="st1" d="M87.8,11.1c1.7-3,2.8-5.3,3.4-6.6l11.6,0.3c0.9,1.8,2.4,4,4.2,6.1c1.8,2.1,4,4,6.2,5.8c2.2,1.7,5,3.4,8.3,5.3
	c2.6,1.3,5.1,2.4,7.5,3.2l0.1,130.8c-2.4,0.8-4.9,1.7-7.5,3c-3.2,1.6-5.9,3.3-8.3,5.3c-2.4,1.7-4.4,3.7-6.2,5.7l-4.4,5.8l-71.5-0.1
	l-4.4-5.8c-2-2.1-4.1-4.1-6.3-5.7c-2.2-1.7-5-3.4-8.4-5.3c-2.2-1.1-4.7-2.1-7.5-3.2V25c2.5-0.9,5-2,7.5-3.2c3.3-1.6,6.1-3.4,8.4-5.3
	c2.4-1.8,4.4-3.7,6.2-5.7c1.6-1.7,3-3.7,4.5-5.8l41.9-0.4l3.8,6.5H35.1l-0.4,0.9l-1.8,3.2c-1.8,2.5-4.1,4.9-6.5,7h-0.1
	c-2.5,2.1-5.4,4-9,5.5l-4.5,1.8l-1.1,0.1V151l5.4,2.1c3.6,1.7,6.5,3.6,9.1,5.5c2.5,2.1,4.7,4.4,6.5,7v-0.1l1.8,3.2l0.4,0.9h63.7
	l0.4-0.9l2-3.2v0.1c1.8-2.6,4-4.9,6.5-7c2.5-2.1,5.5-4,9-5.5c1.7-0.8,3.2-1.5,4.4-1.7l1.1-0.3V29.8l-1.1-0.4
	c-1.2-0.4-2.6-1.1-4.4-1.8c-3.6-1.6-6.5-3.4-9-5.5c-2.5-2.1-4.6-4.4-6.5-7l-2.5-4L87.8,11.1"/>
<path class="st2" d="M77.2,11.1l1.6,2.9H36.9l-1.7,2.8c-2,2.8-4.4,5.3-7,7.5s-5.9,4.2-9.8,5.9h0.1l-3.8,1.6v117l3.7,1.5h0.1
	c3.7,1.7,7,3.7,9.6,5.9c2.8,2.2,5,4.7,7,7.6l1.7,2.8h60l1.8-2.8c2-2.9,4.2-5.4,7-7.6c2.6-2.2,5.9-4.2,9.6-5.9l3.7-1.6V31.9l-3.7-1.6
	c-3.7-1.7-7-3.7-9.6-5.9l0,0c-2.8-2.2-5-4.7-7-7.5v-0.1h-0.1l-1.6-2.6H86.3l1.7-2.9h10.8l2.5,4c1.8,2.5,4,4.9,6.5,7s5.5,4,9,5.5
	c1.7,0.8,3.2,1.5,4.4,1.8l1.1,0.4v121.2l-1.1,0.3c-1.2,0.4-2.6,0.9-4.4,1.7c-3.6,1.7-6.5,3.6-9,5.5c-2.5,2-4.6,4.4-6.5,7v-0.1
	l-2,3.2l-0.4,0.9H35.1l-0.4-0.9l-1.8-3.2v0.1c-1.8-2.6-4.1-4.9-6.5-7c-2.5-2.1-5.5-4-9.1-5.5l-5.4-2.1V29.8l1.1-0.4l4.5-1.8
	c3.6-1.6,6.5-3.4,9-5.5h0.1c2.5-2.1,4.7-4.4,6.5-7l1.8-3.2l0.4-0.9h41.9"/>
<path class="st3" d="M77.2,11.1l-3.8-6.3L31.3,5.1c-1.3,2.1-2.9,4-4.5,5.8c-1.8,2-3.8,4-6.2,5.7c-2.2,1.8-5.1,3.6-8.4,5.3
	c-2.5,1.2-5,2.2-7.5,3.2v130.6c2.8,1.1,5.3,2.1,7.5,3.2c3.4,1.8,6.2,3.6,8.4,5.3c2.2,1.7,4.2,3.6,6.3,5.7l4.4,5.8l71.5,0.1l4.4-5.8
	c1.8-2,3.8-4,6.2-5.7c2.4-2,5.1-3.7,8.3-5.3c2.6-1.3,5.1-2.4,7.5-3L129,25c-2.4-0.8-4.9-1.8-7.5-3.2c-3.4-1.7-6.2-3.6-8.3-5.3
	c-2.2-1.8-4.2-3.7-6.2-5.8c-1.7-2.1-3.2-4.2-4.1-6.1L91.3,4.5c-0.7,1.5-1.8,3.7-3.4,6.6L86.1,14l-3.8,6.6L78.7,14L77.2,11.1
	 M83.9,12.6L89.4,1L106,1.2c4.9,10.4,14.1,17.3,27.4,20.7l0.3,135.6l0.1,1.5c-10.3,2.4-19.9,9.5-28.8,21.4H27.3
	C23.1,169.6,14,162.3,0,158.6l0.1-1.3V21.1c12.4-3,21.6-9.8,27.8-20.3l48.4,0.4l4.7,9.9l0.7,1.6l1.1,2.2L83.9,12.6"/>
<path class="st4" d="M29.7,121.9c0,0.3-0.1,0.4-0.5,0.4l-0.4-0.4l-1.3-24.8l1.1-15.2l0.3-0.4c0.3,0,0.4,0.1,0.4,0.4l1.2,12
	L29.7,121.9"/>
<path class="st4" d="M48.4,156.1l-0.4,0.4l-0.5-0.4l-0.8-6.9l0.1-4.2l1.3-6.7c0.1-0.3,0.3-0.4,0.5-0.4c0.3,0.1,0.4,0.3,0.4,0.5
	l0.8,5.4l0.1,1.3l-0.3,5.7L48.4,156.1"/>
<path class="st4" d="M73.7,23.9c0-0.3,0.1-0.3,0.5-0.3c0.3,0,0.4,0.1,0.4,0.3l1.2,14.2l-0.1,5.7L75.2,48l-0.5,4.2
	c0,0.3-0.1,0.5-0.4,0.5l-0.5-0.5L73.2,48l-0.4-4.2l-0.1-5.7L73.7,23.9"/>
<path class="st4" d="M104.5,65.3c0,0.3-0.1,0.4-0.4,0.4l-0.4-0.4l-1.1-5l-0.1-1.3l0.1-5.3l1.1-5l0.4-0.4c0.3,0,0.4,0.1,0.4,0.4
	l1.1,5l0.1,5.3L104.5,65.3"/>
<path class="st4" d="M34,97.7l0.4-0.4c0.3,0,0.4,0.1,0.4,0.4L36,112l-1.2,14.2c0,0.3-0.1,0.4-0.4,0.4l-0.4-0.4l-1.1-8.6v-9.1
	L34,97.7"/>
<path class="st3" d="M115.5,117c-0.5-6.3-2.6-11.7-6.5-16.1c-4-4.6-8.6-6.6-13.8-6.1c-7.4,0.9-11.9,4.1-13.7,9.6
	c-0.8,2.1-1.1,4.4-0.8,6.6c0.4,3.7,2,6.6,4.7,8.8c2.8,2.2,5.8,3,9.4,2.5c3.4-0.5,6.2-2.2,8.3-5.1c2.1-3,2.9-6.3,2.5-10
	c-0.3-2.2-0.9-4.2-2.1-5.9l1.8,1.8c2.6,3.2,4.4,6.9,4.7,11.3c0.5,4.6-0.4,8.6-2.6,12c-2.6,4-6.6,6.3-11.9,7.1
	c-7.1,1.1-12.3-2.9-15.6-12.1c-2-5.4-5.5-30.2-5.9-33.1c-0.1-1.1-0.3-2.1-0.4-3.2c0.9-1.8,2-3.7,2.9-5.5l0,0
	c7-12.9,12.7-22.3,17.1-28.1c4.1-5.3,8.4-9,13.1-11.3l-5.1-3.2c-3.8-2-6.6-2.5-8.3-1.8C90.2,36.4,83,47.3,71.6,68
	c-2.8-21-5.1-31.8-6.9-32.4c-1.7-0.7-5-0.9-9.9-0.8c-6.1,0.1-11.6,0.9-16.6,2.5C23.5,41.8,16.9,51,18.5,65c0.7,5,3,8.6,7.1,10.7
	c3.6,1.8,7.6,2.2,12,1.3c2-0.4,3.7-1.5,4.9-3.2c1.3-1.8,1.8-4,1.6-6.2c-0.3-2.4-1.3-4.2-3-5.5c-1.7-1.3-3.7-2-5.8-1.6
	c-2.1,0.3-3.8,1.5-5.3,3.3c-1.3,1.8-1.8,4-1.6,6.2c0.1,1.6,0.7,2.9,1.6,4.1l-1.5-0.5c-3.4-1.6-5.5-4.6-5.9-9
	c-0.7-5.4,1.2-9.4,5.7-11.9c3.8-2.1,7.5-2.6,11.3-1.3c3,0.9,5.3,4.4,6.9,10.3c1.3,4.6,2.6,12.9,4.1,24.9l0,0
	c0.1,1.6,0.4,3.3,0.5,4.9c0.5,4.1,0.9,7.9,1.5,11.7C46,115,40.8,123.7,36.7,129.1c-4.1,5.3-8.4,9-13.1,11.3l5.1,3.2
	c3.8,2,6.6,2.5,8.3,1.8c2.8-1.1,8.7-9.6,17.7-25.5c1.6,8.8,4.4,15.3,8.6,19.4c5.8,5.7,14.9,7.6,27.3,5.8c8.8-1.3,15.4-4.9,19.8-10.6
	C114.5,129.6,116.1,123.8,115.5,117z M66.6,133.2c-2.2-0.7-3.7-1.6-4.5-2.8c-1.1-1.5-2.2-6.9-3.6-16.4c0-0.1,0-0.1,0-0.3
	c-0.1-0.8-0.3-1.6-0.4-2.4c0-0.3-0.1-0.5-0.1-0.8c-0.1-0.8-0.3-1.7-0.4-2.5c0-0.3-0.1-0.7-0.1-0.9c-0.1-0.7-0.1-1.5-0.3-2.1
	c-0.1-0.5-0.1-1.1-0.3-1.6c-0.1-0.7-0.1-1.3-0.3-2.1c0-0.5-0.1-1.1-0.1-1.6c-0.3-2.4-0.7-4.9-0.9-7.5c0-0.5-0.1-0.9-0.1-1.3
	c-0.1-1.7-0.4-3.3-0.5-5l0,0c-1.3-10.7-2.6-18.7-3.8-23.9c-1.2-4.7-2.6-8.7-4.5-11.7l3-0.3c2.1,0,3.6,0.5,4.4,1.7
	c1.5,2.1,3.4,13.2,5.9,33.5l0,0c0.1,1.7,0.4,3.3,0.5,5c0,0,0,0.4,0,0.5c0.1,1.6,0.4,3,0.5,4.5c0.1,0.7,0.1,1.2,0.3,1.8
	c0.1,0.8,0.3,1.6,0.3,2.4c0.1,0.8,0.1,1.5,0.3,2.1c0.1,0.7,0.1,1.2,0.3,1.8c0.1,0.8,0.3,1.5,0.3,2.1c0,0.4,0.1,0.8,0.1,1.2l0,0
	c2.4,15.6,4.6,24.4,7.1,26.9L66.6,133.2z"/>
<path d="M162.5,74c-1.6,1.6-2.9,3.3-4,5.1c-0.9,1.8-1.6,3.7-1.8,5.7c-0.3,1.8-0.3,3.8,0,5.7c0.4,1.8,1.1,3.7,2,5.3
	c0.9,1.7,2.1,3.2,3.7,4.5c1.5,1.3,3.3,2.2,5.4,2.9l-9,12.8c-3-1.3-5.5-2.9-7.6-4.9c-2-2-3.6-4.2-4.6-6.6c-1.1-2.4-1.7-4.9-1.8-7.5
	c-0.1-2.6,0.3-5.3,0.9-7.9c0.8-2.8,2.1-5.4,3.8-7.9c1.7-2.5,4-4.9,6.6-7.1 M156.2,74h-3.4c-0.8,0-1.5,0-2,0.1
	c-0.5,0.1-1.1,0.3-1.5,0.4c-0.4,0.3-0.8,0.5-1.2,0.9c-0.4,0.3-0.7,0.7-1.2,1.2c-0.4,0.5-0.9,0.7-1.5,0.7c-0.5,0-1.1-0.3-1.5-0.7
	c-0.5-0.4-0.7-0.8-0.7-1.3c0-0.4,0.1-0.9,0.4-1.5l7.3-9.8h36V105l5.4,2.9l-10.4,8.4l-8.7-5.7V74h-10.9"/>
<path d="M214.7,66.2c0.4-0.5,0.7-1.2,1.2-1.8c0.4-0.5,1.2-0.9,2.1-0.9c0.9,0,1.6,0.4,2,1.2c0.5,0.9,2.1,1.5,4.6,1.5h18.1l-4.6,8.2
	l0.1,29.1l4.5,3.3l-8.4,9.5l-9.8-5.9v-4.9L214.3,117c-4.2-1.5-7.8-3.6-10.8-6.5c-3-2.8-5.1-6.1-6.5-9.6c-1.3-3.6-1.6-7.3-0.9-11.1
	c0.7-3.8,2.8-7.4,6.1-10.7c2.8-2.8,5.1-5,7-6.7C211.2,70.7,213,68.6,214.7,66.2z M228.4,76.6h-16.4c-1.7,2.4-2.8,4.6-3.4,6.6
	c-0.5,2-0.9,4-0.9,5.8c0,1.6,0.5,3.3,1.7,5.1c1.2,1.8,2.5,3.3,4.1,4.6c1.6,1.5,3.2,2.4,4.6,2.9c1.6,0.5,2.9,0.3,3.7-0.7l2.4-2.8
	L224.1,82L228.4,76.6z"/>
<path d="M295.4,94.2h-6.7v19.4l-13.7-0.1V94.2h-9.5l3.3-8.2h6.2V76h-9.9c-1.6,1.5-2.9,3.2-3.8,4.9c-0.9,1.7-1.6,3.6-1.8,5.3
	c-0.3,1.8-0.3,3.6,0.1,5.3c0.4,1.7,0.9,3.3,1.8,4.9c0.9,1.6,2.2,2.9,3.7,4.1c1.6,1.2,3.4,2.1,5.4,2.9l-9,13.1
	c-3-1.3-5.5-2.9-7.5-4.7c-2.1-1.8-3.7-4-4.7-6.2c-1.1-2.2-1.7-4.6-1.8-7.3c-0.1-2.5,0.1-5.1,0.9-7.6c0.8-2.5,2-5,3.7-7.5
	c1.7-2.5,4-4.7,6.6-7h-2.1c-0.8,0-1.5,0-2,0.1c-0.5,0.1-1.1,0.3-1.5,0.5c-0.4,0.3-0.8,0.5-1.2,0.8c-0.4,0.4-1.6-1.5-2-1.1
	c-0.4,0.5-0.3-0.5-0.7-0.5c-0.5,0,1.2,1.1,0.7,0.5c-0.5-0.4-0.7-0.1-0.7-0.5s-0.5-1.3-0.1-1.7l5.9-9l19.9,0.1l6.9,6.5l7.1-6.2
	c0.9-1.5,2-2.1,3.2-2.1c0.4,0,0.7,0,0.9,0.1s0.5,0.4,0.7,0.8c0.4,1.1,1.1,1.6,1.8,1.6h26.2l-4.2,4.7c-0.3,0.3-0.4,0.7-0.7,0.9
	c-0.3,0.4-0.4,0.9-0.7,1.5c-0.1,0.5-0.3,1.3-0.4,2.1c-0.1,0.9-0.1,1.8-0.1,3v25.3l5.3,3.7l-8.7,9.9l-10.6-7.3v-29l3.2-4.5h-11.7
	l-4.5,4v5.9h10L295.4,94.2z"/>
<path d="M336.6,66.2c0.4-0.5,0.7-1.2,1.2-1.8c0.4-0.5,1.1-0.9,2-0.9s1.6,0.4,2.1,1.2c0.5,0.9,2.1,1.5,4.6,1.5h9.1
	c9.2,8,13.5,16.2,12.5,24.5c-0.9,8.4-6.1,16.9-15.6,25.7c-8-0.5-14.5-3.2-19.5-7.8c-5-4.6-7.5-10.3-7.8-17.1
	c-0.1-4.4,0.8-8.2,2.9-11.5c1.1-1.8,2.1-3.4,3-4.7c0.9-1.3,1.8-2.6,2.6-4L336.6,66.2L336.6,66.2z M347.8,76.6h-11.2
	c-1.2,3.4-1.2,6.9,0.1,10.2c1.2,3.3,2.9,6.2,5.1,8.7c2.4,2.5,4.9,4.4,7.6,5.7c2.8,1.3,5.3,1.7,7.4,1.3l-0.1,0.5l0.1-0.3
	c1.3-3.3,0.9-7.6-1.2-13.1C353.7,84.3,351.1,79.9,347.8,76.6z"/>
<path d="M399.4,66.2c0.4-0.5,0.8-1.2,1.2-1.8c0.4-0.5,1.1-0.9,2-0.9s1.6,0.4,2.1,1.2c0.5,0.9,2.1,1.5,4.6,1.5h10.3l-4.6,8.4V105
	l5.3,2.9l-10.4,8.4l-8.6-5.7v-28l5.7-6.1H397l-6.1,4.2v32.7h-13.7V76.6l-5.3-2.9l10.3-8.4l8.7,5.8v3.6c2-1.5,3.6-2.6,4.7-3.7
	C396.9,70,398,68.4,399.4,66.2z"/>
<path d="M435.1,66.2c0.4-0.5,0.7-1.2,1.2-1.8c0.4-0.5,1.1-0.9,2-0.9s1.6,0.4,2.1,1.2c0.5,0.9,2.1,1.5,4.6,1.5h9.1
	c9.2,8,13.5,16.2,12.5,24.5c-0.9,8.4-6.1,16.9-15.6,25.7c-8-0.5-14.5-3.2-19.5-7.8c-5-4.6-7.5-10.3-7.8-17.1
	c-0.1-4.4,0.8-8.2,2.9-11.5c1.1-1.8,2.1-3.4,3-4.7c0.9-1.3,1.8-2.6,2.6-4L435.1,66.2L435.1,66.2z M446.3,76.6h-11.2
	c-1.2,3.4-1.2,6.9,0.1,10.2c1.2,3.3,2.9,6.2,5.1,8.7c2.4,2.5,4.9,4.4,7.6,5.7c2.8,1.3,5.3,1.7,7.4,1.3l-0.1,0.5l0.1-0.3
	c1.3-3.3,0.9-7.6-1.2-13.1C452.3,84.3,449.6,79.9,446.3,76.6z"/>
<path d="M501.6,74h-10.9c-1.6,1.6-2.9,3.3-4,5.1c-0.9,1.8-1.6,3.7-1.8,5.7c-0.3,1.8-0.3,3.8,0,5.7c0.4,1.8,1.1,3.7,2,5.3
	c0.9,1.7,2.1,3.2,3.7,4.5c1.5,1.3,3.3,2.2,5.4,2.9l-9,12.8c-3-1.3-5.5-2.9-7.6-4.9c-2-2-3.6-4.2-4.6-6.6c-1.1-2.4-1.7-4.9-1.8-7.5
	s0.3-5.3,0.9-7.9c0.8-2.8,2.1-5.4,3.8-7.9c1.7-2.5,4-4.9,6.6-7.1h-3.4c-0.8,0-1.5,0-2,0.1s-1.1,0.3-1.5,0.4
	c-0.4,0.3-0.8,0.5-1.2,0.9c-0.4,0.3-0.7,0.7-1.2,1.2c-0.4,0.5-0.9,0.7-1.5,0.7c-0.5,0-1.1-0.3-1.5-0.7c-0.5-0.4-0.7-0.8-0.7-1.3
	c0-0.4,0.1-0.9,0.4-1.5l7.3-9.8h36V105l5.4,2.9l-10.4,8.4l-8.7-5.7V74H501.6z"/>
<path d="M572.3,108l-10.4,8.4l-8.6-5.7v-4l-5.1,7h-22.3l4.5-5.9V75.7l-5.3-2.9l10.3-8.4l8.7,5.8v28l-5.9,6.3H550l3.4-4.2v-34h13.7
	V105L572.3,108z"/>
<path d="M588.1,66.2c0.4-0.5,0.7-1.2,1.2-1.8c0.5-0.5,1.2-0.9,2.1-0.9c0.9,0,1.6,0.4,2,1.2c0.5,0.9,2.1,1.5,4.6,1.5h13.7l-5.8,10.4
	h-17.7c-1.1,2.5-1.6,5-1.5,7.6c0.1,5.5,2.8,9.9,7.6,13.1c4.9,3.3,10.3,3.8,16.1,1.8l0.3,15.4c-10.3,2.2-18.7,0.7-25.1-4.7
	c-6.3-5.4-9.6-11.5-9.9-18.3c-0.1-4.4,0.9-8.2,3.2-11.5c1.3-2,2.5-3.8,3.7-5.3s2.2-2.9,3.3-4.4L588.1,66.2z"/>
<g transform="matrix(1.0, 0.0, 0.0, 1.0, 62.65, 41.15)">
	<path class="st3" d="M203.6,24.3c1.5-0.7,2.6-1.2,3.6-1.6L191.8-3.4c-1.7,2-6.1,6.1-12.9,12.4l-1.1-2.2c-0.3,0.3-0.3,0.1,0-0.1
		L174.4-1c-3,3.3-5.9,6.7-8.8,10.3l-4.6,4.9c6.5-3.4,10.9-5.9,13.5-7.4l1.5,9.1l0.9-0.5l12.1-5.8l0.4,21.8
		C194.2,28.9,199,26.6,203.6,24.3 M212.5,24.3L185.6,38l-0.1-23.6l-12.3,5.3l-0.3-4.2l-0.5-3.8c-2.9,1.8-10.6,5.4-22.9,10.9
		c8.8-9,17.3-18.6,25.5-29c1.2,2.6,2.9,6.1,5.1,10.3l12.1-12.7L212.5,24.3 M177.9,9.3l0.3,0.4L178,9.8L177.9,9.3L177.9,9.3
		L177.9,9.3"/>
	<path class="st1" d="M203.6,24.3c-4.6,2.2-9.4,4.6-14.4,7.1l-0.4-21.9l-12.1,5.8l-0.9,0.5l-1.5-9.2c-2.5,1.5-7,4-13.5,7.4l4.6-4.9
		c2.9-3.6,5.8-7,8.8-10.3l3.4,7.6c-0.3,0.3-0.3,0.4,0,0.1l1.1,2.2c6.9-6.2,11.1-10.4,12.9-12.4L207,22.6
		C206.2,23,205,23.5,203.6,24.3 M177.9,9.3L177.9,9.3L177.9,9.3l0.1,0.5l0.1-0.1L177.9,9.3"/>
</g>
</svg>
