<?xml version="1.0" encoding="utf-8"?>
<!-- Generator: Adobe Illustrator 26.2.1, SVG Export Plug-In . SVG Version: 6.00 Build 0)  -->
<svg version="1.1" id="Слой_1" xmlns="http://www.w3.org/2000/svg" xmlns:xlink="http://www.w3.org/1999/xlink" x="0px" y="0px"
	 viewBox="0 0 1944.1 162.3" style="enable-background:new 0 0 1944.1 162.3;" xml:space="preserve">
<style type="text/css">
	.st0{fill:#FFFFFF;}
	.st1{fill:#4254F4;}
</style>
<g id="Layer_2">
</g>
<g>
	<path class="st0" d="M1147.4,55.4c2.3-4.7,5.6-8.5,9.7-11.4c4.2-3,9.6-4.6,16.2-4.7c6.8,0,12.1,1.5,15.9,4.5s6.3,7.1,7.5,12.2h1
		c1.6-2.9,3.5-5.6,5.7-8.2c2.3-2.5,5.1-4.5,8.2-6.2c3.2-1.6,7-2.3,11.4-2.3c7.9,0,14.1,2,18.4,6s6.5,10,6.5,17.9
		c0,1.5-0.1,3-0.3,4.7c-0.2,1.6-0.4,3.1-0.7,4.7l-5.2,28.4c-0.1,1-0.2,2.1-0.3,3.3s0.1,2.3,0.7,3.3c0.4,0.9,1.5,1.3,3,1.3
		c1,0,2.1-0.2,3.2-0.5c1.1-0.2,2.2-0.6,3.2-1.2l-2.5,16.7c-1.2,0.4-2.8,0.9-4.7,1.3c-2,0.3-4,0.6-6,0.8c-2,0.3-3.8,0.5-5.4,0.5
		c-5.7-0.1-9.9-1.5-12.5-4c-2.7-2.6-4-6.1-4-10.5c0-1.2,0.1-2.4,0.2-3.5s0.3-2.2,0.5-3.3l5.7-32.8c0.1-1.1,0.2-2.2,0.3-3.2
		c0.1-1.1,0.2-2.1,0.2-2.8c0-3-0.7-5.4-2.2-7.2c-1.6-1.7-4-2.5-7.2-2.5c-3.8-0.1-7.4,1.9-10.9,6c-3.6,4.1-6.2,11.2-8,21.1l-7,41
		h-24.6l9.4-52.4c0.1-1.1,0.2-2.2,0.3-3.2c0.2-1.1,0.3-2.1,0.3-2.8c0-3-0.7-5.4-2.2-7.2c-1.5-1.7-3.7-2.5-6.9-2.5
		c-3.9-0.1-7.6,1.9-11.2,6c-3.6,4.1-6.3,11.2-8.2,21.1l-7.2,41h-24.6l10.5-60.6c0.3-1.7,0.3-3.3,0-5c-0.3-1.6-1.6-2.4-3.7-2.5
		c-1.2,0-2.3,0.2-3.3,0.5s-1.8,0.7-2.5,1l1.8-16.7c1.8-0.6,4.1-1.1,7-1.7c2.9-0.4,5.7-0.7,8.5-0.7c5.4,0.1,9.3,1.3,11.7,3.7
		c2.5,2.5,3.6,5.3,3.5,8.5c0,0.6,0,1.2,0,1.8c-0.1,0.7-0.2,1.3-0.3,2h1.1V55.4z"/>
	<path class="st0" d="M1260.1,65.4c3.3-8.1,8.5-14.5,15.4-19.1s15.5-6.9,25.8-7c8.5,0,15.5,1.5,21.1,4.4c5.6,2.8,9.7,6.7,12.4,11.9
		c2.8,5,4.2,10.9,4.2,17.7c0,10.4-1.8,19.6-5.4,27.6c-3.5,8-8.6,14.3-15.6,18.9c-6.9,4.6-15.5,6.9-25.8,7
		c-8.5-0.1-15.5-1.6-21.1-4.4c-5.5-2.8-9.5-6.7-12.2-11.7s-4-10.9-4-17.6C1254.9,82.7,1256.6,73.4,1260.1,65.4z M1308.1,100
		c3.7-6,5.5-14.9,5.5-26.8c0-5.6-1.1-9.7-3.3-12.4c-2.2-2.7-5.4-4-9.4-4c-6.8,0.1-12,3.2-15.6,9.2c-3.7,6.1-5.5,15.1-5.5,26.9
		c0.1,5.6,1.2,9.6,3.3,12.2c2.2,2.7,5.3,4,9.2,3.8C1299.2,109.1,1304.4,106.1,1308.1,100z"/>
	<path class="st0" d="M1364,131c-0.3,0.9-0.7,1.8-1,2.8s-0.5,2-0.5,3c0,2.2,0.9,4,2.7,5.2c1.8,1.2,4.3,1.8,7.5,1.8
		c4.6,0.1,8.5-1.3,11.9-4.4c3.2-3,5.5-8.3,6.9-15.9l1.7-10.7h-0.8c-2.8,2.9-6,5.1-9.5,6.7c-3.6,1.6-7.6,2.4-12.2,2.5
		c-4.7,0-9.2-1-13.6-3s-8-5.4-10.9-10c-2.8-4.7-4.2-11-4.4-19.1c0-10.4,1.8-19.4,5.5-26.9c3.6-7.6,8.5-13.4,14.7-17.6
		c6.4-4.1,13.6-6.2,21.8-6.2c4.6,0.1,8.4,0.9,11.4,2.3c2.9,1.5,5.2,3.1,6.9,5c1.7,2,2.8,3.7,3.5,5h1L1412,41h17.9l-14.6,82.7
		c-1.8,11.6-6.1,20.7-13.1,27.3c-6.9,6.7-17.1,10.1-30.5,10.2c-11.6-0.1-20.1-2-25.6-5.7c-5.4-3.6-8-8.3-8-14.1
		c0.1-2.2,0.4-4.4,1-6.4c0.7-2,1.5-3.6,2.3-4.9L1364,131z M1388.2,103.1c2.7-1.2,5.2-3.1,7.5-5.7l5.9-31.6c-1-2.6-2.7-4.7-5-6.5
		s-5.2-2.7-8.7-2.8c-4.1,0.1-7.8,1.6-10.9,4.4c-3.1,2.9-5.5,6.7-7.2,11.5c-1.8,4.8-2.7,10.2-2.7,16.2c0.1,6,1.5,10.3,4.2,12.9
		c2.8,2.5,6,3.6,9.5,3.5C1383.2,104.9,1385.7,104.3,1388.2,103.1z"/>
	<path class="st0" d="M1435,66.6c3.3-8.3,8.5-14.8,15.6-19.7s16.1-7.4,27.1-7.5c7.1,0,13.3,1.2,18.4,3.5s9.1,5.6,11.9,9.7
		c2.7,4,4,8.7,4,14.1c0,3-0.4,6.4-1.2,10c-0.7,3.6-1.6,6.7-2.8,9.4h-52.9c-0.3,1.5-0.6,2.8-0.7,4.2c-0.1,1.3-0.2,2.6-0.2,3.8
		c0,5.4,1.1,9.3,3.3,11.7c2.1,2.6,5.3,3.8,9.5,3.8c4.5,0.1,8.3-0.9,11.5-3.2c3.1-2.1,4.7-5.6,4.9-10.4l22.6,0.3
		c-0.1,6.9-2,12.6-5.5,17.1c-3.6,4.6-8.3,7.9-14.2,10c-5.9,2.2-12.5,3.3-19.7,3.3c-12.4-0.1-21.6-3.1-27.6-8.9
		c-5.9-5.8-8.9-13.7-8.9-23.8C1430.2,84,1431.8,74.8,1435,66.6z M1488.4,71.9c0.3-0.8,0.6-1.7,0.8-2.7c0.1-1,0.2-2.1,0.2-3.2
		c0-3.8-1.2-6.5-3.5-8.2s-5.3-2.5-8.9-2.5c-4.6,0-8.6,1.3-12,3.8c-3.3,2.6-5.8,6.8-7.4,12.7L1488.4,71.9L1488.4,71.9z"/>
	<path class="st0" d="M1548.9,55.4c1.5-2.8,3.2-5.4,5.4-7.9c2.2-2.5,5-4.4,8.2-5.9c3.2-1.6,7.1-2.3,11.7-2.3c4.9,0,9.5,1.1,13.7,3.3
		s7.7,5.7,10.4,10.4c2.7,4.7,4.1,10.7,4.2,18.1c0,10.2-1.3,18.8-3.8,25.9c-2.6,7-5.9,12.7-10,17.1c-4,4.5-8.5,7.7-13.4,9.7
		c-4.8,2-9.5,3-14.1,3c-5.1-0.1-9.3-1-12.4-2.7s-5.5-3.8-7.2-6.4h-1l-7.2,41.5h-24.8l17.1-94.9c0.3-1.7,0.3-3.3-0.2-5
		c-0.3-1.6-1.6-2.4-3.8-2.5c-1.1,0-2.2,0.2-3.2,0.5s-1.9,0.7-2.7,1l1.8-16.7c1.9-0.6,4.3-1.1,7.2-1.7c2.9-0.4,5.7-0.7,8.5-0.7
		c5.4,0.1,9.2,1.3,11.5,3.7c2.3,2.5,3.5,5.3,3.5,8.5c0,0.6-0.1,1.2-0.2,1.8c0,0.7-0.1,1.3-0.2,2h1V55.4z M1543.4,102.4
		c1.3,2.1,3,3.8,5,5c2,1.1,4.2,1.7,6.7,1.7c3.7,0.1,7.2-1.1,10.5-3.5c3.3-2.5,6.1-6.4,8.2-11.7c2.1-5.4,3.2-12.3,3.3-20.7
		c-0.1-5.2-1.2-9.3-3.3-12c-2.2-2.8-5.3-4.2-9.2-4.2c-3.8,0.1-7.3,1.9-10.4,5.4c-3,3.6-5.1,8.5-6.4,14.9L1543.4,102.4z"/>
	<path class="st0" d="M1618.7,123.5c-4.1-2.3-7.4-6-9.9-11c-2.6-4.9-3.8-11.4-3.8-19.4c0.1-10.7,2-20.1,5.5-28.1
		c3.7-8,8.5-14.3,14.6-18.7c6-4.6,12.7-6.9,19.9-6.9c4.6,0,8.4,0.6,11.4,1.8s5.5,2.7,7.4,4.5c1.8,1.8,3.2,3.6,4.4,5.5h1.2l5-10.2
		h18.6l-10.7,60.1c-0.2,0.9-0.4,2-0.5,3.3c-0.1,1.2,0.1,2.3,0.5,3.3s1.5,1.5,3,1.5c1.1,0,2.2-0.2,3.3-0.5c1.1-0.3,2.1-0.7,3-1.2
		l-2.5,16.6c-1.2,0.4-2.8,0.9-4.7,1.3c-1.9,0.3-3.8,0.6-5.9,0.8c-2,0.3-3.8,0.5-5.5,0.5c-5,0-8.7-1-11-3s-3.7-4.9-4-8.5h-0.8
		c-1.5,1.5-3.3,3.1-5.7,4.9c-2.3,1.8-5.1,3.3-8.4,4.7c-3.1,1.2-6.8,1.9-11,2C1627.1,126.8,1622.7,125.7,1618.7,123.5z M1664,64.4
		c-0.9-1.9-2.2-3.6-4-5.2c-1.9-1.5-4.4-2.2-7.5-2.3c-3.6,0-7,1.4-10.2,4.2c-3.2,2.7-5.9,6.7-8,12c-2,5.2-3.1,11.7-3.2,19.2
		c0.1,6.1,1.3,10.5,3.7,13.1c2.3,2.6,5.2,3.8,8.7,3.7c3,0,5.7-0.7,8-2c2.3-1.5,4.4-3.2,6-5.2L1664,64.4z"/>
	<path class="st0" d="M1716.7,62.2h-19.8l3.7-21.2h7.4l0,0h22.3h-0.6h39.4l-3.5,21.2h-24.3l-7,34.3c-0.7,3.2-0.6,5.9,0.3,8
		c1,2,3.3,3,6.9,3c2.2,0,4.7-0.4,7.4-1.2c2.7-0.9,5.6-2.1,8.9-3.5l-2.5,19.6c-3.2,1.2-6.7,2.2-10.4,3c-3.8,0.8-7.9,1.2-12.2,1.3
		c-7.8-0.1-13.8-2-17.9-5.7c-4.1-3.6-6.2-8.3-6.2-14.1c0-1.3,0.1-2.7,0.2-4.2c0.2-1.5,0.4-2.8,0.7-4.2L1716.7,62.2z"/>
	<path class="st0" d="M1769.2,65.4c3.3-8.1,8.5-14.5,15.4-19.1s15.5-6.9,25.8-7c8.5,0,15.5,1.5,21.1,4.4c5.6,2.8,9.7,6.7,12.4,11.9
		c2.8,5,4.2,10.9,4.2,17.7c0,10.4-1.8,19.6-5.4,27.6c-3.5,8-8.6,14.3-15.6,18.9c-6.9,4.6-15.5,6.9-25.8,7
		c-8.5-0.1-15.5-1.6-21.1-4.4c-5.5-2.8-9.5-6.7-12.2-11.7s-4-10.9-4-17.6C1764,82.7,1765.8,73.4,1769.2,65.4z M1817.2,100
		c3.7-6,5.5-14.9,5.5-26.8c0-5.6-1.1-9.7-3.3-12.4c-2.2-2.7-5.4-4-9.4-4c-6.8,0.1-12,3.2-15.6,9.2c-3.7,6.1-5.5,15.1-5.5,26.9
		c0.1,5.6,1.2,9.6,3.3,12.2c2.2,2.7,5.3,4,9.2,3.8C1808.3,109.1,1813.6,106.1,1817.2,100z"/>
	<path class="st0" d="M1889,55.4c1.5-2.8,3.2-5.4,5.4-7.9c2.2-2.5,5-4.4,8.2-5.9c3.2-1.6,7.1-2.3,11.7-2.3c4.9,0,9.5,1.1,13.7,3.3
		s7.7,5.7,10.4,10.4s4.1,10.7,4.2,18.1c0,10.2-1.3,18.8-3.8,25.9c-2.6,7-5.9,12.7-10,17.1c-4,4.5-8.5,7.7-13.4,9.7
		c-4.8,2-9.5,3-14.1,3c-5.1-0.1-9.3-1-12.4-2.7s-5.5-3.8-7.2-6.4h-1l-7.2,41.5h-24.8l17.1-94.9c0.3-1.7,0.3-3.3-0.2-5
		c-0.3-1.6-1.6-2.4-3.8-2.5c-1.1,0-2.2,0.2-3.2,0.5s-1.9,0.7-2.7,1l1.8-16.7c1.9-0.6,4.3-1.1,7.2-1.7c2.9-0.4,5.7-0.7,8.5-0.7
		c5.4,0.1,9.2,1.3,11.5,3.7c2.3,2.5,3.5,5.3,3.5,8.5c0,0.6-0.1,1.2-0.2,1.8c0,0.7-0.1,1.3-0.2,2h1V55.4z M1883.5,102.4
		c1.3,2.1,3,3.8,5,5c2,1.1,4.2,1.7,6.7,1.7c3.7,0.1,7.2-1.1,10.5-3.5s6.1-6.4,8.2-11.7c2.1-5.4,3.2-12.3,3.3-20.7
		c-0.1-5.2-1.2-9.3-3.3-12c-2.2-2.8-5.3-4.2-9.2-4.2c-3.8,0.1-7.3,1.9-10.4,5.4c-3,3.6-5.1,8.5-6.4,14.9L1883.5,102.4z"/>
</g>
<path class="st1" d="M48.9,38.1H24v87.8c0,11.3-3.9,15.6-9.3,15.6c-4.5,0-8.5-0.8-12.1-1.8l-2.6,17c5,1.4,11.1,2.4,19,2.4
	c20.6,0,29.8-12.2,29.8-32.5L48.9,38.1L48.9,38.1z M24,24.6h25.1V3.2H24V24.6z"/>
<path class="st1" d="M82,67.9c-0.2-1.4-0.3-2.9-0.3-4c0-7.2,5-10.6,15.4-10.6s15.1,5.1,15.1,12.7v6.8c-42.5,0.8-56.6,11.3-56.6,29.1
	c0,15.4,10.9,22.8,27.5,22.8c18.3,0,28.8-10,31.7-13.5h1c0.3,6.4,3.1,13.5,15.8,13.5c5,0,10.5-1,14.2-2.3l-1-16.6
	c-1.4,0.5-2.9,0.6-4.3,0.6c-2.4,0-3.9-1.4-3.9-4.8V67c0-15.9-8.2-30.9-38.3-30.9c-26.9,0-39.1,10.5-39.1,26.7c0,1.9,0.2,4.3,0.5,6.3
	L82,67.9z M79.6,98.6c0-7.2,7.1-12.4,32.5-13v12.4c-4.8,5.5-13,9.3-20.9,9.3C83.8,107.4,79.6,104.8,79.6,98.6z"/>
<path class="st1" d="M145.4,80.6c0,27.8,15,43.9,44.7,43.9c35.5,0,39.1-21.1,39.1-29.6c0-1.3,0-2.7-0.3-4.5L204.1,90
	c0.3,1,0.3,2.1,0.3,2.7c0,5.1-2.7,13.8-15.1,13.8c-12.4,0-18.5-9.2-18.5-26.2c0-19.9,6.9-26.5,18.5-26.5c12.2,0,15.1,8.8,15.1,13.8
	c0,0.8,0,1.9-0.3,2.9l24.8-0.5c0.3-1.9,0.3-3.1,0.3-4.5c0-9.2-3.7-29.6-39.1-29.6C158.9,36.3,145.4,56.6,145.4,80.6z"/>
<path class="st1" d="M236.4,122.9h24.9V96.6c3.1-1.9,10-6.6,13.3-9.2c3.9,4.2,19.6,32.2,23.2,35.4h26.9V120
	c-4.7-3.9-27-40.5-31.5-45.8c8.4-7.1,20.9-19.8,29.8-33.1v-2.9h-27.2c-8.4,13.3-22.5,26.7-34.4,34.7V-1.8h-24.9V122.9z"/>
<path class="st1" d="M328.4,122.9h18.7l3.7-9.3h1c4,4.3,11.4,11.1,26.5,11.1c19,0,36.2-12.4,36.2-44.4c0-32.2-17.7-43.9-36.2-43.9
	c-11.7,0-19.8,4.8-24,9.6h-1V-1.8h-24.9L328.4,122.9L328.4,122.9z M353.3,61.6c3.9-4.3,9.8-7.4,15.8-7.4c11.1,0,19.9,5.8,19.9,26.2
	c0,20.3-8.4,26.5-19.9,26.5c-7.1,0-12.7-3.2-15.8-7.2V61.6z"/>
<path class="st1" d="M417,80.6c0,26.7,14.5,43.9,44.7,43.9c29.8,0,44.7-17.4,44.7-43.9c0-26.9-15-44.4-44.7-44.4
	C431.5,36.3,417,53.7,417,80.6z M461.6,106.8c-11.9,0-19.5-6.8-19.5-26.2c0-19.8,7.4-26.5,19.5-26.5c11.6,0,19.1,6.8,19.1,26.5
	C480.9,100,473.3,106.8,461.6,106.8z"/>
<path class="st1" d="M503.5,122.9h26.5l11.4-17.2c3.1-4.8,5.1-8.2,7.7-13.3h1.3c2.7,5,4,7.6,7.6,13l11.7,17.5h26.5v-2.4l-30.4-41
	l29.9-38.8v-2.6h-26.5l-10.6,15.4c-3.2,4.8-5.5,8.4-8.4,13.7H549c-2.6-5.3-5.1-9.5-8.2-13.8l-10.5-15.3h-26.5v2.6l29.6,39.4
	l-29.9,40.4V122.9z"/>
<rect x="600.3" y="96.2" class="st1" width="28.8" height="26.7"/>
<path class="st1" d="M661,122.9h-25.1V38h18.4l3.1,11.8h1.2c4-6.1,10.4-13.5,23.6-13.5c17.3,0,22.9,12.5,22.9,26.3
	c0,4.2-0.9,8.5-1.6,11.6L682,73c0.5-2.6,0.7-5.2,0.7-7.1c0-7.4-3.5-11.4-8.8-11.4c-6.6,0-11.1,5.7-12.8,10.6V122.9z"/>
<path class="st1" d="M752.6,36.2c29.8,0,44.7,17.5,44.7,44.4c0,26.7-14.9,44-44.7,44c-30.1,0-44.7-17.3-44.7-44
	C707.9,53.7,722.4,36.2,752.6,36.2z M771.8,80.6c0-19.8-7.6-26.5-19.2-26.5c-12,0-19.4,6.8-19.4,26.5c0,19.4,7.4,26.2,19.4,26.2
	C764.2,106.7,771.8,100,771.8,80.6z"/>
<path class="st1" d="M845.8,36.2c35.5,0,39.2,20.4,39.2,29.6c0,1.4,0,2.6-0.3,4.5l-24.8,0.5c0.3-1,0.3-2.1,0.3-2.9
	c0-5-2.8-13.9-15.1-13.9c-11.6,0-18.5,6.6-18.5,26.5c0,17,6.2,26.2,18.5,26.2c12.3,0,15.1-8.7,15.1-13.9c0-0.7,0-1.7-0.3-2.8
	l24.8,0.3c0.3,1.7,0.3,3.3,0.3,4.5c0,8.5-3.6,29.6-39.2,29.6c-29.8,0-44.7-16.1-44.7-44C801.1,56.5,814.7,36.2,845.8,36.2z"/>
<path class="st1" d="M890.5-1.9h24.9v74.7c12-8.1,26.2-21.5,34.5-34.8h27.2v2.9c-8.8,13.3-21.5,26-29.8,33.1
	c4.5,5.4,26.9,42.1,31.5,45.9v2.9H952c-3.6-3.1-19.4-31.2-23.2-35.3c-3.3,2.6-10.2,7.3-13.3,9.2v26.2h-24.9V-1.9z"/>
<path class="st1" d="M999.8,94.3c-0.2,1.2-0.2,2.1-0.2,2.8c0,4.5,2.6,10.4,17.5,10.4c9.7,0,14.6-3.3,14.6-8.3
	c0-5.2-5.4-6.9-12.3-8.5l-12.3-2.8c-19.8-4.5-28.4-11.3-28.4-26c0-15.2,13.2-25.6,38.5-25.6c31.7,0,36.9,15.2,37.1,24.8
	c0,1.4,0,2.6-0.3,4.3l-21.7,0.3c0.2-1.2,0.2-2.1,0.2-2.8c0-4-2.9-9.4-15.9-9.4c-9.7,0-14.2,2.9-14.2,8c0,6.6,6.6,7.6,13.5,9
	l13.3,2.8c20.3,4.2,27,12.1,27,25.5c0,14-12.3,25.8-39,25.8c-34.1,0-40-16.6-40-26.5c0-1.2,0.2-2.4,0.3-3.3L999.8,94.3z"/>
</svg>
