<?xml version="1.0" encoding="utf-8"?>
<!-- Generator: Adobe Illustrator 26.2.1, SVG Export Plug-In . SVG Version: 6.00 Build 0)  -->
<svg version="1.1" id="Слой_1" xmlns="http://www.w3.org/2000/svg" xmlns:xlink="http://www.w3.org/1999/xlink" x="0px" y="0px"
	 viewBox="0 0 1791.1 162.3" style="enable-background:new 0 0 1791.1 162.3;" xml:space="preserve">
<style type="text/css">
	.st0{fill:#4254F4;}
	.st1{fill:#FFFFFF;}
</style>
<g id="Layer_2">
</g>
<g>
	<path class="st0" d="M56.5,40.3h-25v87.9c0,11.3-3.9,15.6-9.3,15.6c-4.5,0-8.5-0.8-12.1-1.8l-2.6,17.1c5,1.4,11.1,2.4,19,2.4
		c20.6,0,29.8-12.2,29.8-32.5V40.3H56.5z M31.6,26.7h25.1V5.3H31.6V26.7z"/>
	<path class="st0" d="M89.7,70.1c-0.2-1.4-0.3-2.9-0.3-4c0-7.2,5-10.6,15.5-10.6S120,60.6,120,68.1v6.8
		C77.5,75.7,63.3,86.2,63.3,104c0,15.5,11,22.9,27.5,22.9c18.4,0,28.8-10,31.7-13.5h1c0.3,6.4,3.1,13.5,15.8,13.5
		c5,0,10.5-1,14.2-2.3l-1-16.6c-1.4,0.5-2.9,0.6-4.3,0.6c-2.4,0-3.9-1.4-3.9-4.8V69.3c0-15.9-8.2-30.9-38.3-30.9
		c-26.9,0-39.1,10.5-39.1,26.7c0,1.9,0.2,4.3,0.5,6.3L89.7,70.1z M87.3,100.8c0-7.2,7.1-12.4,32.5-13v12.4c-4.8,5.5-13,9.3-20.9,9.3
		C91.5,109.7,87.3,107.1,87.3,100.8z"/>
	<path class="st0" d="M153.2,82.8c0,27.9,15,44,44.8,44c35.6,0,39.1-21.1,39.1-29.6c0-1.3,0-2.7-0.3-4.5l-24.8-0.3
		c0.3,1,0.3,2.1,0.3,2.7c0,5.2-2.7,13.8-15.1,13.8s-18.5-9.2-18.5-26.2c0-20,6.9-26.6,18.5-26.6c12.2,0,15.1,8.9,15.1,13.8
		c0,0.8,0,1.9-0.3,2.9l24.8-0.5c0.3-1.9,0.3-3.1,0.3-4.5c0-9.2-3.7-29.6-39.1-29.6C166.7,38.5,153.2,58.8,153.2,82.8z"/>
	<path class="st0" d="M244.3,125.1h25V98.9c3.1-1.9,10-6.6,13.4-9.2c3.9,4.2,19.6,32.2,23.2,35.4h26.9v-2.9
		c-4.7-3.9-27.1-40.6-31.6-45.9c8.4-7.1,20.9-19.8,29.8-33.2v-2.9h-27.2c-8.4,13.4-22.5,26.7-34.5,34.8V0.3h-25V125.1z"/>
	<path class="st0" d="M336.4,125.1h18.7l3.7-9.3h1c4,4.3,11.4,11.1,26.6,11.1c19,0,36.2-12.4,36.2-44.4c0-32.2-17.7-44-36.2-44
		c-11.8,0-19.8,4.8-24,9.7h-1V0.3h-25V125.1L336.4,125.1z M361.4,63.8c3.9-4.3,9.8-7.4,15.8-7.4c11.1,0,20,5.8,20,26.2
		c0,20.3-8.4,26.6-20,26.6c-7.1,0-12.7-3.2-15.8-7.2V63.8z"/>
	<path class="st0" d="M425.2,82.8c0,26.7,14.5,44,44.8,44c29.8,0,44.8-17.4,44.8-44c0-26.9-15-44.4-44.8-44.4
		C439.7,38.5,425.2,55.9,425.2,82.8z M469.8,109c-11.9,0-19.5-6.8-19.5-26.2c0-19.8,7.4-26.6,19.5-26.6c11.6,0,19.2,6.8,19.2,26.6
		C489.1,102.3,481.5,109,469.8,109z"/>
	<path class="st0" d="M511.8,125.1h26.6l11.4-17.2c3.1-4.8,5.2-8.2,7.7-13.4h1.3c2.7,5,4,7.6,7.6,13l11.8,17.6h26.6v-2.4l-30.4-41.1
		l30-38.8v-2.6h-26.6L567,55.7c-3.2,4.8-5.5,8.4-8.4,13.7h-1.3c-2.6-5.3-5.2-9.5-8.2-13.8l-10.5-15.3h-26.6v2.6l29.6,39.5l-30,40.4
		V125.1z"/>
	<rect x="608.8" y="98.4" class="st0" width="28.8" height="26.7"/>
	<path class="st0" d="M650.3,40.5h18.5l3.6,9.3h1c3.9-4.3,11.3-11,26.3-11c18.9,0,35.9,12.4,35.9,43.9c0,31.9-17.5,43.6-35.9,43.6
		c-11.7,0-19.6-4.8-23.9-9.6H675v42.2h-24.7V40.5z M675,101.3c3.8,4.3,9.8,7.4,15.6,7.4c11,0,19.7-5.7,19.7-25.7
		c0-20.1-8.2-26.4-19.7-26.4c-7,0-12.7,3.4-15.6,7.4V101.3z"/>
	<path class="st0" d="M768.5,124.6h-24.9V40.5h18.2l3.1,11.7h1.2c3.9-6,10.3-13.4,23.3-13.4c17.2,0,22.7,12.4,22.7,26.1
		c0,4.1-0.9,8.4-1.5,11.5l-21.3-1.2c0.5-2.6,0.7-5.1,0.7-7c0-7.4-3.4-11.3-8.8-11.3c-6.5,0-11,5.7-12.7,10.5V124.6z"/>
	<path class="st0" d="M856.7,38.8c29.5,0,44.3,17.3,44.3,43.9c0,26.4-14.8,43.6-44.3,43.6c-29.9,0-44.3-17.2-44.3-43.6
		C812.5,56.1,826.9,38.8,856.7,38.8z M875.8,82.7c0-19.6-7.6-26.3-19-26.3c-11.8,0-19.2,6.7-19.2,26.3c0,19.2,7.4,25.9,19.2,25.9
		C868.2,108.6,875.8,102,875.8,82.7z"/>
</g>
<g>
	<path class="st1" d="M994.4,55.4c2.3-4.7,5.6-8.5,9.7-11.4c4.2-3,9.6-4.6,16.2-4.7c6.8,0,12.1,1.5,15.9,4.5s6.3,7.1,7.5,12.2h1
		c1.6-2.9,3.5-5.6,5.7-8.2c2.3-2.5,5.1-4.5,8.2-6.2c3.2-1.6,7-2.3,11.4-2.3c7.9,0,14.1,2,18.4,6s6.5,10,6.5,17.9
		c0,1.5-0.1,3-0.3,4.7c-0.2,1.6-0.4,3.1-0.7,4.7l-5.2,28.4c-0.1,1-0.2,2.1-0.3,3.3s0.1,2.3,0.7,3.3c0.4,0.9,1.5,1.3,3,1.3
		c1,0,2.1-0.2,3.2-0.5c1.1-0.2,2.2-0.6,3.2-1.2l-2.5,16.7c-1.2,0.4-2.8,0.9-4.7,1.3c-2,0.3-4,0.6-6,0.8c-2,0.3-3.8,0.5-5.4,0.5
		c-5.7-0.1-9.9-1.5-12.5-4c-2.7-2.6-4-6.1-4-10.5c0-1.2,0.1-2.4,0.2-3.5c0.1-1.1,0.3-2.2,0.5-3.3l5.7-32.8c0.1-1.1,0.2-2.2,0.3-3.2
		c0.1-1.1,0.2-2.1,0.2-2.8c0-3-0.7-5.4-2.2-7.2c-1.6-1.7-4-2.5-7.2-2.5c-3.8-0.1-7.4,1.9-10.9,6c-3.6,4.1-6.2,11.2-8,21.1l-7,41
		h-24.6l9.4-52.4c0.1-1.1,0.2-2.2,0.3-3.2c0.2-1.1,0.3-2.1,0.3-2.8c0-3-0.7-5.4-2.2-7.2c-1.5-1.7-3.7-2.5-6.9-2.5
		c-3.9-0.1-7.6,1.9-11.2,6s-6.3,11.2-8.2,21.1l-7.2,41h-24.6l10.5-60.6c0.3-1.7,0.3-3.3,0-5c-0.3-1.6-1.6-2.4-3.7-2.5
		c-1.2,0-2.3,0.2-3.3,0.5c-1,0.3-1.8,0.7-2.5,1l1.8-16.7c1.8-0.6,4.1-1.1,7-1.7c2.9-0.4,5.7-0.7,8.5-0.7c5.4,0.1,9.3,1.3,11.7,3.7
		c2.5,2.5,3.6,5.3,3.5,8.5c0,0.6,0,1.2,0,1.8c-0.1,0.7-0.2,1.3-0.3,2H994.4z"/>
	<path class="st1" d="M1107.1,65.4c3.3-8.1,8.5-14.5,15.4-19.1c6.9-4.6,15.5-6.9,25.8-7c8.5,0,15.5,1.5,21.1,4.4
		c5.6,2.8,9.7,6.7,12.4,11.9c2.8,5,4.2,10.9,4.2,17.7c0,10.4-1.8,19.6-5.4,27.6c-3.5,8-8.6,14.3-15.6,18.9c-6.9,4.6-15.5,6.9-25.8,7
		c-8.5-0.1-15.5-1.6-21.1-4.4c-5.5-2.8-9.5-6.7-12.2-11.7s-4-10.9-4-17.6C1101.9,82.7,1103.6,73.4,1107.1,65.4z M1155.1,100
		c3.7-6,5.5-14.9,5.5-26.8c0-5.6-1.1-9.7-3.3-12.4c-2.2-2.7-5.4-4-9.4-4c-6.8,0.1-12,3.2-15.6,9.2c-3.7,6.1-5.5,15.1-5.5,26.9
		c0.1,5.6,1.2,9.6,3.3,12.2c2.2,2.7,5.3,4,9.2,3.8C1146.2,109.1,1151.4,106.1,1155.1,100z"/>
	<path class="st1" d="M1211,131c-0.3,0.9-0.7,1.8-1,2.8c-0.3,1-0.5,2-0.5,3c0,2.2,0.9,4,2.7,5.2c1.8,1.2,4.3,1.8,7.5,1.8
		c4.6,0.1,8.5-1.3,11.9-4.4c3.2-3,5.5-8.3,6.9-15.9l1.7-10.7h-0.8c-2.8,2.9-6,5.1-9.5,6.7c-3.6,1.6-7.6,2.4-12.2,2.5
		c-4.7,0-9.2-1-13.6-3c-4.4-2-8-5.4-10.9-10c-2.8-4.7-4.2-11-4.4-19.1c0-10.4,1.8-19.4,5.5-26.9c3.6-7.6,8.5-13.4,14.7-17.6
		c6.4-4.1,13.6-6.2,21.8-6.2c4.6,0.1,8.4,0.9,11.4,2.3c2.9,1.5,5.2,3.1,6.9,5c1.7,2,2.8,3.7,3.5,5h1L1259,41h17.9l-14.6,82.7
		c-1.8,11.6-6.1,20.7-13.1,27.3c-6.9,6.7-17.1,10.1-30.5,10.2c-11.6-0.1-20.1-2-25.6-5.7c-5.4-3.6-8-8.3-8-14.1
		c0.1-2.2,0.4-4.4,1-6.4c0.7-2,1.5-3.6,2.3-4.9L1211,131z M1235.2,103.1c2.7-1.2,5.2-3.1,7.5-5.7l5.9-31.6c-1-2.6-2.7-4.7-5-6.5
		c-2.3-1.8-5.2-2.7-8.7-2.8c-4.1,0.1-7.8,1.6-10.9,4.4c-3.1,2.9-5.5,6.7-7.2,11.5c-1.8,4.8-2.7,10.2-2.7,16.2
		c0.1,6,1.5,10.3,4.2,12.9c2.8,2.5,6,3.6,9.5,3.5C1230.2,104.9,1232.7,104.3,1235.2,103.1z"/>
	<path class="st1" d="M1282,66.6c3.3-8.3,8.5-14.8,15.6-19.7s16.1-7.4,27.1-7.5c7.1,0,13.3,1.2,18.4,3.5c5.1,2.3,9.1,5.6,11.9,9.7
		c2.7,4,4,8.7,4,14.1c0,3-0.4,6.4-1.2,10c-0.7,3.6-1.6,6.7-2.8,9.4h-52.9c-0.3,1.5-0.6,2.8-0.7,4.2c-0.1,1.3-0.2,2.6-0.2,3.8
		c0,5.4,1.1,9.3,3.3,11.7c2.1,2.6,5.3,3.8,9.5,3.8c4.5,0.1,8.3-0.9,11.5-3.2c3.1-2.1,4.7-5.6,4.9-10.4l22.6,0.3
		c-0.1,6.9-2,12.6-5.5,17.1c-3.6,4.6-8.3,7.9-14.2,10c-5.9,2.2-12.5,3.3-19.7,3.3c-12.4-0.1-21.6-3.1-27.6-8.9
		c-5.9-5.8-8.9-13.7-8.9-23.8C1277.2,84,1278.8,74.8,1282,66.6z M1335.4,71.9c0.3-0.8,0.6-1.7,0.8-2.7c0.1-1,0.2-2.1,0.2-3.2
		c0-3.8-1.2-6.5-3.5-8.2c-2.3-1.7-5.3-2.5-8.9-2.5c-4.6,0-8.6,1.3-12,3.8c-3.3,2.6-5.8,6.8-7.4,12.7H1335.4z"/>
	<path class="st1" d="M1395.9,55.4c1.5-2.8,3.2-5.4,5.4-7.9c2.2-2.5,5-4.4,8.2-5.9c3.2-1.6,7.1-2.3,11.7-2.3c4.9,0,9.5,1.1,13.7,3.3
		c4.2,2.2,7.7,5.7,10.4,10.4c2.7,4.7,4.1,10.7,4.2,18.1c0,10.2-1.3,18.8-3.8,25.9c-2.6,7-5.9,12.7-10,17.1c-4,4.5-8.5,7.7-13.4,9.7
		c-4.8,2-9.5,3-14.1,3c-5.1-0.1-9.3-1-12.4-2.7c-3.1-1.7-5.5-3.8-7.2-6.4h-1l-7.2,41.5h-24.8l17.1-94.9c0.3-1.7,0.3-3.3-0.2-5
		c-0.3-1.6-1.6-2.4-3.8-2.5c-1.1,0-2.2,0.2-3.2,0.5c-1,0.3-1.9,0.7-2.7,1l1.8-16.7c1.9-0.6,4.3-1.1,7.2-1.7c2.9-0.4,5.7-0.7,8.5-0.7
		c5.4,0.1,9.2,1.3,11.5,3.7c2.3,2.5,3.5,5.3,3.5,8.5c0,0.6-0.1,1.2-0.2,1.8c0,0.7-0.1,1.3-0.2,2H1395.9z M1390.4,102.4
		c1.3,2.1,3,3.8,5,5c2,1.1,4.2,1.7,6.7,1.7c3.7,0.1,7.2-1.1,10.5-3.5c3.3-2.5,6.1-6.4,8.2-11.7c2.1-5.4,3.2-12.3,3.3-20.7
		c-0.1-5.2-1.2-9.3-3.3-12c-2.2-2.8-5.3-4.2-9.2-4.2c-3.8,0.1-7.3,1.9-10.4,5.4c-3,3.6-5.1,8.5-6.4,14.9L1390.4,102.4z"/>
	<path class="st1" d="M1465.7,123.5c-4.1-2.3-7.4-6-9.9-11c-2.6-4.9-3.8-11.4-3.8-19.4c0.1-10.7,2-20.1,5.5-28.1
		c3.7-8,8.5-14.3,14.6-18.7c6-4.6,12.7-6.9,19.9-6.9c4.6,0,8.4,0.6,11.4,1.8s5.5,2.7,7.4,4.5c1.8,1.8,3.2,3.6,4.4,5.5h1.2l5-10.2
		h18.6l-10.7,60.1c-0.2,0.9-0.4,2-0.5,3.3c-0.1,1.2,0.1,2.3,0.5,3.3c0.4,1,1.5,1.5,3,1.5c1.1,0,2.2-0.2,3.3-0.5
		c1.1-0.3,2.1-0.7,3-1.2l-2.5,16.6c-1.2,0.4-2.8,0.9-4.7,1.3c-1.9,0.3-3.8,0.6-5.9,0.8c-2,0.3-3.8,0.5-5.5,0.5c-5,0-8.7-1-11-3
		s-3.7-4.9-4-8.5h-0.8c-1.5,1.5-3.3,3.1-5.7,4.9c-2.3,1.8-5.1,3.3-8.4,4.7c-3.1,1.2-6.8,1.9-11,2
		C1474.1,126.8,1469.7,125.7,1465.7,123.5z M1511,64.4c-0.9-1.9-2.2-3.6-4-5.2c-1.9-1.5-4.4-2.2-7.5-2.3c-3.6,0-7,1.4-10.2,4.2
		c-3.2,2.7-5.9,6.7-8,12c-2,5.2-3.1,11.7-3.2,19.2c0.1,6.1,1.3,10.5,3.7,13.1c2.3,2.6,5.2,3.8,8.7,3.7c3,0,5.7-0.7,8-2
		c2.3-1.5,4.4-3.2,6-5.2L1511,64.4z"/>
	<path class="st1" d="M1563.7,62.2h-19.8l3.7-21.2h7.4l0,0h22.3h-0.6h39.4l-3.5,21.2h-24.3l-7,34.3c-0.7,3.2-0.6,5.9,0.3,8
		c1,2,3.3,3,6.9,3c2.2,0,4.7-0.4,7.4-1.2c2.7-0.9,5.6-2.1,8.9-3.5l-2.5,19.6c-3.2,1.2-6.7,2.2-10.4,3c-3.8,0.8-7.9,1.2-12.2,1.3
		c-7.8-0.1-13.8-2-17.9-5.7c-4.1-3.6-6.2-8.3-6.2-14.1c0-1.3,0.1-2.7,0.2-4.2c0.2-1.5,0.4-2.8,0.7-4.2L1563.7,62.2z"/>
	<path class="st1" d="M1616.2,65.4c3.3-8.1,8.5-14.5,15.4-19.1c6.9-4.6,15.5-6.9,25.8-7c8.5,0,15.5,1.5,21.1,4.4
		c5.6,2.8,9.7,6.7,12.4,11.9c2.8,5,4.2,10.9,4.2,17.7c0,10.4-1.8,19.6-5.4,27.6c-3.5,8-8.6,14.3-15.6,18.9c-6.9,4.6-15.5,6.9-25.8,7
		c-8.5-0.1-15.5-1.6-21.1-4.4c-5.5-2.8-9.5-6.7-12.2-11.7s-4-10.9-4-17.6C1611,82.7,1612.8,73.4,1616.2,65.4z M1664.2,100
		c3.7-6,5.5-14.9,5.5-26.8c0-5.6-1.1-9.7-3.3-12.4c-2.2-2.7-5.4-4-9.4-4c-6.8,0.1-12,3.2-15.6,9.2c-3.7,6.1-5.5,15.1-5.5,26.9
		c0.1,5.6,1.2,9.6,3.3,12.2c2.2,2.7,5.3,4,9.2,3.8C1655.3,109.1,1660.6,106.1,1664.2,100z"/>
	<path class="st1" d="M1736,55.4c1.5-2.8,3.2-5.4,5.4-7.9c2.2-2.5,5-4.4,8.2-5.9c3.2-1.6,7.1-2.3,11.7-2.3c4.9,0,9.5,1.1,13.7,3.3
		c4.2,2.2,7.7,5.7,10.4,10.4s4.1,10.7,4.2,18.1c0,10.2-1.3,18.8-3.8,25.9c-2.6,7-5.9,12.7-10,17.1c-4,4.5-8.5,7.7-13.4,9.7
		c-4.8,2-9.5,3-14.1,3c-5.1-0.1-9.3-1-12.4-2.7c-3.1-1.7-5.5-3.8-7.2-6.4h-1l-7.2,41.5h-24.8l17.1-94.9c0.3-1.7,0.3-3.3-0.2-5
		c-0.3-1.6-1.6-2.4-3.8-2.5c-1.1,0-2.2,0.2-3.2,0.5c-1,0.3-1.9,0.7-2.7,1l1.8-16.7c1.9-0.6,4.3-1.1,7.2-1.7c2.9-0.4,5.7-0.7,8.5-0.7
		c5.4,0.1,9.2,1.3,11.5,3.7c2.3,2.5,3.5,5.3,3.5,8.5c0,0.6-0.1,1.2-0.2,1.8c0,0.7-0.1,1.3-0.2,2H1736z M1730.5,102.4
		c1.3,2.1,3,3.8,5,5c2,1.1,4.2,1.7,6.7,1.7c3.7,0.1,7.2-1.1,10.5-3.5s6.1-6.4,8.2-11.7c2.1-5.4,3.2-12.3,3.3-20.7
		c-0.1-5.2-1.2-9.3-3.3-12c-2.2-2.8-5.3-4.2-9.2-4.2c-3.8,0.1-7.3,1.9-10.4,5.4c-3,3.6-5.1,8.5-6.4,14.9L1730.5,102.4z"/>
</g>
</svg>
