<?xml version="1.0" encoding="utf-8"?>
<!-- Generator: Adobe Illustrator 26.2.1, SVG Export Plug-In . SVG Version: 6.00 Build 0)  -->
<svg version="1.1" id="Слой_1" xmlns="http://www.w3.org/2000/svg" xmlns:xlink="http://www.w3.org/1999/xlink" x="0px" y="0px"
	 viewBox="0 0 1140.9 175.4" style="enable-background:new 0 0 1140.9 175.4;" xml:space="preserve">
<style type="text/css">
	.st0{fill:#FFFFFF;}
</style>
<g>
	<path class="st0" d="M3.7,43.4h20.4l4,10.2h1.1c4.3-4.7,12.4-12.1,28.9-12.1c20.7,0,39.4,13.6,39.4,48.3
		c0,35.1-19.2,47.9-39.4,47.9c-12.8,0-21.5-5.3-26.2-10.6h-0.9v46.4H3.7V43.4z M30.9,110.1c4.1,4.7,10.7,8.1,17.2,8.1
		c12.1,0,21.7-6.2,21.7-28.3s-9.1-29-21.7-29c-7.7,0-14,3.8-17.2,8.1V110.1z"/>
	<path class="st0" d="M204,135.8h-20l-3.6-13.6h-1.1c-4.9,7.4-14,15.5-29.2,15.5c-20.2,0-34.3-10.4-34.3-37.2V43.4h27.2v54.9
		c0,15.5,5.8,20,15.5,20c8.1,0,14.5-4.5,18.3-10.2V43.4H204V135.8z"/>
	<path class="st0" d="M247.6,104.7c-0.2,1.3-0.2,2.3-0.2,3c0,4.9,2.8,11.3,19,11.3c10.6,0,15.8-3.6,15.8-9.1c0-5.7-5.8-7.5-13.4-9.2
		l-13.4-3c-21.5-4.9-30.9-12.3-30.9-28.3c0-16.6,14.3-27.9,41.9-27.9c34.5,0,40.2,16.6,40.4,27c0,1.5,0,2.8-0.4,4.7l-23.6,0.4
		c0.2-1.3,0.2-2.3,0.2-3c0-4.3-3.2-10.2-17.4-10.2c-10.6,0-15.5,3.2-15.5,8.7c0,7.2,7.2,8.3,14.7,9.8l14.5,3
		c22.1,4.5,29.4,13.2,29.4,27.7c0,15.3-13.4,28.1-42.4,28.1c-37.2,0-43.6-18.1-43.6-28.9c0-1.3,0.2-2.6,0.4-3.6L247.6,104.7z"/>
	<path class="st0" d="M327.7,0h27.2v81.3c13-8.9,28.5-23.4,37.5-37.9H422v3.2c-9.6,14.5-23.4,28.3-32.4,36
		c4.9,5.8,29.2,45.8,34.3,50v3.2h-29.2c-4-3.4-21.1-33.9-25.3-38.5c-3.6,2.8-11.1,7.9-14.5,10v28.5h-27.2V0z"/>
	<path class="st0" d="M437.1,77.3c-0.4-2.1-0.6-4.7-0.6-6.8c0-17.7,13.4-29,42.6-29c32.8,0,41.7,16.2,41.7,33.6v37.5
		c0,3.8,1.5,5.3,4.1,5.3c1.5,0,3.2-0.2,4.7-0.8l1.1,18.1c-4.1,1.3-10,2.5-15.5,2.5c-13.8,0-16.8-7.7-17.2-14.7h-1.1
		c-3.2,3.8-14.5,14.7-34.5,14.7c-18.1,0-30-8.1-30-24.9c0-19.4,15.5-30.7,61.7-31.7v-7.4c0-8.1-5.1-13.8-16.4-13.8
		c-11.3,0-16.8,3.6-16.8,11.5c0,1.1,0.2,2.8,0.4,4.3L437.1,77.3z M471.5,119c8.7,0,17.5-4.1,22.8-10.2V95.2
		c-27.7,0.6-35.5,6.2-35.5,14.1C458.8,116.2,463.3,119,471.5,119z"/>
	<path class="st0" d="M546.9,0H574v52.1h1.1c4.5-5.3,13.2-10.6,26-10.6c20.2,0,39.4,12.8,39.4,47.9c0,34.7-18.7,48.3-39.4,48.3
		c-16.4,0-24.5-7.4-28.9-12.1h-1.1l-4,10.2h-20.4V0z M574,110.3c3.4,4.3,9.4,7.9,17.2,7.9c12.6,0,21.7-6.8,21.7-28.9
		c0-22.3-9.6-28.5-21.7-28.5c-6.4,0-13,3.4-17.2,8.1V110.3z"/>
	<path class="st0" d="M703,41.5c32.4,0,48.7,19,48.7,48.3c0,29-16.2,47.9-48.7,47.9c-32.8,0-48.7-18.9-48.7-47.9
		C654.4,60.5,670.2,41.5,703,41.5z M724,89.8c0-21.5-8.3-28.9-20.9-28.9c-13,0-21.1,7.4-21.1,28.9c0,21.1,8.1,28.5,21.1,28.5
		C715.7,118.3,724,110.9,724,89.8z"/>
	<path class="st0" d="M761.9,133.2l33-43.9l-32.2-43v-2.8h28.9L802.8,60c3.2,4.7,6,9.2,8.9,15.1h1.3c3-5.8,5.5-9.6,9.1-14.9
		l11.5-16.8h28.9v2.8l-32.6,42.2l33.2,44.7v2.6h-28.9l-12.8-19c-4-5.8-5.3-8.7-8.3-14.1h-1.3c-2.8,5.7-5.1,9.2-8.5,14.5l-12.4,18.7
		h-28.9V133.2z"/>
	<path class="st0" d="M878.2,106.7h31.3v29h-31.3V106.7z"/>
	<path class="st0" d="M960.1,143c-0.2,0.9-0.2,1.7-0.2,2.1c0,6.6,5.5,11.5,16.4,11.5c12.3,0,21.3-7.9,21.3-23.2v-11.7h-1.3
		c-5.7,6.2-16,10.9-27.5,10.9c-19.6,0-40.2-12.1-40.2-45.3c0-33.2,20.6-45.8,40.2-45.8c16.4,0,25.7,8.7,29.2,12.8h1.1l3.8-10.9h20.6
		v86.8c0,30-19.8,45.3-46.6,45.3c-28.5,0-43-12.4-43-28.3c0-1.5,0-3.6,0.4-5.1L960.1,143z M996.1,104.5V69.6
		c-3.6-5.3-10.9-9.2-17.7-9.2c-10.9,0-22.1,6-22.1,27.2c0,20.7,11.1,26.2,21.9,26.2C985.2,113.7,992.2,109.8,996.1,104.5z"/>
	<path class="st0" d="M1046.3,77.3c-0.4-2.1-0.6-4.7-0.6-6.8c0-17.7,13.4-29,42.6-29c32.8,0,41.7,16.2,41.7,33.6v37.5
		c0,3.8,1.5,5.3,4.1,5.3c1.5,0,3.2-0.2,4.7-0.8l1.1,18.1c-4.1,1.3-10,2.5-15.5,2.5c-13.8,0-16.8-7.7-17.2-14.7h-1.1
		c-3.2,3.8-14.5,14.7-34.5,14.7c-18.1,0-30-8.1-30-24.9c0-19.4,15.5-30.7,61.7-31.7v-7.4c0-8.1-5.1-13.8-16.4-13.8
		c-11.3,0-16.8,3.6-16.8,11.5c0,1.1,0.2,2.8,0.4,4.3L1046.3,77.3z M1080.6,119c8.7,0,17.5-4.1,22.8-10.2V95.2
		c-27.7,0.6-35.5,6.2-35.5,14.1C1068,116.2,1072.5,119,1080.6,119z"/>
</g>
</svg>
