<?xml version="1.0" encoding="utf-8"?>
<!-- Generator: Adobe Illustrator 26.2.1, SVG Export Plug-In . SVG Version: 6.00 Build 0)  -->
<svg version="1.1" id="Слой_1" xmlns="http://www.w3.org/2000/svg" xmlns:xlink="http://www.w3.org/1999/xlink" x="0px" y="0px"
	 viewBox="0 0 902.6 100" style="enable-background:new 0 0 902.6 100;" xml:space="preserve">
<style type="text/css">
	.st0{fill:#FFFFFF;}
</style>
<path class="st0" d="M195.5,25.9h10.4l2,5.2h0.6c2.2-2.4,6.3-6.1,14.7-6.1c10.6,0,20.1,6.9,20.1,24.6c0,17.9-9.8,24.4-20.1,24.4
	c-6.5,0-10.9-2.7-13.3-5.4h-0.5v23.6h-13.8V25.9z M209.3,59.9c2.1,2.4,5.5,4.1,8.7,4.1c6.1,0,11-3.2,11-14.4
	c0-11.2-4.6-14.8-11-14.8c-3.9,0-7.1,1.9-8.7,4.1V59.9z"/>
<path class="st0" d="M290.5,73h-10.2l-1.8-6.9h-0.6c-2.5,3.7-7.1,7.9-14.9,7.9c-10.3,0-17.5-5.3-17.5-18.9V25.9h13.8v27.9
	c0,7.9,3,10.2,7.9,10.2c4.1,0,7.4-2.3,9.3-5.2V25.9h13.9V73z"/>
<path class="st0" d="M305.7,57.1c-0.1,0.7-0.1,1.2-0.1,1.5c0,2.5,1.4,5.8,9.7,5.8c5.4,0,8.1-1.8,8.1-4.6c0-2.9-3-3.8-6.8-4.7
	l-6.8-1.5c-10.9-2.5-15.8-6.2-15.8-14.4c0-8.5,7.3-14.2,21.3-14.2c17.6,0,20.5,8.5,20.6,13.7c0,0.8,0,1.4-0.2,2.4l-12,0.2
	c0.1-0.7,0.1-1.2,0.1-1.5c0-2.2-1.6-5.2-8.8-5.2c-5.4,0-7.9,1.6-7.9,4.4c0,3.6,3.6,4.2,7.5,5l7.4,1.5c11.2,2.3,15,6.7,15,14.1
	c0,7.8-6.8,14.3-21.6,14.3c-18.9,0-22.2-9.2-22.2-14.7c0-0.7,0.1-1.3,0.2-1.8L305.7,57.1z"/>
<path class="st0" d="M339.5,3.8h13.8v41.4c6.6-4.5,14.5-11.9,19.1-19.3h15.1v1.6c-4.9,7.4-11.9,14.4-16.5,18.3
	c2.5,3,14.9,23.3,17.5,25.5V73h-14.9c-2-1.7-10.8-17.3-12.9-19.6c-1.8,1.4-5.7,4-7.4,5.1V73h-13.8V3.8z"/>
<path class="st0" d="M390.2,43.2c-0.2-1.1-0.3-2.4-0.3-3.5c0-9,6.8-14.8,21.7-14.8c16.7,0,21.2,8.3,21.2,17.1v19.1
	c0,1.9,0.8,2.7,2.1,2.7c0.8,0,1.6-0.1,2.4-0.4l0.6,9.2c-2.1,0.7-5.1,1.2-7.9,1.2c-7,0-8.5-3.9-8.7-7.5h-0.6
	c-1.6,1.9-7.4,7.5-17.6,7.5c-9.2,0-15.3-4.1-15.3-12.7c0-9.9,7.9-15.7,31.4-16.1v-3.7c0-4.1-2.6-7-8.4-7s-8.5,1.8-8.5,5.9
	c0,0.6,0.1,1.4,0.2,2.2L390.2,43.2z M407.7,64.4c4.4,0,8.9-2.1,11.6-5.2v-6.9c-14.1,0.3-18.1,3.2-18.1,7.2
	C401.2,63,403.5,64.4,407.7,64.4z"/>
<path class="st0" d="M440.1,3.8h13.8v26.5h0.6c2.3-2.7,6.7-5.4,13.3-5.4c10.3,0,20.1,6.5,20.1,24.4c0,17.7-9.5,24.6-20.1,24.6
	c-8.4,0-12.5-3.7-14.7-6.1h-0.6l-2,5.2h-10.4V3.8z M453.9,60c1.7,2.2,4.8,4,8.7,4c6.4,0,11-3.5,11-14.7c0-11.3-4.9-14.5-11-14.5
	c-3.3,0-6.6,1.7-8.7,4.1V60z"/>
<path class="st0" d="M514.6,24.9c16.5,0,24.8,9.7,24.8,24.6c0,14.8-8.3,24.4-24.8,24.4c-16.7,0-24.8-9.6-24.8-24.4
	C489.8,34.6,497.9,24.9,514.6,24.9z M525.3,49.5c0-10.9-4.2-14.7-10.7-14.7c-6.6,0-10.8,3.7-10.8,14.7c0,10.8,4.1,14.5,10.8,14.5
	C521,64,525.3,60.3,525.3,49.5z"/>
<path class="st0" d="M535.6,71.6l16.8-22.4l-16.4-21.9v-1.4h14.7l5.8,8.5c1.6,2.4,3.1,4.7,4.5,7.7h0.7c1.5-3,2.8-4.9,4.6-7.6
	l5.9-8.5h14.7v1.4l-16.6,21.5L587,71.6V73h-14.7l-6.5-9.7c-2-3-2.7-4.4-4.2-7.2h-0.7c-1.4,2.9-2.6,4.7-4.3,7.4l-6.3,9.5h-14.7V71.6z
	"/>
<path class="st0" d="M588.8,58.2h15.9V73h-15.9V58.2z"/>
<path class="st0" d="M622.5,76.6c-0.1,0.5-0.1,0.9-0.1,1.1c0,3.4,2.8,5.9,8.4,5.9c6.2,0,10.9-4,10.9-11.8v-6h-0.7
	c-2.9,3.2-8.2,5.6-14,5.6c-10,0-20.5-6.1-20.5-23s10.5-23.3,20.5-23.3c8.4,0,13.1,4.4,14.9,6.5h0.6l1.9-5.6h10.5v44.2
	c0,15.3-10.1,23-23.7,23c-14.5,0-21.9-6.3-21.9-14.4c0-0.8,0-1.8,0.2-2.6L622.5,76.6z M640.8,57V39.3c-1.8-2.7-5.6-4.7-9-4.7
	c-5.6,0-11.2,3.1-11.2,13.8c0,10.6,5.7,13.3,11.1,13.3C635.3,61.7,638.8,59.7,640.8,57z"/>
<path class="st0" d="M659.4,43.2c-0.2-1.1-0.3-2.4-0.3-3.5c0-9,6.8-14.8,21.7-14.8c16.7,0,21.2,8.3,21.2,17.1v19.1
	c0,1.9,0.8,2.7,2.1,2.7c0.8,0,1.6-0.1,2.4-0.4l0.6,9.2c-2.1,0.7-5.1,1.2-7.9,1.2c-7,0-8.5-3.9-8.7-7.5h-0.6
	c-1.6,1.9-7.4,7.5-17.6,7.5c-9.2,0-15.3-4.1-15.3-12.7c0-9.9,7.9-15.7,31.4-16.1v-3.7c0-4.1-2.6-7-8.4-7c-5.8,0-8.5,1.8-8.5,5.9
	c0,0.6,0.1,1.4,0.2,2.2L659.4,43.2z M676.9,64.4c4.4,0,8.9-2.1,11.6-5.2v-6.9c-14.1,0.3-18.1,3.2-18.1,7.2
	C670.4,63,672.7,64.4,676.9,64.4z"/>
</svg>
