<?xml version="1.0" encoding="utf-8"?>
<!-- Generator: Adobe Illustrator 26.2.1, SVG Export Plug-In . SVG Version: 6.00 Build 0)  -->
<svg version="1.1" id="Слой_1" xmlns="http://www.w3.org/2000/svg" xmlns:xlink="http://www.w3.org/1999/xlink" x="0px" y="0px"
	 viewBox="0 0 854.8 177.2" style="enable-background:new 0 0 854.8 177.2;" xml:space="preserve">
<style type="text/css">
	.st0{fill:#FFFFFF;}
</style>
<g>
	<path class="st0" d="M3.7,58.6H19l3,7.6h0.8c3.2-3.5,9.3-9,21.5-9c15.5,0,29.4,10.1,29.4,36c0,26.2-14.4,35.8-29.4,35.8
		c-9.6,0-16.1-3.9-19.6-7.9H24v34.6H3.7V58.6z M24,108.5c3.1,3.5,8,6.1,12.8,6.1c9,0,16.2-4.6,16.2-21.1s-6.8-21.7-16.2-21.7
		c-5.8,0-10.4,2.8-12.8,6.1V108.5z"/>
	<path class="st0" d="M153.3,127.6h-14.9l-2.7-10.1h-0.8C131.2,123,124.4,129,113,129c-15.1,0-25.6-7.7-25.6-27.7V58.6h20.3v41
		c0,11.5,4.4,14.9,11.5,14.9c6.1,0,10.8-3.4,13.7-7.6V58.6h20.4V127.6z"/>
	<path class="st0" d="M185.8,104.4c-0.1,1-0.1,1.7-0.1,2.3c0,3.7,2.1,8.4,14.2,8.4c7.9,0,11.8-2.7,11.8-6.8c0-4.2-4.4-5.6-10-6.9
		l-10-2.3c-16.1-3.7-23.1-9.2-23.1-21.1c0-12.4,10.7-20.8,31.3-20.8c25.8,0,30,12.4,30.1,20.1c0,1.1,0,2.1-0.3,3.5l-17.6,0.3
		c0.1-1,0.1-1.7,0.1-2.3c0-3.2-2.4-7.6-13-7.6c-7.9,0-11.5,2.4-11.5,6.5c0,5.4,5.4,6.2,11,7.3l10.8,2.3c16.5,3.4,22,9.9,22,20.7
		c0,11.4-10,21-31.7,21c-27.7,0-32.5-13.5-32.5-21.5c0-1,0.1-2,0.3-2.7L185.8,104.4z"/>
	<path class="st0" d="M245.6,26.3h20.3v60.7c9.7-6.6,21.3-17.5,28-28.3H316V61c-7.2,10.8-17.5,21.1-24.2,26.9
		c3.7,4.4,21.8,34.2,25.6,37.3v2.4h-21.8c-3-2.5-15.8-25.3-18.9-28.7c-2.7,2.1-8.3,5.9-10.8,7.5v21.3h-20.3V26.3z"/>
	<path class="st0" d="M327.3,84c-0.3-1.5-0.4-3.5-0.4-5.1c0-13.2,10-21.7,31.8-21.7c24.5,0,31.1,12.1,31.1,25.1v28
		c0,2.8,1.1,3.9,3.1,3.9c1.1,0,2.4-0.1,3.5-0.6l0.8,13.5c-3.1,1-7.5,1.8-11.5,1.8c-10.3,0-12.5-5.8-12.8-11H372
		c-2.4,2.8-10.8,11-25.8,11c-13.5,0-22.4-6.1-22.4-18.6c0-14.5,11.5-22.9,46-23.7v-5.5c0-6.1-3.8-10.3-12.2-10.3
		c-8.4,0-12.5,2.7-12.5,8.6c0,0.8,0.1,2.1,0.3,3.2L327.3,84z M352.9,115.1c6.5,0,13.1-3.1,17-7.6V97.4c-20.7,0.4-26.5,4.6-26.5,10.6
		C343.5,113,346.8,115.1,352.9,115.1z"/>
	<path class="st0" d="M409.2,26.3h20.3v38.9h0.8c3.4-3.9,9.9-7.9,19.4-7.9c15.1,0,29.4,9.6,29.4,35.8c0,25.9-13.9,36-29.4,36
		c-12.2,0-18.3-5.5-21.5-9h-0.8l-3,7.6h-15.2V26.3z M429.5,108.6c2.5,3.2,7,5.9,12.8,5.9c9.4,0,16.2-5.1,16.2-21.5
		c0-16.6-7.2-21.3-16.2-21.3c-4.8,0-9.7,2.5-12.8,6.1V108.6z"/>
	<path class="st0" d="M525.8,57.2c24.2,0,36.3,14.2,36.3,36c0,21.7-12.1,35.8-36.3,35.8c-24.5,0-36.3-14.1-36.3-35.8
		C489.5,71.5,501.3,57.2,525.8,57.2z M541.4,93.3c0-16.1-6.2-21.5-15.6-21.5c-9.7,0-15.8,5.5-15.8,21.5c0,15.8,6.1,21.3,15.8,21.3
		C535.2,114.5,541.4,109,541.4,93.3z"/>
	<path class="st0" d="M569.7,125.7l24.6-32.8l-24.1-32.1v-2.1h21.5l8.4,12.4c2.4,3.5,4.5,6.9,6.6,11.3h1c2.3-4.4,4.1-7.2,6.8-11.1
		l8.6-12.5h21.5v2.1l-24.4,31.5l24.8,33.4v2h-21.5l-9.6-14.2c-3-4.4-3.9-6.5-6.2-10.6h-1c-2.1,4.2-3.8,6.9-6.3,10.8l-9.3,13.9h-21.5
		V125.7z"/>
	<path class="st0" d="M656.6,106h23.4v21.7h-23.4V106z"/>
	<path class="st0" d="M717.7,133c-0.1,0.7-0.1,1.3-0.1,1.5c0,4.9,4.1,8.6,12.2,8.6c9.2,0,15.9-5.9,15.9-17.3v-8.7h-1
		c-4.2,4.6-12,8.2-20.6,8.2c-14.6,0-30-9-30-33.8c0-24.8,15.3-34.2,30-34.2c12.2,0,19.1,6.5,21.8,9.6h0.8l2.8-8.2H765v64.8
		c0,22.4-14.8,33.8-34.8,33.8c-21.3,0-32.1-9.3-32.1-21.1c0-1.1,0-2.7,0.3-3.8L717.7,133z M744.6,104.3v-26
		c-2.7-3.9-8.2-6.9-13.2-6.9c-8.2,0-16.5,4.5-16.5,20.3c0,15.5,8.3,19.6,16.3,19.6C736.4,111.2,741.6,108.2,744.6,104.3z"/>
	<path class="st0" d="M782,84c-0.3-1.5-0.4-3.5-0.4-5.1c0-13.2,10-21.7,31.8-21.7c24.5,0,31.1,12.1,31.1,25.1v28
		c0,2.8,1.1,3.9,3.1,3.9c1.1,0,2.4-0.1,3.5-0.6l0.8,13.5c-3.1,1-7.5,1.8-11.5,1.8c-10.3,0-12.5-5.8-12.8-11h-0.8
		c-2.4,2.8-10.8,11-25.8,11c-13.5,0-22.4-6.1-22.4-18.6c0-14.5,11.5-22.9,46-23.7v-5.5c0-6.1-3.8-10.3-12.2-10.3
		c-8.4,0-12.5,2.7-12.5,8.6c0,0.8,0.1,2.1,0.3,3.2L782,84z M807.6,115.1c6.5,0,13.1-3.1,17-7.6V97.4c-20.7,0.4-26.5,4.6-26.5,10.6
		C798.2,113,801.6,115.1,807.6,115.1z"/>
</g>
</svg>
