<?xml version="1.0" encoding="utf-8"?>
<!-- Generator: Adobe Illustrator 26.2.1, SVG Export Plug-In . SVG Version: 6.00 Build 0)  -->
<svg version="1.1" id="Слой_1" xmlns="http://www.w3.org/2000/svg" xmlns:xlink="http://www.w3.org/1999/xlink" x="0px" y="0px"
	 viewBox="0 0 1312.8 202.1" style="enable-background:new 0 0 1312.8 202.1;" xml:space="preserve">
<style type="text/css">
	.st0{fill:#FFFFFF;}
</style>
<g>
	<path class="st0" d="M3.7,50h23.5l4.6,11.7h1.3c5-5.4,14.3-13.9,33.2-13.9c23.9,0,45.4,15.6,45.4,55.6c0,40.4-22.2,55.2-45.4,55.2
		c-14.8,0-24.8-6.1-30.2-12.2H35v53.5H3.7V50z M35,126.9c4.8,5.4,12.4,9.3,19.8,9.3c13.9,0,25-7.2,25-32.6s-10.4-33.5-25-33.5
		c-8.9,0-16.1,4.3-19.8,9.3V126.9z"/>
	<path class="st0" d="M234.5,156.4h-23l-4.1-15.6H206c-5.6,8.5-16.1,17.8-33.7,17.8c-23.2,0-39.5-12-39.5-42.8V50h31.3v63.2
		c0,17.8,6.7,23,17.8,23c9.3,0,16.7-5.2,21.1-11.7V50h31.5V156.4z"/>
	<path class="st0" d="M284.7,120.6c-0.2,1.5-0.2,2.6-0.2,3.5c0,5.7,3.3,13,21.9,13c12.2,0,18.3-4.1,18.3-10.4
		c0-6.5-6.7-8.7-15.4-10.6l-15.4-3.5c-24.8-5.6-35.6-14.1-35.6-32.6c0-19.1,16.5-32.2,48.2-32.2c39.8,0,46.3,19.1,46.5,31.1
		c0,1.7,0,3.3-0.4,5.4l-27.2,0.4c0.2-1.5,0.2-2.6,0.2-3.5c0-5-3.7-11.7-20-11.7c-12.2,0-17.8,3.7-17.8,10c0,8.3,8.3,9.6,16.9,11.3
		l16.7,3.5c25.4,5.2,33.9,15.2,33.9,31.9c0,17.6-15.4,32.4-48.9,32.4c-42.8,0-50.2-20.9-50.2-33.2c0-1.5,0.2-3,0.4-4.1L284.7,120.6z
		"/>
	<path class="st0" d="M377,0h31.3v93.6c15-10.2,32.8-26.9,43.2-43.7h34.1v3.7c-11.1,16.7-26.9,32.6-37.4,41.5
		c5.6,6.7,33.7,52.8,39.5,57.6v3.7h-33.7c-4.6-3.9-24.3-39.1-29.1-44.3c-4.1,3.3-12.8,9.1-16.7,11.5v32.8H377V0z"/>
	<path class="st0" d="M503,89.1c-0.4-2.4-0.7-5.4-0.7-7.8c0-20.4,15.4-33.5,49.1-33.5c37.8,0,48,18.7,48,38.7v43.2
		c0,4.3,1.7,6.1,4.8,6.1c1.7,0,3.7-0.2,5.4-0.9l1.3,20.9c-4.8,1.5-11.5,2.8-17.8,2.8c-15.9,0-19.3-8.9-19.8-16.9h-1.3
		c-3.7,4.3-16.7,16.9-39.8,16.9c-20.9,0-34.5-9.3-34.5-28.7c0-22.4,17.8-35.4,71.1-36.5V85c0-9.3-5.9-15.9-18.9-15.9
		c-13,0-19.3,4.1-19.3,13.3c0,1.3,0.2,3.3,0.4,5L503,89.1z M542.6,137.1c10,0,20.2-4.8,26.3-11.7v-15.6
		c-31.9,0.7-40.8,7.2-40.8,16.3C528,133.8,533.2,137.1,542.6,137.1z"/>
	<path class="st0" d="M629.5,0h31.3v60h1.3c5.2-6.1,15.2-12.2,30-12.2c23.2,0,45.4,14.8,45.4,55.2c0,40-21.5,55.6-45.4,55.6
		c-18.9,0-28.2-8.5-33.2-13.9h-1.3l-4.6,11.7h-23.5V0z M660.8,127.1c3.9,5,10.9,9.1,19.8,9.1c14.6,0,25-7.8,25-33.2
		c0-25.6-11.1-32.8-25-32.8c-7.4,0-15,3.9-19.8,9.3V127.1z"/>
	<path class="st0" d="M809.4,47.8c37.4,0,56.1,21.9,56.1,55.6c0,33.5-18.7,55.2-56.1,55.2c-37.8,0-56.1-21.7-56.1-55.2
		C753.3,69.7,771.6,47.8,809.4,47.8z M833.5,103.4c0-24.8-9.6-33.2-24.1-33.2c-15,0-24.3,8.5-24.3,33.2c0,24.3,9.3,32.8,24.3,32.8
		C824,136.2,833.5,127.8,833.5,103.4z"/>
	<path class="st0" d="M877.2,153.4l38-50.6L878,53.2V50h33.2l13,19.1c3.7,5.4,7,10.6,10.2,17.4h1.5c3.5-6.7,6.3-11.1,10.4-17.2
		L959.7,50H993v3.3l-37.6,48.7l38.2,51.5v3h-33.2l-14.8-21.9c-4.6-6.7-6.1-10-9.6-16.3h-1.5c-3.3,6.5-5.9,10.6-9.8,16.7l-14.3,21.5
		h-33.2V153.4z"/>
	<path class="st0" d="M1011.2,123h36.1v33.5h-36.1V123z"/>
	<path class="st0" d="M1105.5,164.7c-0.2,1.1-0.2,2-0.2,2.4c0,7.6,6.3,13.3,18.9,13.3c14.1,0,24.6-9.1,24.6-26.7v-13.5h-1.5
		c-6.5,7.2-18.5,12.6-31.7,12.6c-22.6,0-46.3-13.9-46.3-52.1c0-38.2,23.7-52.8,46.3-52.8c18.9,0,29.6,10,33.7,14.8h1.3l4.3-12.6
		h23.7v99.9c0,34.5-22.8,52.1-53.7,52.1c-32.8,0-49.5-14.3-49.5-32.6c0-1.7,0-4.1,0.4-5.9L1105.5,164.7z M1147,120.4V80.2
		c-4.1-6.1-12.6-10.6-20.4-10.6c-12.6,0-25.4,7-25.4,31.3c0,23.9,12.8,30.2,25.2,30.2C1134.4,131,1142.5,126.5,1147,120.4z"/>
	<path class="st0" d="M1204.8,89.1c-0.4-2.4-0.7-5.4-0.7-7.8c0-20.4,15.4-33.5,49.1-33.5c37.8,0,48,18.7,48,38.7v43.2
		c0,4.3,1.7,6.1,4.8,6.1c1.7,0,3.7-0.2,5.4-0.9l1.3,20.9c-4.8,1.5-11.5,2.8-17.8,2.8c-15.9,0-19.3-8.9-19.8-16.9h-1.3
		c-3.7,4.3-16.7,16.9-39.8,16.9c-20.9,0-34.5-9.3-34.5-28.7c0-22.4,17.8-35.4,71.1-36.5V85c0-9.3-5.9-15.9-18.9-15.9
		c-13,0-19.3,4.1-19.3,13.3c0,1.3,0.2,3.3,0.4,5L1204.8,89.1z M1244.4,137.1c10,0,20.2-4.8,26.3-11.7v-15.6
		c-31.9,0.7-40.8,7.2-40.8,16.3C1229.8,133.8,1235,137.1,1244.4,137.1z"/>
</g>
</svg>
