<?xml version="1.0" encoding="utf-8"?>
<!-- Generator: Adobe Illustrator 26.2.1, SVG Export Plug-In . SVG Version: 6.00 Build 0)  -->
<svg version="1.1" id="Слой_1" xmlns="http://www.w3.org/2000/svg" xmlns:xlink="http://www.w3.org/1999/xlink" x="0px" y="0px"
	 viewBox="0 0 902.6 100" style="enable-background:new 0 0 902.6 100;" xml:space="preserve">
<style type="text/css">
	.st0{fill:#FFFFFF;}
</style>
<path class="st0" d="M129.9,77.5h-11.8l-2.2-5.8h-0.6c-2.5,2.7-7.2,6.9-16.6,6.9c-11.9,0-22.6-7.8-22.6-27.7
	c0-20.1,11-27.5,22.6-27.5c7.4,0,12.3,3,14.9,6.1h0.6V-0.4h15.6V77.5z M114.3,39.2c-2.4-2.7-6.3-4.7-10-4.7
	c-6.8,0-12.3,3.6-12.3,16.3c0,12.7,5.2,16.6,12.3,16.6c4.5,0,8-2.1,10-4.5V39.2z"/>
<path class="st0" d="M161.5,23.4c16.2,0,25.4,8.5,25.4,20.5c0,2.7-0.3,6.5-0.6,9H149c0,10.5,4.4,14.9,12.3,14.9
	c8.1,0,10.5-4.1,10.5-7.1c0-0.3,0-0.8,0-1.4l14.5,0.3c0.1,0.6,0.2,1.4,0.2,1.9c0,6.1-3.5,17.1-25.3,17.1
	c-18.1,0-27.4-10.1-27.4-27.6C133.8,35.5,142.3,23.4,161.5,23.4z M172.6,44c0.1-0.5,0.1-1.1,0.1-1.4c0-6-5.1-9-11-9
	c-6.9,0-11.6,3.1-12.2,10.4H172.6z"/>
<path class="st0" d="M186.9,25.6v-1.1h15.7l9.5,28.1c1.3,4,2.5,9.1,3.1,12.8h1.2c0.6-3.7,1.7-8.5,3.1-12.7l9.5-28.2h15.7v1.1
	l-20.5,51.9h-17L186.9,25.6z"/>
<path class="st0" d="M236.6,60.8h18v16.7h-18V60.8z"/>
<path class="st0" d="M259.4,24.5h11.7l2.3,5.8h0.6c2.5-2.7,7.1-6.9,16.6-6.9c11.9,0,22.6,7.8,22.6,27.7c0,20.1-11,27.5-22.6,27.5
	c-7.4,0-12.3-3-15-6.1H275v26.6h-15.6V24.5z M275,62.8c2.4,2.7,6.2,4.7,9.8,4.7c6.9,0,12.4-3.6,12.4-16.2c0-12.7-5.2-16.7-12.4-16.7
	c-4.4,0-8,2.2-9.8,4.7V62.8z"/>
<path class="st0" d="M366.4,77.5h-11.5l-2.1-7.8h-0.6c-2.8,4.2-8,8.9-16.8,8.9c-11.6,0-19.7-6-19.7-21.3V24.5h15.6V56
	c0,8.9,3.4,11.5,8.9,11.5c4.7,0,8.3-2.6,10.5-5.8V24.5h15.7V77.5z"/>
<path class="st0" d="M385.4,59.6c-0.1,0.8-0.1,1.3-0.1,1.7c0,2.8,1.6,6.5,10.9,6.5c6.1,0,9.1-2.1,9.1-5.2c0-3.2-3.4-4.3-7.7-5.3
	l-7.7-1.7c-12.3-2.8-17.7-7-17.7-16.2c0-9.5,8.2-16,24-16c19.8,0,23,9.5,23.2,15.5c0,0.9,0,1.6-0.2,2.7l-13.5,0.2
	c0.1-0.8,0.1-1.3,0.1-1.7c0-2.5-1.8-5.8-10-5.8c-6.1,0-8.9,1.8-8.9,5c0,4.1,4.1,4.8,8.4,5.6l8.3,1.7c12.7,2.6,16.9,7.6,16.9,15.9
	c0,8.8-7.7,16.1-24.3,16.1c-21.3,0-25-10.4-25-16.6c0-0.8,0.1-1.5,0.2-2.1L385.4,59.6z"/>
<path class="st0" d="M423.3-0.4h15.6v46.6c7.5-5.1,16.3-13.4,21.5-21.8h17v1.8c-5.5,8.3-13.4,16.2-18.6,20.7
	c2.8,3.4,16.8,26.3,19.7,28.7v1.8h-16.8c-2.3-1.9-12.1-19.5-14.5-22.1c-2.1,1.6-6.4,4.5-8.3,5.7v16.3h-15.6V-0.4z"/>
<path class="st0" d="M481.1,44c-0.2-1.2-0.3-2.7-0.3-3.9c0-10.2,7.7-16.7,24.5-16.7c18.8,0,23.9,9.3,23.9,19.3v21.5
	c0,2.2,0.9,3,2.4,3c0.9,0,1.8-0.1,2.7-0.4l0.6,10.4c-2.4,0.8-5.7,1.4-8.9,1.4c-7.9,0-9.6-4.4-9.8-8.4h-0.6
	c-1.8,2.2-8.3,8.4-19.8,8.4c-10.4,0-17.2-4.7-17.2-14.3c0-11.1,8.9-17.6,35.4-18.2v-4.2c0-4.7-2.9-7.9-9.4-7.9
	c-6.5,0-9.6,2.1-9.6,6.6c0,0.7,0.1,1.6,0.2,2.5L481.1,44z M500.8,67.9c5,0,10.1-2.4,13.1-5.8v-7.8c-15.9,0.3-20.3,3.6-20.3,8.1
	C493.5,66.3,496.1,67.9,500.8,67.9z"/>
<path class="st0" d="M538.1-0.4h15.6v29.9h0.7c2.6-3,7.6-6.1,14.9-6.1c11.6,0,22.6,7.4,22.6,27.5c0,19.9-10.7,27.7-22.6,27.7
	c-9.4,0-14.1-4.2-16.6-6.9H552l-2.3,5.8h-11.7V-0.4z M553.7,62.9c1.9,2.5,5.4,4.5,9.8,4.5c7.3,0,12.4-3.9,12.4-16.6
	c0-12.8-5.5-16.3-12.4-16.3c-3.7,0-7.5,1.9-9.8,4.7V62.9z"/>
<path class="st0" d="M621.7,23.4c18.6,0,27.9,10.9,27.9,27.7c0,16.7-9.3,27.5-27.9,27.5c-18.8,0-27.9-10.8-27.9-27.5
	C593.8,34.3,602.9,23.4,621.7,23.4z M633.7,51.1c0-12.3-4.8-16.6-12-16.6c-7.5,0-12.1,4.2-12.1,16.6c0,12.1,4.7,16.3,12.1,16.3
	C628.9,67.4,633.7,63.2,633.7,51.1z"/>
<path class="st0" d="M645.4,76l18.9-25.2l-18.5-24.7v-1.6h16.6l6.5,9.5c1.8,2.7,3.5,5.3,5.1,8.7h0.8c1.7-3.4,3.1-5.5,5.2-8.5
	l6.6-9.6h16.6v1.6l-18.7,24.2l19,25.6v1.5h-16.6l-7.4-10.9c-2.3-3.4-3-5-4.8-8.1H674c-1.6,3.2-2.9,5.3-4.9,8.3L662,77.5h-16.6V76z"
	/>
<path class="st0" d="M706.2,60.8h18v16.7h-18V60.8z"/>
<path class="st0" d="M745.7,77.5H730v-53h11.5l1.9,7.4h0.8c2.5-3.8,6.5-8.4,14.7-8.4c10.8,0,14.3,7.8,14.3,16.4c0,2.6-0.5,5.3-1,7.3
	l-13.4-0.8c0.3-1.6,0.4-3.2,0.4-4.4c0-4.7-2.2-7.1-5.5-7.1c-4.1,0-6.9,3.6-8,6.6V77.5z"/>
<path class="st0" d="M827.6,77.5h-11.5l-2.1-7.8h-0.6c-2.8,4.2-8,8.9-16.8,8.9c-11.6,0-19.7-6-19.7-21.3V24.5h15.6V56
	c0,8.9,3.4,11.5,8.9,11.5c4.7,0,8.3-2.6,10.5-5.8V24.5h15.7V77.5z"/>
</svg>
