<?xml version="1.0" encoding="utf-8"?>
<!-- Generator: Adobe Illustrator 26.2.1, SVG Export Plug-In . SVG Version: 6.00 Build 0)  -->
<svg version="1.1" id="Слой_1" xmlns="http://www.w3.org/2000/svg" xmlns:xlink="http://www.w3.org/1999/xlink" x="0px" y="0px"
	 viewBox="0 0 854.8 177.2" style="enable-background:new 0 0 854.8 177.2;" xml:space="preserve">
<style type="text/css">
	.st0{fill:#FFFFFF;}
</style>
<g>
	<path class="st0" d="M3.9,48.2h17.8l3.1,7.7h0.8c1-1.1,2.4-2.4,4.2-3.8c1.8-1.4,4.1-2.6,6.8-3.7c2.8-1,6.2-1.6,10.1-1.6
		c4.9-0.1,9.5,1,13.9,3.1c4.3,2.2,7.8,5.8,10.6,10.9c2.8,5,4.2,11.7,4.3,20.3c-0.1,8.6-1.6,15.4-4.5,20.4c-2.8,5-6.4,8.5-10.7,10.6
		c-4.4,2.1-8.9,3.1-13.6,3.1c-4.5-0.1-8.2-0.9-11.3-2.4c-3.1-1.6-5.5-3.4-7.1-5.5h-0.8v33.2H3.9V48.2z M27.5,93.7
		c1.1,1.5,2.7,2.7,4.6,3.7c1.8,1,3.8,1.5,5.8,1.6c2.4,0,4.5-0.5,6.5-1.6c2.1-1,3.8-2.7,5-5.4c1.2-2.5,1.8-6.1,1.8-10.7
		c0-4.5-0.6-8.1-1.8-10.7c-1.1-2.7-2.7-4.6-4.8-5.6c-2-1.1-4.2-1.7-6.7-1.6c-2.4,0-4.4,0.5-6.2,1.4c-1.8,1-3.2,2.1-4.2,3.5V93.7z"/>
	<path class="st0" d="M153.9,113.9h-17.5l-2.7-9.8h-0.8c-1.1,1.7-2.6,3.5-4.5,5.2c-1.8,1.7-4.1,3.1-6.8,4.2
		c-2.7,1.1-5.9,1.7-9.6,1.8c-5,0-9.3-0.9-13.1-2.6c-3.8-1.8-6.7-4.7-8.9-8.5c-2.2-3.9-3.3-9.1-3.3-15.4V48.2h23.7v38.7
		c0,4.4,0.7,7.5,2.2,9.3c1.6,1.7,3.8,2.6,6.8,2.6c2.5-0.1,4.7-0.7,6.4-1.8c1.8-1,3.3-2.4,4.3-4.1V48.2h23.7V113.9z"/>
	<path class="st0" d="M187.2,92.3c-0.1,0.4-0.1,0.8-0.1,1s0,0.5,0,0.8c-0.1,1.1,0.2,2.3,0.9,3.5c0.6,1.1,1.8,2.1,3.5,2.7
		c1.7,0.8,4.1,1.2,7.5,1.2c3.2,0,5.6-0.5,7.2-1.4c1.6-1,2.4-2.4,2.4-4.2c-0.1-1.7-0.9-2.9-2.5-3.8c-1.5-0.8-3.5-1.4-6.2-2l-9.7-2.1
		c-8.3-1.8-14.3-4.3-17.9-7.5c-3.7-3.2-5.5-7.7-5.4-13.5c0.1-6.3,2.8-11.2,8.2-14.8c5.4-3.6,13.4-5.4,24-5.5c6.6,0,12,0.7,16.1,2
		c4,1.2,7.1,2.8,9.3,4.8c2.2,1.9,3.7,4,4.5,6.2c0.8,2.2,1.2,4.2,1.2,6c0,0.5,0,1,0,1.6c0,0.6-0.1,1.2-0.3,1.7l-20.4,0.3
		c0-0.4,0-0.8,0.1-1c0-0.2,0-0.4,0-0.7c0.1-1.7-0.7-3.2-2.2-4.7c-1.5-1.5-4.4-2.3-8.6-2.4c-3.2,0-5.6,0.5-7.1,1.6
		c-1.6,1-2.4,2.3-2.4,3.9c0.1,2,1.1,3.4,3,4.3c1.8,0.8,4,1.4,6.5,1.7l10.9,2.2c5.7,1.1,10.1,2.6,13.4,4.5c3.2,1.9,5.5,4.2,6.9,6.8
		c1.3,2.6,2,5.6,2,9c0,3.8-1.2,7.3-3.5,10.5c-2.4,3.1-6,5.6-10.9,7.3c-4.8,1.8-11,2.8-18.5,2.9c-7.1-0.1-12.8-0.8-17.1-2.1
		c-4.5-1.4-7.8-3.1-10.1-5.2c-2.4-2.1-4-4.3-4.8-6.5c-0.8-2.3-1.2-4.4-1.2-6.3c0-0.4,0-0.9,0.1-1.4c0-0.4,0-0.8,0.1-1L187.2,92.3z"
		/>
	<path class="st0" d="M243.5,17.4h23.7v56.2c4.3-2.8,8.6-6.4,12.8-10.7c4.2-4.4,7.7-9.2,10.5-14.7H316v2.7c-2,3.6-4.3,7.1-6.9,10.5
		c-2.6,3.3-5.3,6.4-8,9.2c-2.6,2.8-5.1,5.2-7.3,7.1c0.8,0.9,2,2.5,3.7,4.8c1.6,2.4,3.3,5,5.2,8c2,3,4,5.9,6,8.8
		c1.9,3,3.7,5.5,5.2,7.7c1.6,2.2,2.7,3.6,3.5,4.3v2.6h-25.3c-0.7-0.7-1.8-2.2-3.3-4.5c-1.5-2.2-3.1-4.7-4.7-7.5
		c-1.7-2.8-3.3-5.3-4.7-7.6c-1.5-2.4-2.6-4-3.4-4.8c-1.1,0.9-2.6,1.8-4.5,2.9c-1.8,1.1-3.3,2.1-4.5,2.7v18.7h-23.7V17.4z"/>
	<path class="st0" d="M326,72.5c-0.2-0.7-0.3-1.5-0.3-2.4c-0.1-0.8-0.1-1.6-0.1-2.5c-0.1-6.5,2.5-11.5,7.9-15.2
		c5.2-3.7,13.5-5.5,24.7-5.6c8.3,0.1,14.7,1.3,19.4,3.5c4.6,2.3,7.9,5.2,9.7,8.9c1.9,3.8,2.8,7.8,2.7,12.2v23c0,1.5,0.3,2.6,0.8,3.3
		c0.4,0.7,1.1,1,2.1,1c1.1,0,2.2-0.1,3.3-0.4l0.9,14.9c-1.8,0.6-3.8,1.1-6,1.4c-2.2,0.3-4.4,0.5-6.7,0.5c-3.7-0.1-6.5-0.7-8.4-1.7
		c-1.9-1-3.2-2.4-3.9-3.9c-0.8-1.6-1.2-3.1-1.3-4.7h-0.9c-1,1.4-2.7,2.9-4.8,4.5c-2.1,1.6-4.8,2.9-8.1,4.1
		c-3.3,1.1-7.3,1.7-11.9,1.8c-6.9,0-12.3-1.5-16.4-4.5c-4-2.9-6.1-7.2-6.2-13.1c-0.1-4.5,1.2-8.4,3.9-11.7c2.7-3.2,7.3-5.8,13.9-7.6
		c6.5-1.8,15.4-2.9,26.7-3.3v-4.5c0-2.6-0.8-4.7-2.5-6.2c-1.7-1.6-4.2-2.4-7.6-2.4c-3.6,0-6.2,0.6-8,1.7c-1.7,1.2-2.5,3-2.5,5.2
		c0,0.3,0,0.7,0.1,1.2c0,0.4,0,0.9,0.1,1.4L326,72.5z M347.1,99c1.3,1,3.3,1.4,5.9,1.4c2.7,0,5.3-0.5,7.7-1.6
		c2.4-1.1,4.5-2.6,6.3-4.5v-9c-5.8,0.3-10.3,0.8-13.5,1.6c-3.2,0.9-5.5,2-6.7,3.3c-1.3,1.2-1.9,2.7-1.8,4.3
		C345,96.4,345.7,97.9,347.1,99z"/>
	<path class="st0" d="M406.9,17.4h23.7v37.2h0.9c1.6-2.1,3.9-3.9,6.9-5.4c3.1-1.5,6.8-2.3,11.3-2.4c4.7-0.1,9.2,0.9,13.6,3
		c4.4,2.2,7.9,5.8,10.7,10.7c2.9,5,4.4,11.7,4.5,20.3c-0.1,8.6-1.5,15.4-4.3,20.4c-2.8,5.1-6.3,8.6-10.6,10.7
		c-4.4,2.2-9,3.3-13.9,3.3c-3.9-0.1-7.3-0.6-10.1-1.6c-2.7-1-5-2.3-6.8-3.7c-1.7-1.4-3.1-2.7-4.2-3.9h-0.8l-3.1,7.7h-17.8V17.4z
		 M430.6,94c1,1.4,2.5,2.5,4.3,3.4c1.7,1,3.8,1.5,6,1.6c2.4,0,4.7-0.5,6.7-1.6c2.1-1.1,3.7-3,4.8-5.6c1.2-2.6,1.8-6.2,1.8-10.9
		c0-4.6-0.6-8.2-1.8-10.7c-1.2-2.6-2.9-4.4-5-5.4c-2-1-4.2-1.5-6.5-1.4c-2,0-3.9,0.5-5.8,1.4c-1.9,0.9-3.4,2.1-4.6,3.7V94z"/>
	<path class="st0" d="M490.5,63.1c2.6-5.1,6.6-9,12-11.9c5.4-2.9,12.3-4.3,20.7-4.3c8.2,0,15,1.4,20.4,4.3
		c5.4,2.9,9.5,6.9,12.2,11.9c2.6,5.2,3.9,11.2,3.9,18.1c0,6.9-1.3,12.9-3.9,17.9c-2.7,5.1-6.8,9-12.2,11.9
		c-5.4,2.8-12.2,4.2-20.4,4.3c-8.4-0.1-15.3-1.5-20.7-4.3c-5.4-2.9-9.4-6.8-12-11.9c-2.6-5.1-3.9-11-3.9-17.9
		C486.6,74.3,487.9,68.2,490.5,63.1z M532.1,95c2.3-2.7,3.4-7.3,3.5-13.9c-0.1-6.6-1.3-11.3-3.5-14c-2.3-2.6-5.2-3.9-8.9-3.8
		c-3.8-0.1-6.9,1.2-9.3,3.8c-2.3,2.7-3.4,7.4-3.5,14c0.1,6.5,1.3,11.2,3.5,13.9c2.4,2.7,5.5,4,9.3,3.9C526.9,99,529.9,97.7,532.1,95
		z"/>
	<path class="st0" d="M565.8,111.8l23.2-31l-22.6-30.2v-2.4h25l6.9,10.6c1.1,1.6,2.1,3.2,3,4.8c0.9,1.7,1.7,3.5,2.6,5.5h1.2
		c1-2,1.9-3.8,2.7-5.2c0.9-1.4,1.9-3.1,3.1-5l6.9-10.7h24.9v2.4L620,80.2l23.3,31.5v2.1h-24.9l-7.9-12.2c-1.2-1.8-2.2-3.4-3-4.8
		c-0.7-1.4-1.5-3.1-2.5-5h-1.2c-1,2-1.8,3.8-2.6,5.2c-0.8,1.5-1.7,3.1-2.9,4.7l-7.7,12h-24.9V111.8z"/>
	<path class="st0" d="M653.5,90.3h26v23.6h-26V90.3z"/>
	<path class="st0" d="M718.4,118.1c0,0.2,0,0.4,0,0.7c0,0.2,0,0.3,0,0.4c-0.1,1.9,0.7,3.5,2.2,4.7c1.6,1.2,4.1,1.9,7.5,2
		c4.1,0,7.4-1.2,9.8-3.7c2.4-2.4,3.7-6,3.8-10.7v-7.6h-1c-2.1,2.2-4.9,4-8.4,5.5c-3.4,1.4-7.2,2.1-11.4,2.2c-3.4,0-6.8-0.5-10.2-1.6
		s-6.5-2.8-9.3-5.2c-2.8-2.4-5.1-5.7-6.8-9.8c-1.7-4.1-2.6-9.2-2.6-15.3c0.1-7.7,1.6-13.9,4.5-18.7c2.9-4.9,6.5-8.5,11-10.7
		c4.4-2.2,8.9-3.3,13.5-3.3c4.1,0.1,7.6,0.7,10.5,1.8c2.9,1.2,5.2,2.6,6.9,4.2c1.7,1.6,3,2.9,3.8,3.9h0.9l3.1-8.6H764v60.3
		c-0.1,7.4-1.6,13.6-4.6,18.6c-3.1,5-7.2,8.7-12.4,11.3c-5.2,2.5-11.3,3.8-18.2,3.8c-7.3-0.1-13.4-1-18.3-2.9
		c-4.9-1.9-8.6-4.4-11-7.5c-2.4-3.1-3.7-6.6-3.7-10.3c0-0.6,0-1.3,0-2c0-0.7,0.1-1.3,0.3-1.8L718.4,118.1z M735.6,94.2
		c1.9-1,3.5-2.4,4.7-4.1V68.9c-1.2-1.7-2.8-3.1-4.7-4.1c-1.9-1-3.9-1.4-5.9-1.4c-2.3-0.1-4.5,0.3-6.5,1.2c-2,0.9-3.7,2.5-5,4.8
		c-1.3,2.4-2,5.9-2.1,10.3c0.1,4.4,0.8,7.7,2.1,10.1c1.3,2.4,3,4,5,4.8c2,0.9,4.1,1.3,6.4,1.3C731.6,95.9,733.6,95.3,735.6,94.2z"/>
	<path class="st0" d="M778.9,72.5c-0.2-0.7-0.3-1.5-0.3-2.4c-0.1-0.8-0.1-1.6-0.1-2.5c-0.1-6.5,2.5-11.5,7.9-15.2
		c5.2-3.7,13.5-5.5,24.7-5.6c8.3,0.1,14.7,1.3,19.4,3.5c4.6,2.3,7.9,5.2,9.7,8.9c1.9,3.8,2.8,7.8,2.7,12.2v23c0,1.5,0.3,2.6,0.8,3.3
		c0.4,0.7,1.1,1,2.1,1c1.1,0,2.2-0.1,3.3-0.4l0.9,14.9c-1.8,0.6-3.8,1.1-6,1.4c-2.2,0.3-4.4,0.5-6.7,0.5c-3.7-0.1-6.5-0.7-8.4-1.7
		c-1.9-1-3.2-2.4-3.9-3.9c-0.8-1.6-1.2-3.1-1.3-4.7h-0.9c-1,1.4-2.7,2.9-4.8,4.5c-2.1,1.6-4.8,2.9-8.1,4.1
		c-3.3,1.1-7.3,1.7-11.9,1.8c-6.9,0-12.3-1.5-16.4-4.5c-4-2.9-6.1-7.2-6.2-13.1c-0.1-4.5,1.2-8.4,3.9-11.7c2.7-3.2,7.3-5.8,13.9-7.6
		c6.5-1.8,15.4-2.9,26.7-3.3v-4.5c0-2.6-0.8-4.7-2.5-6.2c-1.7-1.6-4.2-2.4-7.6-2.4c-3.6,0-6.2,0.6-8,1.7c-1.7,1.2-2.5,3-2.5,5.2
		c0,0.3,0,0.7,0.1,1.2c0,0.4,0,0.9,0.1,1.4L778.9,72.5z M800,99c1.3,1,3.3,1.4,5.9,1.4c2.7,0,5.3-0.5,7.7-1.6
		c2.4-1.1,4.5-2.6,6.3-4.5v-9c-5.8,0.3-10.3,0.8-13.5,1.6c-3.2,0.9-5.5,2-6.7,3.3c-1.3,1.2-1.9,2.7-1.8,4.3
		C797.9,96.4,798.6,97.9,800,99z"/>
</g>
</svg>
