<?xml version="1.0" encoding="utf-8"?>
<!-- Generator: Adobe Illustrator 26.2.1, SVG Export Plug-In . SVG Version: 6.00 Build 0)  -->
<svg version="1.1" id="Слой_1" xmlns="http://www.w3.org/2000/svg" xmlns:xlink="http://www.w3.org/1999/xlink" x="0px" y="0px"
	 viewBox="0 0 902.6 100" style="enable-background:new 0 0 902.6 100;" xml:space="preserve">
<style type="text/css">
	.st0{fill:#FFFFFF;}
</style>
<path class="st0" d="M210.8,28.6h9.8l1.9,4.9h0.5c2.1-2.3,6-5.8,13.9-5.8c10,0,19,6.5,19,23.3c0,16.9-9.3,23.1-19,23.1
	c-6.2,0-10.4-2.5-12.6-5.1h-0.5v22.4h-13.1V28.6z M223.9,60.8c2,2.3,5.2,3.9,8.3,3.9c5.8,0,10.5-3,10.5-13.6s-4.4-14-10.5-14
	c-3.7,0-6.7,1.8-8.3,3.9V60.8z"/>
<path class="st0" d="M300.3,73.2h-9.6l-1.7-6.5h-0.5c-2.4,3.5-6.7,7.5-14.1,7.5c-9.7,0-16.5-5-16.5-17.9V28.6h13.1v26.5
	c0,7.5,2.8,9.6,7.5,9.6c3.9,0,7-2.2,8.8-4.9V28.6h13.2V73.2z"/>
<path class="st0" d="M313.4,58.2c-0.1,0.6-0.1,1.1-0.1,1.5c0,2.4,1.4,5.5,9.2,5.5c5.1,0,7.6-1.7,7.6-4.4c0-2.7-2.8-3.6-6.5-4.5
	l-6.5-1.5c-10.4-2.4-14.9-5.9-14.9-13.6c0-8,6.9-13.5,20.2-13.5c16.6,0,19.4,8,19.5,13c0,0.7,0,1.4-0.2,2.3l-11.4,0.2
	c0.1-0.6,0.1-1.1,0.1-1.5c0-2.1-1.5-4.9-8.4-4.9c-5.1,0-7.5,1.5-7.5,4.2c0,3.5,3.5,4,7.1,4.7l7,1.5c10.6,2.2,14.2,6.4,14.2,13.4
	c0,7.4-6.5,13.5-20.5,13.5c-17.9,0-21-8.7-21-13.9c0-0.6,0.1-1.3,0.2-1.7L313.4,58.2z"/>
<path class="st0" d="M344.2,7.7h13.1v39.2c6.3-4.3,13.7-11.3,18.1-18.3h14.3v1.5c-4.6,7-11.3,13.6-15.6,17.4
	c2.4,2.8,14.1,22.1,16.5,24.1v1.5h-14.1c-1.9-1.6-10.2-16.4-12.2-18.5c-1.7,1.4-5.4,3.8-7,4.8v13.7h-13.1V7.7z"/>
<path class="st0" d="M393.8,45c-0.2-1-0.3-2.3-0.3-3.3c0-8.5,6.5-14,20.5-14c15.8,0,20.1,7.8,20.1,16.2V62c0,1.8,0.7,2.5,2,2.5
	c0.7,0,1.5-0.1,2.3-0.4l0.5,8.7c-2,0.6-4.8,1.2-7.5,1.2c-6.6,0-8.1-3.7-8.3-7.1h-0.5c-1.5,1.8-7,7.1-16.6,7.1
	c-8.7,0-14.5-3.9-14.5-12c0-9.4,7.5-14.8,29.7-15.3v-3.5c0-3.9-2.5-6.6-7.9-6.6c-5.5,0-8.1,1.7-8.1,5.5c0,0.5,0.1,1.4,0.2,2.1
	L393.8,45z M410.3,65.1c4.2,0,8.5-2,11-4.9v-6.5c-13.4,0.3-17.1,3-17.1,6.8C404.3,63.7,406.4,65.1,410.3,65.1z"/>
<path class="st0" d="M440.4,7.7h13.1v25.1h0.5c2.2-2.5,6.4-5.1,12.5-5.1c9.7,0,19,6.2,19,23.1c0,16.7-9,23.3-19,23.3
	c-7.9,0-11.8-3.5-13.9-5.8h-0.5l-1.9,4.9h-9.8V7.7z M453.5,60.9c1.6,2.1,4.5,3.8,8.3,3.8c6.1,0,10.5-3.3,10.5-13.9
	c0-10.7-4.6-13.7-10.5-13.7c-3.1,0-6.3,1.6-8.3,3.9V60.9z"/>
<path class="st0" d="M510.2,27.7c15.6,0,23.5,9.2,23.5,23.3c0,14-7.8,23.1-23.5,23.1c-15.8,0-23.5-9.1-23.5-23.1
	C486.7,36.9,494.4,27.7,510.2,27.7z M520.3,51c0-10.4-4-13.9-10.1-13.9c-6.3,0-10.2,3.5-10.2,13.9c0,10.2,3.9,13.7,10.2,13.7
	C516.3,64.7,520.3,61.2,520.3,51z"/>
<path class="st0" d="M529.1,71.9L545,50.7L529.5,30v-1.4h13.9l5.5,8c1.5,2.3,2.9,4.5,4.3,7.3h0.6c1.5-2.8,2.6-4.6,4.4-7.2l5.5-8.1
	h13.9V30l-15.7,20.4l16,21.5v1.3h-13.9l-6.2-9.2c-1.9-2.8-2.5-4.2-4-6.8h-0.6c-1.4,2.7-2.5,4.5-4.1,7l-6,9h-13.9V71.9z"/>
<path class="st0" d="M580.5,59.2h15.1v14h-15.1V59.2z"/>
<path class="st0" d="M612.1,76.6c-0.1,0.5-0.1,0.8-0.1,1c0,3.2,2.6,5.5,7.9,5.5c5.9,0,10.3-3.8,10.3-11.2v-5.6h-0.6
	c-2.7,3-7.7,5.3-13.3,5.3c-9.5,0-19.4-5.8-19.4-21.8c0-16,9.9-22.1,19.4-22.1c7.9,0,12.4,4.2,14.1,6.2h0.5l1.8-5.3h9.9v41.8
	c0,14.5-9.5,21.8-22.5,21.8c-13.7,0-20.7-6-20.7-13.6c0-0.7,0-1.7,0.2-2.5L612.1,76.6z M629.4,58.1V41.3c-1.7-2.5-5.3-4.5-8.5-4.5
	c-5.3,0-10.6,2.9-10.6,13.1c0,10,5.4,12.6,10.5,12.6C624.2,62.5,627.5,60.6,629.4,58.1z"/>
<path class="st0" d="M646.6,45c-0.2-1-0.3-2.3-0.3-3.3c0-8.5,6.5-14,20.5-14c15.8,0,20.1,7.8,20.1,16.2V62c0,1.8,0.7,2.5,2,2.5
	c0.7,0,1.5-0.1,2.3-0.4l0.5,8.7c-2,0.6-4.8,1.2-7.5,1.2c-6.6,0-8.1-3.7-8.3-7.1h-0.5c-1.5,1.8-7,7.1-16.6,7.1
	c-8.7,0-14.5-3.9-14.5-12c0-9.4,7.5-14.8,29.7-15.3v-3.5c0-3.9-2.5-6.6-7.9-6.6c-5.5,0-8.1,1.7-8.1,5.5c0,0.5,0.1,1.4,0.2,2.1
	L646.6,45z M663.1,65.1c4.2,0,8.5-2,11-4.9v-6.5c-13.4,0.3-17.1,3-17.1,6.8C657,63.7,659.2,65.1,663.1,65.1z"/>
</svg>
