<?xml version="1.0" encoding="utf-8"?>
<!-- Generator: Adobe Illustrator 26.2.1, SVG Export Plug-In . SVG Version: 6.00 Build 0)  -->
<svg version="1.1" id="Слой_1" xmlns="http://www.w3.org/2000/svg" xmlns:xlink="http://www.w3.org/1999/xlink" x="0px" y="0px"
	 viewBox="0 0 854.8 177.2" style="enable-background:new 0 0 854.8 177.2;" xml:space="preserve">
<style type="text/css">
	.st0{fill:#FFFFFF;stroke:#FFFFFF;stroke-width:3;stroke-miterlimit:10;}
</style>
<g>
	<g>
		<path class="st0" d="M37.5,54.1h10.1l2.1,7h0.8c1.1-1.1,2.5-2.4,4.3-3.7c1.8-1.2,4-2.3,6.7-3.3c2.7-0.9,6-1.4,10-1.4
			c5.5,0,10.4,1.4,14.7,4.1c4.3,2.7,7.7,6.9,10.1,12.3c2.4,5.5,3.6,12.4,3.7,20.7c-0.1,8.5-1.4,15.5-3.9,21
			c-2.5,5.4-5.9,9.4-10.1,12.1c-4.3,2.6-9.1,4-14.6,4c-5-0.1-9.1-0.9-12.3-2.6c-3.3-1.5-5.9-3.3-7.8-5.3h-0.6v35.3H37.5V54.1z
			 M50.8,109c2.1,2.2,4.6,3.9,7.3,5.3c2.8,1.3,5.6,2,8.6,2c3.8,0,7.2-0.8,10.1-2.3c3-1.6,5.3-4.4,6.9-8.2c1.7-3.8,2.5-9,2.5-15.8
			c0-6.6-0.8-11.9-2.4-15.9c-1.6-3.9-3.8-6.7-6.8-8.4c-2.9-1.7-6.3-2.5-10.4-2.4c-3.7,0-6.9,0.7-9.6,2.1c-2.8,1.5-4.9,3.3-6.4,5.3
			V109z"/>
		<path class="st0" d="M175.3,125.3h-9.6l-2.1-9.8h-1c-1.9,2.9-4.7,5.5-8.2,7.8c-3.6,2.2-8.2,3.4-13.7,3.5
			c-7.4,0.1-13.3-2.1-17.7-6.5c-4.3-4.5-6.6-11.8-6.7-21.9V54.1h13.3v43.1c0,5,0.6,8.9,1.9,11.8c1.2,2.7,2.9,4.6,5.1,5.7
			c2.2,1,4.8,1.6,7.8,1.6c3.7-0.1,7-1,10-2.8c3-1.9,5.4-4.3,7.3-7.2V54.1h13.4V125.3z"/>
		<path class="st0" d="M204.5,100.5c-0.1,0.6-0.1,1.1-0.1,1.7c0,0.5,0,0.9,0,1.3c-0.1,2,0.3,4,1.1,6s2.5,3.6,5,5c2.4,1.3,6.1,2,11,2
			c5,0,8.7-0.9,11.2-2.8c2.5-1.9,3.7-4.4,3.7-7.4c-0.1-2.9-1.3-5.1-3.6-6.5c-2.2-1.4-4.9-2.5-8.2-3.1L214.5,94
			c-6.7-1.6-11.9-4-15.5-7.1c-3.7-3.2-5.5-7.8-5.5-13.8c0-3.8,1-7.2,3-10.4c2-3.1,5.1-5.6,9.3-7.4c4.1-1.8,9.2-2.7,15.4-2.7
			c7.6,0.1,13.4,1.3,17.3,3.7c3.9,2.3,6.5,5,7.8,8.2c1.4,3.3,2,6.4,1.9,9.2c0,0.6,0,1.1,0,1.7c-0.1,0.7-0.2,1.3-0.3,2L236,77.8
			c0.1-0.6,0.1-1.1,0.1-1.6c0-0.5,0-0.9,0-1.3c0-1.9-0.4-3.7-1.2-5.5c-0.8-1.8-2.4-3.3-4.6-4.4c-2.2-1.1-5.5-1.7-9.7-1.7
			c-5,0.1-8.6,1.1-11,3c-2.4,1.9-3.6,4.2-3.5,6.8c0,2.3,0.6,4.1,1.8,5.4c1.2,1.3,2.7,2.4,4.6,3.1c1.9,0.7,4,1.2,6.2,1.7l10.3,2.4
			c7,1.5,12.2,3.9,15.5,7.1c3.3,3.2,4.9,7.7,4.9,13.3c0,3.6-1,7-3,10.1c-2,3.1-5.1,5.7-9.3,7.7c-4.3,1.9-9.6,2.9-15.9,3
			c-6.2-0.1-11.2-0.9-15.1-2.4c-3.9-1.5-6.9-3.5-9-5.8c-2-2.4-3.4-4.8-4.2-7.4c-0.7-2.6-1.1-5.1-1-7.2c0-0.6,0-1.1,0-1.6
			c0.1-0.6,0.2-1,0.3-1.3L204.5,100.5z"/>
		<path class="st0" d="M266.2,20.7h13.3v65c3.7-2.8,7.6-6,11.6-9.5c4.2-3.6,8.1-7.3,11.9-11.1c3.8-3.8,7.1-7.5,10-11.1h15v1.8
			c-4.4,5.3-9,10.2-13.6,14.8c-4.6,4.5-8.7,8.3-12.2,11.4c0.7,0.9,2,2.7,3.7,5.5c1.8,2.8,3.8,6.2,6.1,9.9c2.4,3.8,4.8,7.6,7.1,11.4
			c2.4,3.8,4.5,7,6.4,9.7c1.9,2.7,3.3,4.4,4.2,5.1v1.7h-15.1c-0.6-0.5-1.7-1.9-3-4.3c-1.5-2.3-3.1-5-5-8.2c-1.8-3.3-3.7-6.6-5.5-9.8
			c-1.8-3.3-3.5-6.2-5-8.7c-1.5-2.5-2.6-4.1-3.3-4.8c-1.1,0.9-2.5,2.1-4.2,3.5c-1.7,1.3-3.3,2.6-5,3.8s-3,2.2-4,2.8v25.5h-13.3V20.7
			z"/>
		<path class="st0" d="M341.2,79.8c-0.2-0.8-0.3-1.7-0.3-2.7c-0.1-0.9-0.1-1.8-0.1-2.6c-0.1-6.7,2.2-12,6.8-15.9
			c4.6-3.9,11.7-5.9,21.3-6c7.3,0.1,13,1.3,17,3.5c4,2.4,6.8,5.4,8.5,9.1c1.6,3.8,2.3,7.9,2.2,12.2v35.1c0,1.1,0.3,1.9,0.8,2.4
			c0.6,0.5,1.3,0.7,2.4,0.7c0.6,0,1.3,0,1.9-0.1c0.6-0.2,1.2-0.4,1.8-0.6l0.6,10.2c-1,0.5-2.4,0.8-4,1.1c-1.6,0.4-3.1,0.6-4.7,0.6
			c-4.1-0.1-6.8-1.2-8.3-3.4c-1.5-2.1-2.3-4.6-2.4-7.7h-0.8c-0.8,1-2.4,2.4-4.6,4.1c-2.2,1.7-5,3.3-8.5,4.7
			c-3.3,1.4-7.1,2.2-11.4,2.3c-6.3,0-11.4-1.6-15.2-4.7c-3.9-3.2-5.9-8.2-6.1-15c0-4.6,1.5-8.7,4.6-12.1c3-3.4,7.8-6.1,14.6-7.9
			c6.7-1.9,15.4-2.9,26.3-3v-8.4c0.1-3.6-1.1-6.6-3.6-9.1c-2.5-2.5-6.3-3.7-11.4-3.8c-5,0-8.8,0.9-11.4,2.6
			c-2.5,1.8-3.7,4.6-3.7,8.5c0,0.6,0,1.2,0,2c0.1,0.8,0.2,1.6,0.3,2.4L341.2,79.8z M354.5,113.8c1.9,1.7,4.7,2.6,8.2,2.6
			c4.1,0,7.9-0.9,11.6-2.8c3.7-1.8,6.8-4.2,9.3-7.2V93c-8.1,0-14.6,0.6-19.3,1.8c-4.7,1.1-8,2.6-10,4.5c-1.9,2-2.9,4.3-2.8,6.8
			C351.6,109.6,352.5,112.1,354.5,113.8z"/>
		<path class="st0" d="M418.6,20.7H432v39.6h0.6c1.8-2,4.4-3.7,7.8-5.3c3.2-1.5,7.3-2.3,12.3-2.4c5.4,0,10.3,1.3,14.6,3.8
			c4.2,2.6,7.6,6.7,10.1,12.2c2.5,5.5,3.8,12.4,3.9,20.9c-0.1,8.3-1.3,15.3-3.7,20.9c-2.4,5.5-5.8,9.6-10.1,12.3
			c-4.3,2.7-9.1,4.1-14.7,4.1c-4-0.1-7.3-0.6-10-1.6c-2.7-0.9-4.9-1.9-6.7-3.3c-1.8-1.3-3.2-2.6-4.3-3.7h-0.8l-2.1,7h-10.1V20.7z
			 M432,109c1.6,1.9,3.7,3.5,6.4,5c2.7,1.4,5.9,2.2,9.6,2.3c4.1,0,7.5-0.8,10.4-2.4c3-1.7,5.2-4.5,6.8-8.5c1.6-3.9,2.4-9.2,2.4-15.9
			c0-6.7-0.8-12-2.5-15.8c-1.7-3.8-4-6.5-6.9-8.1c-3-1.6-6.3-2.4-10.1-2.3c-3,0-5.8,0.7-8.6,2c-2.8,1.3-5.2,3.1-7.3,5.3V109z"/>
		<path class="st0" d="M502.6,62.6c5.5-6.5,13.8-9.8,24.8-9.9c10.9,0.1,19.2,3.4,24.8,9.9c5.5,6.6,8.4,15.7,8.5,27.3
			c-0.1,11.5-2.9,20.6-8.5,27.1c-5.6,6.4-13.9,9.7-24.8,9.9c-11-0.2-19.3-3.5-24.8-9.9c-5.6-6.5-8.5-15.6-8.5-27.1
			S497,69.2,502.6,62.6z M541.9,110.3c3.4-4.1,5.1-10.9,5.1-20.4c0-9.7-1.7-16.5-5.1-20.6c-3.4-4.1-8.2-6.1-14.4-6
			c-6.3-0.1-11.1,1.9-14.6,6c-3.4,4.1-5.1,10.9-5.1,20.6c0,9.6,1.7,16.4,5.1,20.4c3.4,4.1,8.3,6.1,14.6,6
			C533.6,116.4,538.5,114.4,541.9,110.3z"/>
		<path class="st0" d="M570.4,123.8l25.2-34.4l-24.8-33.5v-1.8h14.4L595.6,69c1.4,1.9,2.7,3.8,4,5.8c1.3,2,2.4,4.2,3.5,6.5h1
			c1.2-2.3,2.4-4.4,3.7-6.4c1.3-1.9,2.7-3.8,4.2-5.8l10.3-15h14.4v1.8l-24.9,32.9l25.2,34.9v1.6h-14.3l-11.4-16.7
			c-1.7-2.5-3-4.5-4-6.1c-1-1.7-2.1-3.5-3.2-5.5h-1c-1,2.2-2.1,4.2-3.2,6c-1.2,1.9-2.5,3.9-4,6l-11.2,16.5h-14.3V123.8z"/>
		<path class="st0" d="M649.8,107.9H667v17.5h-17.2V107.9z"/>
		<path class="st0" d="M699.9,131.6c0,0.6,0,1-0.1,1.4c0,0.5,0,0.9,0,1.1c0.1,3.5,1.5,6.2,4.2,8.2c2.7,2.1,6.4,3.1,11.2,3.1
			c5.5,0,9.9-1.7,13.3-5.1c3.5-3.4,5.3-8.6,5.4-15.6v-10.2h-0.7c-2.2,2.7-5.1,4.7-8.7,6.2c-3.6,1.5-7.6,2.3-12.1,2.4
			c-5.3,0-10.1-1.3-14.6-3.8c-4.4-2.6-8-6.5-10.7-11.8c-2.8-5.2-4.2-11.8-4.3-19.7c0.1-8,1.5-14.7,4.3-19.9c2.9-5.2,6.5-9,11-11.5
			c4.4-2.6,9.2-3.8,14.3-3.8c3.8,0,7.1,0.5,10,1.4c2.9,0.9,5.2,2.1,7.1,3.4c1.9,1.3,3.4,2.6,4.4,3.7h0.8l1.9-7.1h10.3v69.1
			c0,7.3-1.4,13.3-4.2,18.2c-2.8,4.9-6.5,8.6-11.2,10.9c-4.7,2.5-10.1,3.7-16.1,3.7c-6.2-0.1-11.4-1-15.7-2.8
			c-4.2-1.9-7.3-4.5-9.4-7.8c-2.2-3.2-3.3-7-3.3-11.2c0-0.5,0-1,0-1.6c0.1-0.6,0.1-1.2,0.1-1.8L699.9,131.6z M726.1,109.7
			c3-1.6,5.5-3.6,7.5-6.1V71c-1.8-2.4-4.3-4.2-7.3-5.5c-3.1-1.4-6.2-2.1-9.4-2.1c-3.4-0.1-6.7,0.6-9.7,2.1c-3,1.5-5.6,4.1-7.6,7.7
			c-1.9,3.6-2.9,8.6-2.9,14.9c0,6.1,1,10.8,2.9,14.3c1.9,3.6,4.4,6.2,7.5,7.7c3.1,1.5,6.3,2.3,9.7,2.3
			C720,112.2,723.1,111.3,726.1,109.7z"/>
		<path class="st0" d="M766.4,79.8c-0.2-0.8-0.3-1.7-0.3-2.7c-0.1-0.9-0.1-1.8-0.1-2.6c-0.1-6.7,2.2-12,6.8-15.9
			c4.6-3.9,11.7-5.9,21.3-6c7.3,0.1,13,1.3,17,3.5c4,2.4,6.8,5.4,8.5,9.1c1.6,3.8,2.3,7.9,2.2,12.2v35.1c0,1.1,0.3,1.9,0.8,2.4
			c0.6,0.5,1.3,0.7,2.4,0.7c0.6,0,1.3,0,1.9-0.1c0.6-0.2,1.2-0.4,1.8-0.6l0.6,10.2c-1,0.5-2.4,0.8-4,1.1c-1.6,0.4-3.1,0.6-4.7,0.6
			c-4.1-0.1-6.8-1.2-8.3-3.4c-1.5-2.1-2.3-4.6-2.4-7.7h-0.8c-0.8,1-2.4,2.4-4.6,4.1s-5,3.3-8.5,4.7c-3.3,1.4-7.1,2.2-11.4,2.3
			c-6.3,0-11.4-1.6-15.2-4.7c-3.9-3.2-5.9-8.2-6.1-15c0-4.6,1.5-8.7,4.6-12.1c3-3.4,7.8-6.1,14.6-7.9c6.7-1.9,15.4-2.9,26.3-3v-8.4
			c0.1-3.6-1.1-6.6-3.6-9.1c-2.5-2.5-6.3-3.7-11.4-3.8c-5,0-8.8,0.9-11.4,2.6c-2.5,1.8-3.7,4.6-3.7,8.5c0,0.6,0,1.2,0,2
			c0.1,0.8,0.2,1.6,0.3,2.4L766.4,79.8z M779.7,113.8c1.9,1.7,4.7,2.6,8.2,2.6c4.1,0,7.9-0.9,11.6-2.8c3.7-1.8,6.8-4.2,9.3-7.2V93
			c-8.1,0-14.6,0.6-19.3,1.8c-4.7,1.1-8,2.6-10,4.5c-1.9,2-2.9,4.3-2.8,6.8C776.8,109.6,777.8,112.1,779.7,113.8z"/>
	</g>
</g>
</svg>
