<?xml version="1.0" encoding="utf-8"?>
<!-- Generator: Adobe Illustrator 26.2.1, SVG Export Plug-In . SVG Version: 6.00 Build 0)  -->
<svg version="1.1" id="Слой_1" xmlns="http://www.w3.org/2000/svg" xmlns:xlink="http://www.w3.org/1999/xlink" x="0px" y="0px"
	 viewBox="0 0 500 100" style="enable-background:new 0 0 500 100;" xml:space="preserve">
<style type="text/css">
	.st0{fill:#FFFFFF;stroke:#FFFFFF;stroke-width:3;stroke-miterlimit:10;}
</style>
<g>
	<g>
		<path class="st0" d="M5.5,33.1h6.3l1.3,3.6h0.5c0.7-0.6,1.6-1.2,2.7-1.9c1.1-0.6,2.5-1.2,4.1-1.7c1.7-0.5,3.7-0.7,6.2-0.7
			c3.4,0,6.5,0.7,9.1,2.2c2.7,1.4,4.8,3.6,6.3,6.5c1.5,2.9,2.3,6.5,2.3,10.9c-0.1,4.5-0.9,8.1-2.4,11c-1.5,2.8-3.6,4.9-6.3,6.3
			c-2.6,1.4-5.6,2.1-9,2.1c-3.1,0-5.6-0.5-7.6-1.3c-2.1-0.8-3.7-1.7-4.8-2.8h-0.3v18.5H5.5V33.1z M13.8,61.9
			c1.3,1.1,2.8,2.1,4.6,2.8c1.7,0.7,3.5,1,5.3,1c2.3,0,4.4-0.4,6.3-1.2c1.8-0.8,3.3-2.3,4.3-4.3c1-2,1.5-4.7,1.5-8.3
			c0-3.5-0.5-6.3-1.5-8.3c-1-2-2.4-3.5-4.2-4.4c-1.8-0.9-3.9-1.3-6.4-1.3c-2.3,0-4.3,0.4-5.9,1.1c-1.7,0.8-3,1.7-4,2.8V61.9z"/>
		<path class="st0" d="M90.9,70.4H85l-1.3-5.1h-0.6c-1.2,1.5-2.9,2.9-5.1,4.1c-2.2,1.1-5.1,1.8-8.5,1.9c-4.6,0-8.2-1.1-11-3.4
			c-2.7-2.4-4.1-6.2-4.1-11.5V33.1h8.2v22.6c0,2.6,0.4,4.7,1.2,6.2c0.7,1.4,1.8,2.4,3.2,3c1.4,0.5,3,0.8,4.8,0.8
			c2.3,0,4.4-0.5,6.2-1.5c1.8-1,3.3-2.3,4.6-3.8V33.1h8.3V70.4z"/>
		<path class="st0" d="M109,57.4c-0.1,0.3-0.1,0.6-0.1,0.9c0,0.2,0,0.5,0,0.7c-0.1,1,0.2,2.1,0.7,3.1c0.5,1,1.5,1.9,3.1,2.6
			c1.5,0.7,3.7,1,6.8,1c3.1,0,5.4-0.5,7-1.5c1.5-1,2.3-2.3,2.3-3.9c-0.1-1.5-0.8-2.7-2.2-3.4c-1.4-0.7-3.1-1.3-5.1-1.6l-6.3-1.3
			c-4.2-0.8-7.4-2.1-9.6-3.7c-2.3-1.7-3.4-4.1-3.4-7.2c0-2,0.6-3.8,1.9-5.4c1.3-1.6,3.2-2.9,5.8-3.9c2.5-0.9,5.7-1.4,9.5-1.4
			c4.7,0.1,8.3,0.7,10.7,1.9c2.4,1.2,4,2.6,4.8,4.3c0.9,1.7,1.3,3.4,1.2,4.8c0,0.3,0,0.6,0,0.9c-0.1,0.3-0.1,0.7-0.2,1l-7.4,0.1
			c0.1-0.3,0.1-0.6,0.1-0.8c0-0.2,0-0.5,0-0.7c0-1-0.3-2-0.8-2.9c-0.5-0.9-1.5-1.7-2.8-2.3c-1.4-0.6-3.4-0.9-6-0.9
			c-3.1,0.1-5.4,0.6-6.8,1.6c-1.5,1-2.2,2.2-2.1,3.6c0,1.2,0.4,2.1,1.1,2.8c0.7,0.7,1.7,1.2,2.8,1.6c1.2,0.3,2.5,0.6,3.9,0.9
			l6.4,1.3c4.4,0.8,7.6,2,9.6,3.7c2.1,1.7,3.1,4,3,7c0,1.9-0.6,3.6-1.9,5.3c-1.3,1.6-3.2,3-5.8,4c-2.6,1-5.9,1.5-9.9,1.6
			c-3.8,0-7-0.5-9.4-1.3c-2.4-0.8-4.3-1.8-5.6-3.1c-1.3-1.2-2.1-2.5-2.6-3.9c-0.5-1.4-0.7-2.7-0.6-3.8c0-0.3,0-0.6,0-0.8
			c0.1-0.3,0.1-0.5,0.2-0.7L109,57.4z"/>
		<path class="st0" d="M147.2,15.6h8.2v34.1c2.3-1.5,4.7-3.2,7.2-5c2.6-1.9,5-3.8,7.4-5.8c2.3-2,4.4-3.9,6.2-5.8h9.3v1
			c-2.7,2.8-5.6,5.4-8.4,7.7c-2.9,2.4-5.4,4.4-7.6,6c0.5,0.4,1.2,1.4,2.3,2.9c1.1,1.5,2.3,3.2,3.8,5.2c1.5,2,2.9,4,4.4,6
			c1.5,2,2.8,3.7,4,5.1c1.2,1.4,2.1,2.3,2.6,2.7v0.9h-9.4c-0.4-0.2-1-1-1.9-2.2c-0.9-1.2-1.9-2.6-3.1-4.3c-1.1-1.7-2.3-3.5-3.4-5.1
			c-1.1-1.7-2.2-3.3-3.1-4.5c-0.9-1.3-1.6-2.1-2.1-2.5c-0.7,0.5-1.5,1.1-2.6,1.9c-1,0.7-2.1,1.4-3.1,2c-1,0.6-1.9,1.1-2.5,1.5v13.4
			h-8.2V15.6z"/>
		<path class="st0" d="M193.7,46.5c-0.1-0.4-0.2-0.9-0.2-1.4c-0.1-0.5-0.1-0.9-0.1-1.3c-0.1-3.5,1.3-6.3,4.2-8.3
			c2.9-2,7.3-3.1,13.2-3.1c4.5,0.1,8,0.7,10.6,1.9c2.5,1.2,4.2,2.8,5.2,4.8c1,2,1.4,4.1,1.4,6.4v18.4c0,0.6,0.2,1,0.5,1.3
			s0.8,0.4,1.5,0.4c0.4,0,0.8,0,1.2-0.1c0.4-0.1,0.8-0.2,1.1-0.3l0.3,5.4c-0.6,0.2-1.5,0.4-2.5,0.6c-1,0.2-1.9,0.3-2.9,0.3
			c-2.5,0-4.2-0.6-5.2-1.8c-0.9-1.1-1.4-2.4-1.5-4h-0.5c-0.5,0.5-1.5,1.3-2.8,2.2c-1.4,0.9-3.1,1.7-5.2,2.5c-2.1,0.7-4.4,1.1-7,1.2
			c-3.9,0-7-0.8-9.4-2.5c-2.4-1.7-3.7-4.3-3.8-7.9c0-2.4,0.9-4.5,2.8-6.3c1.8-1.8,4.8-3.2,9-4.2c4.1-1,9.6-1.5,16.3-1.6v-4.4
			c0.1-1.9-0.7-3.5-2.2-4.8c-1.5-1.3-3.9-2-7-2c-3.1,0-5.4,0.4-7,1.3c-1.5,0.9-2.3,2.4-2.3,4.5c0,0.3,0,0.6,0,1
			c0.1,0.4,0.1,0.8,0.2,1.3L193.7,46.5z M201.9,64.4c1.2,0.9,2.9,1.3,5.1,1.3c2.5,0,4.9-0.5,7.2-1.5c2.3-0.9,4.2-2.2,5.8-3.8v-7
			c-5,0-9,0.3-11.9,1c-2.9,0.6-5,1.4-6.2,2.4c-1.2,1-1.8,2.2-1.7,3.6C200.1,62.2,200.7,63.5,201.9,64.4z"/>
		<path class="st0" d="M241.7,15.6h8.2v20.8h0.3c1.1-1,2.7-2,4.8-2.8c2-0.8,4.6-1.2,7.6-1.3c3.4,0,6.4,0.7,9,2
			c2.6,1.4,4.7,3.5,6.3,6.4c1.5,2.9,2.3,6.5,2.4,10.9c-0.1,4.4-0.8,8-2.3,10.9c-1.5,2.9-3.6,5-6.3,6.5c-2.6,1.4-5.7,2.2-9.1,2.2
			c-2.5,0-4.5-0.3-6.2-0.8c-1.7-0.4-3-1-4.1-1.7c-1.1-0.7-2-1.3-2.7-1.9h-0.5l-1.3,3.6h-6.3V15.6z M249.9,61.9c1,1,2.3,1.9,4,2.6
			c1.7,0.7,3.6,1.1,5.9,1.2c2.5,0,4.7-0.4,6.4-1.3c1.8-0.9,3.2-2.4,4.2-4.5c1-2,1.5-4.8,1.5-8.3c0-3.5-0.5-6.3-1.5-8.3
			c-1-2-2.5-3.4-4.3-4.2c-1.8-0.8-3.9-1.2-6.3-1.2c-1.8,0-3.6,0.3-5.3,1c-1.7,0.7-3.2,1.6-4.6,2.8V61.9z"/>
		<path class="st0" d="M293.7,37.5c3.4-3.4,8.6-5.2,15.4-5.2c6.8,0.1,11.9,1.8,15.4,5.2c3.4,3.5,5.2,8.2,5.2,14.3
			c-0.1,6.1-1.8,10.8-5.2,14.2c-3.5,3.4-8.6,5.1-15.4,5.2c-6.8-0.1-11.9-1.8-15.4-5.2c-3.5-3.4-5.2-8.2-5.2-14.2
			S290.2,41,293.7,37.5z M318,62.6c2.1-2.1,3.2-5.7,3.2-10.7c0-5.1-1.1-8.7-3.2-10.8c-2.1-2.1-5.1-3.2-8.9-3.1c-3.9,0-6.9,1-9,3.1
			c-2.1,2.1-3.2,5.7-3.2,10.8c0,5,1.1,8.6,3.2,10.7c2.1,2.1,5.1,3.2,9,3.1C312.9,65.7,315.9,64.7,318,62.6z"/>
		<path class="st0" d="M335.7,69.6l15.6-18L336,34v-1h8.9l6.4,7.8c0.9,1,1.7,2,2.5,3.1c0.8,1,1.5,2.2,2.1,3.4h0.6
			c0.7-1.2,1.5-2.3,2.3-3.4c0.8-1,1.7-2,2.6-3.1l6.4-7.9h8.9v1l-15.5,17.3l15.6,18.3v0.8h-8.8l-7-8.8c-1-1.3-1.9-2.4-2.5-3.2
			c-0.6-0.9-1.3-1.9-2-2.9H356c-0.6,1.1-1.3,2.2-2,3.1c-0.7,1-1.6,2-2.5,3.1l-7,8.6h-8.8V69.6z"/>
		<path class="st0" d="M384.9,61.3h10.6v9.2h-10.6V61.3z"/>
		<path class="st0" d="M415.9,73.7c0,0.3,0,0.5-0.1,0.7c0,0.2,0,0.4,0,0.6c0.1,1.8,0.9,3.3,2.6,4.3c1.7,1.1,4,1.6,7,1.6
			c3.4,0,6.1-0.9,8.2-2.7c2.2-1.8,3.3-4.5,3.3-8.2v-5.4h-0.4c-1.4,1.4-3.2,2.5-5.4,3.3c-2.2,0.8-4.7,1.2-7.5,1.3c-3.3,0-6.3-0.7-9-2
			c-2.7-1.3-5-3.4-6.6-6.2c-1.7-2.7-2.6-6.2-2.7-10.4c0.1-4.2,0.9-7.7,2.7-10.4c1.8-2.7,4-4.7,6.8-6c2.7-1.3,5.7-2,8.8-2
			c2.3,0,4.4,0.2,6.2,0.7c1.8,0.5,3.2,1.1,4.4,1.8c1.2,0.7,2.1,1.3,2.7,1.9h0.5l1.2-3.7h6.4v36.3c0,3.8-0.9,7-2.6,9.5
			c-1.7,2.6-4,4.5-7,5.7c-2.9,1.3-6.2,1.9-10,1.9c-3.8,0-7.1-0.5-9.7-1.5c-2.6-1-4.5-2.4-5.8-4.1c-1.4-1.7-2.1-3.6-2.1-5.9
			c0-0.2,0-0.5,0-0.8c0.1-0.3,0.1-0.6,0.1-1L415.9,73.7z M432.2,62.3c1.8-0.8,3.4-1.9,4.6-3.2V41.9c-1.1-1.2-2.7-2.2-4.6-2.9
			c-1.9-0.7-3.8-1.1-5.8-1.1c-2.1,0-4.1,0.3-6,1.1c-1.9,0.8-3.5,2.1-4.7,4c-1.2,1.9-1.8,4.5-1.8,7.8c0,3.2,0.6,5.7,1.8,7.5
			c1.2,1.9,2.7,3.2,4.6,4c1.9,0.8,3.9,1.2,6,1.2C428.4,63.5,430.3,63.1,432.2,62.3z"/>
		<path class="st0" d="M457.1,46.5c-0.1-0.4-0.2-0.9-0.2-1.4c-0.1-0.5-0.1-0.9-0.1-1.3c-0.1-3.5,1.3-6.3,4.2-8.3
			c2.9-2,7.3-3.1,13.2-3.1c4.5,0.1,8,0.7,10.6,1.9c2.5,1.2,4.2,2.8,5.2,4.8c1,2,1.4,4.1,1.4,6.4v18.4c0,0.6,0.2,1,0.5,1.3
			s0.8,0.4,1.5,0.4c0.4,0,0.8,0,1.2-0.1c0.4-0.1,0.8-0.2,1.1-0.3l0.3,5.4c-0.6,0.2-1.5,0.4-2.5,0.6c-1,0.2-1.9,0.3-2.9,0.3
			c-2.5,0-4.2-0.6-5.2-1.8c-0.9-1.1-1.4-2.4-1.5-4h-0.5c-0.5,0.5-1.5,1.3-2.8,2.2s-3.1,1.7-5.2,2.5c-2.1,0.7-4.4,1.1-7,1.2
			c-3.9,0-7-0.8-9.4-2.5c-2.4-1.7-3.7-4.3-3.8-7.9c0-2.4,0.9-4.5,2.8-6.3c1.8-1.8,4.8-3.2,9-4.2c4.1-1,9.6-1.5,16.3-1.6v-4.4
			c0.1-1.9-0.7-3.5-2.2-4.8c-1.5-1.3-3.9-2-7-2c-3.1,0-5.4,0.4-7,1.3c-1.5,0.9-2.3,2.4-2.3,4.5c0,0.3,0,0.6,0,1
			c0.1,0.4,0.1,0.8,0.2,1.3L457.1,46.5z M465.4,64.4c1.2,0.9,2.9,1.3,5.1,1.3c2.5,0,4.9-0.5,7.2-1.5c2.3-0.9,4.2-2.2,5.8-3.8v-7
			c-5,0-9,0.3-11.9,1c-2.9,0.6-5,1.4-6.2,2.4c-1.2,1-1.8,2.2-1.7,3.6C463.6,62.2,464.2,63.5,465.4,64.4z"/>
	</g>
</g>
</svg>
