<?xml version="1.0" encoding="utf-8"?>
<!-- Generator: Adobe Illustrator 26.2.1, SVG Export Plug-In . SVG Version: 6.00 Build 0)  -->
<svg version="1.1" id="Слой_1" xmlns="http://www.w3.org/2000/svg" xmlns:xlink="http://www.w3.org/1999/xlink" x="0px" y="0px"
	 viewBox="0 0 500 100" style="enable-background:new 0 0 500 100;" xml:space="preserve">
<path d="M19.9,38.1c0.7-1.4,1.6-2.6,2.6-3.8c1.1-1.2,2.4-2.2,4-2.9c1.6-0.8,3.5-1.1,5.7-1.1c2.4,0,4.6,0.5,6.7,1.6
	c2.1,1.1,3.8,2.8,5.1,5.1c1.3,2.3,2,5.2,2,8.8c0,5-0.6,9.2-1.9,12.7c-1.3,3.4-2.9,6.2-4.9,8.4c-2,2.2-4.2,3.8-6.6,4.8
	c-2.3,1-4.6,1.5-6.9,1.5c-2.5-0.1-4.5-0.5-6.1-1.3c-1.5-0.8-2.7-1.9-3.5-3.1h-0.5L12.3,89H0.2l8.4-46.4c0.2-0.8,0.1-1.6-0.1-2.5
	c-0.2-0.8-0.8-1.2-1.9-1.2c-0.5,0-1.1,0.1-1.6,0.2c-0.5,0.2-0.9,0.3-1.3,0.5l0.9-8.2c0.9-0.3,2.1-0.5,3.5-0.8
	c1.4-0.2,2.8-0.3,4.2-0.3c2.6,0.1,4.5,0.7,5.7,1.8c1.1,1.2,1.7,2.6,1.7,4.2c0,0.3,0,0.6-0.1,0.9c0,0.3,0,0.7-0.1,1H19.9z M17.2,61.1
	c0.7,1,1.5,1.9,2.5,2.5c1,0.5,2.1,0.8,3.3,0.8c1.8,0.1,3.5-0.5,5.2-1.7c1.6-1.2,3-3.1,4-5.7c1-2.6,1.6-6,1.6-10.2
	c-0.1-2.6-0.6-4.5-1.6-5.9c-1.1-1.4-2.6-2-4.5-2c-1.9,0.1-3.6,0.9-5.1,2.6c-1.5,1.7-2.5,4.2-3.1,7.3L17.2,61.1z"/>
<path d="M77.5,65.1c-1,2.3-2.6,4.2-4.8,5.7c-2.1,1.5-4.8,2.2-8.1,2.3c-3.8,0-6.7-1-8.8-3c-2.1-2-3.1-4.9-3.2-8.8
	c0-0.7,0.1-1.4,0.2-2.2c0.1-0.8,0.1-1.6,0.2-2.3l4.7-25.7h12l-4.7,25.7c-0.1,0.5-0.2,1-0.2,1.6c-0.1,0.5-0.1,1-0.1,1.4
	c0,1.5,0.4,2.6,1.1,3.4c0.7,0.8,1.9,1.2,3.5,1.2c1.9,0.1,3.7-0.9,5.4-2.9c1.7-2,3-5.5,4-10.4l3.5-20.1h12L89,60.7
	c-0.2,0.9-0.1,1.7,0.1,2.5c0.2,0.8,0.8,1.2,1.9,1.2c0.5,0,1.1-0.1,1.6-0.2c0.5-0.2,1-0.4,1.3-0.6L93,71.9c-0.9,0.3-2.1,0.6-3.5,0.8
	c-1.4,0.2-2.8,0.4-4.2,0.4c-2.6-0.1-4.5-0.7-5.7-1.9c-1.2-1.2-1.8-2.6-1.8-4.2c0-0.3,0-0.6,0.1-0.9c0.1-0.3,0.1-0.7,0.2-1H77.5z"/>
<path d="M111,58.2c-0.1,0.4-0.2,0.8-0.2,1.1c-0.1,0.4-0.1,0.8-0.1,1.3c-0.1,1.1,0.4,2.1,1.3,2.9c1,0.8,2.8,1.2,5.4,1.2
	c2.5,0,4.4-0.4,5.6-1.1c1.2-0.8,1.8-1.8,1.8-3c0-1-0.4-1.7-1.1-2.3c-0.8-0.6-2-1.1-3.4-1.4l-5-1.4c-4-1-7-2.3-8.9-4.1
	c-2-1.7-3-4.1-3-7c0-2.8,0.7-5.2,2.2-7.4c1.4-2.1,3.6-3.7,6.6-5c2.9-1.2,6.6-1.8,11-1.8c4.4,0.1,7.8,0.6,10.2,1.7
	c2.3,1.1,3.9,2.5,4.8,4.1c0.9,1.6,1.3,3.1,1.2,4.7c0,0.5-0.1,1.2-0.2,1.9c-0.1,0.7-0.2,1.3-0.4,1.9l-10.6,0.2
	c0.2-0.4,0.3-0.8,0.3-1.1c0.1-0.4,0.1-0.8,0.1-1.2c0.1-0.8-0.4-1.6-1.2-2.5c-0.9-0.8-2.5-1.2-4.8-1.2c-2.5,0.1-4.3,0.5-5.5,1.2
	c-1.1,0.8-1.7,1.8-1.7,3c0,1.3,0.5,2.2,1.5,2.7c1,0.5,2.2,0.9,3.5,1.1l5.6,1.4c3.8,0.9,6.7,2.3,8.5,4.1c1.9,1.8,2.8,4,2.8,6.6
	c0.1,2.6-0.6,5-2,7.1c-1.3,2.1-3.4,3.9-6.4,5.2c-3,1.3-7,2-11.9,2c-4.5-0.1-8-0.7-10.5-1.8c-2.5-1.1-4.2-2.6-5.2-4.3
	c-1-1.6-1.4-3.3-1.4-5c0-0.5,0-1.1,0.1-1.7c0.1-0.7,0.3-1.3,0.5-2L111,58.2z"/>
<path d="M179,62.3c0.3,0.7,0.7,1.1,1.1,1.4c0.4,0.3,1,0.5,1.6,0.5c0.4,0,0.9-0.1,1.4-0.2c0.5-0.1,1-0.2,1.4-0.4l-1.5,8.4
	c-0.9,0.4-2,0.7-3.4,0.8c-1.3,0.2-2.5,0.3-3.8,0.3c-1.7-0.1-3.1-0.4-4.2-1c-1.1-0.6-1.9-1.4-2.5-2.3c-0.6-0.9-1-1.8-1.2-2.7
	c-0.5-1.6-1.1-3.3-1.8-5.1c-0.7-1.8-1.3-3.4-1.9-4.8c-0.6-1.5-1.1-2.5-1.5-2.9h-4.4l-3.1,17.9h-12l10.6-60.4h12l-6.1,34.6l4.3-0.4
	c0.5-0.5,1.3-1.4,2.5-2.9c1.1-1.4,2.3-3,3.7-4.8c1.4-1.7,2.6-3.3,3.7-4.7c1.1-1.4,1.9-2.3,2.3-2.7h12.6l-0.2,1.5
	c-0.5,0.4-1.4,1.4-2.7,2.9c-1.4,1.6-2.9,3.5-4.5,5.5c-1.6,2-3.2,3.8-4.6,5.6c-1.4,1.7-2.4,2.9-3,3.5c0.3,0.5,0.8,1.5,1.4,2.9
	c0.6,1.4,1.2,2.9,1.9,4.5C177.7,59.1,178.4,60.7,179,62.3L179,62.3z"/>
<path d="M198.3,71.5c-2-1.1-3.6-2.9-4.8-5.4c-1.3-2.4-1.9-5.6-1.9-9.5c0.1-5.2,1-9.8,2.7-13.8c1.8-3.9,4.2-7,7.1-9.2
	c2.9-2.2,6.2-3.4,9.7-3.4c2.2,0,4.1,0.3,5.6,0.9c1.5,0.6,2.7,1.3,3.6,2.2c0.9,0.9,1.6,1.8,2.1,2.7h0.6l2.5-5h9.1l-5.2,29.4
	c-0.1,0.4-0.2,1-0.2,1.6c-0.1,0.6,0,1.1,0.2,1.6c0.2,0.5,0.7,0.7,1.5,0.7c0.5,0,1.1-0.1,1.6-0.2c0.5-0.2,1-0.4,1.5-0.6l-1.2,8.1
	c-0.6,0.2-1.4,0.4-2.3,0.7c-0.9,0.2-1.9,0.3-2.9,0.4c-1,0.2-1.9,0.2-2.7,0.2c-2.5,0-4.3-0.5-5.4-1.5c-1.1-1-1.8-2.4-2-4.2h-0.4
	c-0.7,0.7-1.6,1.5-2.8,2.4c-1.1,0.9-2.5,1.6-4.1,2.3c-1.5,0.6-3.3,0.9-5.4,1C202.4,73.1,200.3,72.5,198.3,71.5z M220.5,42.5
	c-0.4-0.9-1.1-1.8-2-2.5c-0.9-0.7-2.2-1.1-3.7-1.1c-1.7,0-3.4,0.7-5,2c-1.6,1.3-2.9,3.3-3.9,5.9c-1,2.6-1.5,5.7-1.6,9.4
	c0.1,3,0.7,5.1,1.8,6.4c1.1,1.3,2.6,1.9,4.3,1.8c1.5,0,2.8-0.3,3.9-1c1.1-0.7,2.1-1.6,2.9-2.5L220.5,42.5z"/>
<path d="M250.9,11.8h12l-4.1,23.1h0.3c1.1-1.2,2.5-2.3,4.3-3.2c1.7-0.9,3.8-1.4,6.4-1.5c2.2,0,4.3,0.5,6.3,1.6c2,1.1,3.7,2.8,5,5.2
	c1.3,2.3,2,5.4,2,9.3c-0.1,4.8-0.7,8.8-1.9,12.2c-1.2,3.4-2.8,6.2-4.8,8.4c-2,2.1-4.2,3.7-6.6,4.7c-2.4,1-4.8,1.6-7.1,1.6
	c-2.2-0.1-4-0.4-5.4-1c-1.4-0.5-2.5-1.3-3.4-2.1c-0.9-0.8-1.5-1.6-2-2.3h-0.4l-2.5,4.5H240L250.9,11.8z M254.2,61
	c0.4,1,1.1,1.8,2,2.4c1,0.7,2.2,1,3.6,1c1.8,0,3.5-0.6,5.2-1.8c1.6-1.2,3-3,4.1-5.5c1.1-2.5,1.6-5.7,1.6-9.7c-0.1-3.2-0.7-5.4-2-6.7
	c-1.2-1.3-2.7-1.9-4.4-1.9c-1.2,0.1-2.4,0.4-3.7,1.1c-1.3,0.7-2.4,1.6-3.4,2.6L254.2,61z"/>
<path d="M291.5,43c1.6-4,4.1-7.1,7.5-9.3c3.4-2.2,7.6-3.4,12.6-3.4c4.1,0,7.6,0.7,10.3,2.1c2.7,1.4,4.8,3.3,6.1,5.8
	c1.4,2.5,2,5.4,2,8.7c0,5.1-0.9,9.6-2.6,13.5c-1.7,3.9-4.2,7-7.6,9.3c-3.4,2.2-7.6,3.4-12.6,3.4c-4.2-0.1-7.6-0.8-10.3-2.1
	c-2.7-1.4-4.7-3.3-6-5.7c-1.3-2.5-2-5.3-2-8.6C289,51.5,289.8,47,291.5,43z M315,60c1.8-2.9,2.7-7.3,2.7-13.1c0-2.7-0.5-4.8-1.6-6.1
	c-1.1-1.3-2.6-2-4.6-2c-3.3,0.1-5.9,1.6-7.6,4.5c-1.8,3-2.7,7.4-2.7,13.2c0.1,2.7,0.6,4.7,1.6,6c1.1,1.3,2.6,1.9,4.5,1.9
	C310.7,64.4,313.2,62.9,315,60z"/>
<path d="M355.1,38.8c0.5,1.1,0.9,2.3,1.3,3.4c0.3,1.2,0.6,2.4,0.9,3.5h0.3c0.7-1.3,1.5-2.6,2.3-3.8c0.8-1.1,1.7-2.3,2.6-3.5l5.5-7.5
	h13l-0.2,1.3l-16,18.8l5.5,10.8c0.4,0.8,0.8,1.4,1.4,1.7c0.5,0.3,1.1,0.5,1.7,0.5c0.5,0,1.1-0.1,1.6-0.2c0.5-0.1,1-0.3,1.4-0.5
	l-1.4,8.4c-0.9,0.3-2,0.6-3.3,0.8c-1.3,0.2-2.6,0.4-3.9,0.4c-2.2-0.1-3.8-0.6-4.9-1.6c-1.1-1-2-2.5-2.7-4.3l-1.6-3.8
	c-0.4-1.1-0.8-2.3-1.1-3.4c-0.3-1-0.6-2.1-0.8-3.1h-0.4c-0.7,1.3-1.3,2.5-2,3.6c-0.7,1.1-1.5,2.3-2.4,3.4l-6.2,8.3h-13l0.2-1.1
	L349,51.5l-5-10.2c-0.4-0.8-0.9-1.4-1.5-1.7c-0.5-0.3-1.2-0.5-1.9-0.5c-0.5,0-1,0.1-1.6,0.2c-0.5,0.2-1,0.3-1.5,0.5l1.6-8.4
	c0.9-0.3,1.9-0.5,3.2-0.8c1.2-0.2,2.5-0.3,3.9-0.3c1.6,0,2.8,0.2,3.8,0.7c0.9,0.4,1.7,1.1,2.2,1.9c0.5,0.8,1,1.8,1.5,2.9L355.1,38.8
	z"/>
<path d="M385.1,59.3h13.5l-2.2,12.9h-13.5L385.1,59.3z"/>
<path d="M419.3,75.1c-0.2,0.4-0.3,0.9-0.5,1.4c-0.2,0.5-0.2,1-0.2,1.5c0,1.1,0.4,1.9,1.3,2.5c0.9,0.6,2.1,0.9,3.7,0.9
	c2.2,0.1,4.2-0.7,5.8-2.1c1.6-1.5,2.7-4.1,3.4-7.8l0.8-5.2h-0.4c-1.4,1.4-2.9,2.5-4.7,3.3c-1.7,0.8-3.7,1.2-6,1.2
	c-2.3,0-4.5-0.5-6.6-1.5c-2.1-1-3.9-2.6-5.3-4.9c-1.4-2.3-2.1-5.4-2.1-9.3c0-5.1,0.9-9.5,2.7-13.2c1.7-3.7,4.1-6.6,7.2-8.6
	c3.1-2,6.7-3,10.6-3c2.2,0.1,4.1,0.4,5.6,1.1c1.4,0.7,2.5,1.5,3.4,2.5c0.8,1,1.4,1.8,1.7,2.5h0.5l2.7-5.2h8.8l-7.1,40.5
	c-0.9,5.7-3,10.1-6.4,13.4c-3.4,3.3-8.4,4.9-14.9,5c-5.7-0.1-9.9-1-12.5-2.8c-2.6-1.7-3.9-4-3.9-6.9c0.1-1.1,0.2-2.1,0.5-3.1
	c0.3-1,0.7-1.8,1.1-2.4L419.3,75.1z M431.2,61.5c1.3-0.6,2.5-1.5,3.7-2.8l2.9-15.5c-0.5-1.3-1.3-2.3-2.5-3.2
	c-1.1-0.9-2.6-1.3-4.3-1.4c-2,0.1-3.8,0.8-5.3,2.1c-1.5,1.4-2.7,3.3-3.5,5.7c-0.9,2.3-1.3,5-1.3,7.9c0.1,2.9,0.7,5.1,2,6.3
	c1.4,1.2,2.9,1.8,4.7,1.7C428.7,62.4,429.9,62.1,431.2,61.5z"/>
<path d="M463.1,71.5c-2-1.1-3.6-2.9-4.8-5.4c-1.3-2.4-1.9-5.6-1.9-9.5c0.1-5.2,1-9.8,2.7-13.8c1.8-3.9,4.2-7,7.1-9.2
	c2.9-2.2,6.2-3.4,9.7-3.4c2.2,0,4.1,0.3,5.6,0.9c1.5,0.6,2.7,1.3,3.6,2.2c0.9,0.9,1.6,1.8,2.1,2.7h0.6l2.5-5h9.1l-5.2,29.4
	c-0.1,0.4-0.2,1-0.2,1.6c-0.1,0.6,0,1.1,0.2,1.6c0.2,0.5,0.7,0.7,1.5,0.7c0.5,0,1.1-0.1,1.6-0.2c0.5-0.2,1-0.4,1.5-0.6l-1.2,8.1
	c-0.6,0.2-1.4,0.4-2.3,0.7c-0.9,0.2-1.9,0.3-2.9,0.4c-1,0.2-1.9,0.2-2.7,0.2c-2.5,0-4.3-0.5-5.4-1.5c-1.1-1-1.8-2.4-2-4.2h-0.4
	c-0.7,0.7-1.6,1.5-2.8,2.4c-1.1,0.9-2.5,1.6-4.1,2.3c-1.5,0.6-3.3,0.9-5.4,1C467.3,73.1,465.1,72.5,463.1,71.5z M485.3,42.5
	c-0.4-0.9-1.1-1.8-2-2.5c-0.9-0.7-2.2-1.1-3.7-1.1c-1.7,0-3.4,0.7-5,2c-1.6,1.3-2.9,3.3-3.9,5.9c-1,2.6-1.5,5.7-1.6,9.4
	c0.1,3,0.7,5.1,1.8,6.4c1.1,1.3,2.6,1.9,4.3,1.8c1.5,0,2.8-0.3,3.9-1c1.1-0.7,2.1-1.6,2.9-2.5L485.3,42.5z"/>
</svg>
