<?xml version="1.0" encoding="utf-8"?>
<!-- Generator: Adobe Illustrator 26.2.1, SVG Export Plug-In . SVG Version: 6.00 Build 0)  -->
<svg version="1.1" id="Слой_1" xmlns="http://www.w3.org/2000/svg" xmlns:xlink="http://www.w3.org/1999/xlink" x="0px" y="0px"
	 viewBox="0 0 635.4 100" style="enable-background:new 0 0 635.4 100;" xml:space="preserve">
<style type="text/css">
	.st0{fill:#FFFFFF;}
</style>
<path class="st0" d="M25.1,34.3c0.9-1.7,2-3.4,3.3-4.9c1.4-1.5,3.1-2.7,5.1-3.6c2-1,4.4-1.5,7.3-1.5c3.1,0,5.9,0.7,8.5,2.1
	c2.6,1.4,4.8,3.5,6.5,6.5c1.7,2.9,2.5,6.7,2.6,11.3c0,6.3-0.8,11.7-2.4,16.2c-1.6,4.4-3.7,7.9-6.3,10.6c-2.5,2.8-5.3,4.8-8.3,6
	c-3,1.3-5.9,1.9-8.8,1.9c-3.2-0.1-5.8-0.6-7.7-1.7c-1.9-1-3.4-2.4-4.5-4h-0.6l-4.5,25.9H0L10.6,40c0.2-1,0.2-2.1-0.1-3.1
	c-0.2-1-1-1.5-2.4-1.6c-0.7,0-1.4,0.1-2,0.3C5.5,35.8,5,36,4.5,36.2l1.1-10.4c1.2-0.3,2.7-0.7,4.5-1c1.8-0.3,3.6-0.4,5.3-0.4
	c3.3,0.1,5.7,0.8,7.2,2.3c1.5,1.5,2.2,3.3,2.2,5.3c0,0.3,0,0.7-0.1,1.1c0,0.4,0,0.8-0.1,1.3H25.1z M21.7,63.6
	c0.8,1.3,1.9,2.4,3.1,3.1c1.3,0.7,2.6,1,4.2,1c2.3,0.1,4.5-0.7,6.6-2.2c2.1-1.5,3.8-4,5.1-7.3c1.3-3.3,2-7.6,2.1-12.9
	c-0.1-3.3-0.8-5.8-2.1-7.5c-1.4-1.7-3.3-2.6-5.7-2.6c-2.4,0.1-4.5,1.2-6.5,3.3c-1.9,2.2-3.2,5.3-4,9.3L21.7,63.6z"/>
<path class="st0" d="M98.4,68.7c-1.3,2.9-3.3,5.3-6,7.2c-2.6,1.9-6.1,2.8-10.3,2.9c-4.8,0-8.5-1.3-11.2-3.9c-2.6-2.5-4-6.2-4.1-11.2
	c0-0.9,0.1-1.8,0.2-2.8c0.1-1,0.2-2,0.3-2.9l5.9-32.7h15.3l-5.9,32.7c-0.1,0.6-0.2,1.3-0.3,2c-0.1,0.7-0.1,1.3-0.1,1.8
	c0,1.9,0.5,3.3,1.4,4.4c0.9,1,2.4,1.6,4.5,1.6c2.4,0.1,4.7-1.1,6.9-3.6c2.2-2.6,3.9-7,5.1-13.2l4.5-25.5h15.3l-6.8,37.7
	c-0.2,1.1-0.2,2.2,0.1,3.1c0.2,1,1,1.5,2.4,1.6c0.7,0,1.4-0.1,2-0.2c0.7-0.2,1.3-0.5,1.7-0.7l-1.1,10.4c-1.2,0.4-2.7,0.8-4.5,1
	c-1.8,0.3-3.6,0.5-5.3,0.5c-3.3-0.1-5.8-0.9-7.3-2.4c-1.5-1.5-2.3-3.3-2.3-5.3c0-0.3,0-0.7,0.1-1.1c0.1-0.4,0.1-0.8,0.2-1.3H98.4z"
	/>
<path class="st0" d="M141.1,59.9c-0.1,0.5-0.2,1-0.3,1.5c-0.1,0.5-0.1,1-0.1,1.7c-0.1,1.5,0.5,2.7,1.7,3.6c1.3,1,3.5,1.6,6.9,1.6
	c3.2,0,5.6-0.5,7.1-1.5c1.5-1,2.3-2.3,2.3-3.9c0-1.3-0.5-2.2-1.5-2.9c-1-0.8-2.5-1.4-4.4-1.8l-6.4-1.8c-5.1-1.3-8.9-3-11.4-5.2
	c-2.6-2.2-3.9-5.2-3.9-8.9c0-3.5,0.9-6.7,2.8-9.4c1.8-2.6,4.6-4.8,8.3-6.4c3.7-1.5,8.3-2.3,14-2.3c5.6,0.1,9.9,0.8,12.9,2.2
	c3,1.5,5,3.2,6,5.2c1.1,2,1.6,4,1.6,5.9c0,0.7-0.1,1.5-0.2,2.4c-0.1,0.8-0.3,1.6-0.5,2.4l-13.6,0.2c0.2-0.5,0.3-1,0.4-1.5
	c0.1-0.6,0.1-1.1,0.1-1.6c0.1-1-0.5-2.1-1.6-3.1c-1.1-1-3.1-1.5-6-1.6c-3.1,0.1-5.5,0.6-7,1.6c-1.5,1-2.2,2.3-2.2,3.9
	c0,1.7,0.6,2.8,1.9,3.4c1.3,0.6,2.7,1.1,4.5,1.5l7.1,1.8c4.9,1.2,8.5,2.9,10.8,5.2c2.4,2.3,3.5,5.1,3.5,8.3c0.1,3.3-0.8,6.4-2.5,9.1
	c-1.7,2.7-4.4,4.9-8.1,6.6c-3.8,1.7-8.9,2.5-15.1,2.6c-5.7-0.1-10.1-0.8-13.3-2.3c-3.1-1.5-5.4-3.3-6.7-5.4
	c-1.3-2.1-1.8-4.2-1.8-6.4c0-0.7,0-1.4,0.1-2.2c0.1-0.8,0.3-1.7,0.6-2.5L141.1,59.9z"/>
<path class="st0" d="M227.6,65.1c0.3,0.8,0.8,1.4,1.5,1.8c0.6,0.4,1.2,0.6,2,0.6c0.6,0,1.1-0.1,1.8-0.2c0.7-0.1,1.3-0.3,1.8-0.5
	l-1.9,10.6c-1.2,0.5-2.6,0.8-4.3,1c-1.6,0.3-3.2,0.4-4.9,0.4c-2.2-0.1-4-0.5-5.3-1.3c-1.4-0.8-2.4-1.7-3.1-2.9
	c-0.8-1.1-1.3-2.3-1.6-3.4c-0.7-2-1.5-4.2-2.3-6.5c-0.9-2.3-1.7-4.3-2.4-6.2c-0.8-1.9-1.4-3.1-1.9-3.8h-5.6l-4,22.8H182l13.6-76.8
	h15.3L203.1,45l5.5-0.5c0.6-0.6,1.7-1.8,3.1-3.6c1.4-1.8,3-3.8,4.7-6c1.7-2.2,3.3-4.2,4.7-5.9c1.4-1.8,2.4-3,2.9-3.4h16.1l-0.3,1.9
	c-0.6,0.5-1.8,1.7-3.4,3.8c-1.7,2.1-3.6,4.4-5.7,7c-2.1,2.5-4,4.9-5.8,7.1c-1.7,2.2-3,3.6-3.9,4.5c0.4,0.7,1,1.9,1.8,3.6
	c0.8,1.7,1.6,3.6,2.4,5.7c0.9,2.2,1.7,4.2,2.5,6V65.1z"/>
<path class="st0" d="M252.2,76.8c-2.6-1.5-4.6-3.8-6.2-6.9c-1.6-3.1-2.4-7.1-2.4-12.1c0.1-6.7,1.2-12.5,3.4-17.5
	c2.3-5,5.3-8.9,9.1-11.7c3.8-2.8,7.9-4.3,12.4-4.3c2.8,0,5.2,0.4,7.1,1.1c1.9,0.8,3.4,1.7,4.6,2.8c1.1,1.1,2,2.3,2.7,3.4h0.7
	l3.1-6.4h11.6l-6.7,37.4c-0.1,0.6-0.2,1.3-0.3,2.1c-0.1,0.8,0,1.5,0.3,2.1c0.3,0.6,0.9,0.9,1.9,0.9c0.7,0,1.4-0.1,2.1-0.3
	c0.7-0.2,1.3-0.5,1.9-0.7L296,77.2c-0.8,0.3-1.7,0.6-2.9,0.8c-1.2,0.2-2.4,0.4-3.6,0.5c-1.3,0.2-2.4,0.3-3.4,0.3
	c-3.1,0-5.4-0.6-6.9-1.9c-1.5-1.3-2.3-3-2.5-5.3h-0.5c-0.9,0.9-2.1,1.9-3.5,3c-1.5,1.1-3.2,2.1-5.2,2.9c-1.9,0.8-4.2,1.2-6.9,1.3
	C257.4,78.8,254.7,78.1,252.2,76.8z M280.4,40c-0.6-1.2-1.4-2.3-2.5-3.2c-1.2-0.9-2.7-1.4-4.7-1.5c-2.2,0-4.3,0.9-6.4,2.6
	c-2,1.7-3.7,4.2-5,7.5c-1.3,3.3-1.9,7.3-2,12c0.1,3.8,0.8,6.5,2.3,8.1c1.5,1.6,3.3,2.4,5.4,2.3c1.9,0,3.5-0.4,5-1.3
	c1.5-0.9,2.7-2,3.8-3.2L280.4,40z"/>
<path class="st0" d="M319.1,0.9h15.2l-5.2,29.4h0.4c1.4-1.5,3.2-2.9,5.4-4.1c2.2-1.2,4.9-1.8,8.1-1.9c2.8,0,5.5,0.7,8,2.1
	c2.6,1.4,4.7,3.6,6.4,6.6c1.7,3,2.5,6.9,2.6,11.8c-0.1,6-0.9,11.2-2.4,15.5c-1.5,4.3-3.6,7.9-6.2,10.6c-2.6,2.7-5.4,4.7-8.3,5.9
	c-3.1,1.3-6.1,2-9.1,2c-2.8-0.1-5.1-0.5-6.9-1.3c-1.8-0.7-3.2-1.6-4.3-2.7c-1.1-1-1.9-2-2.5-2.9H320l-3.1,5.7h-11.6L319.1,0.9z
	 M323.3,63.5c0.5,1.3,1.4,2.3,2.6,3c1.3,0.8,2.8,1.3,4.6,1.3c2.3,0,4.5-0.8,6.6-2.3c2.1-1.5,3.8-3.9,5.2-7c1.4-3.2,2.1-7.3,2.1-12.3
	c-0.1-4-0.9-6.9-2.5-8.5c-1.5-1.7-3.4-2.5-5.6-2.4c-1.5,0.1-3.1,0.5-4.7,1.4c-1.6,0.9-3,2-4.3,3.3L323.3,63.5z"/>
<path class="st0" d="M370.8,40.6c2.1-5.1,5.3-9,9.6-11.9c4.3-2.8,9.7-4.3,16.1-4.4c5.3,0,9.7,0.9,13.1,2.7c3.5,1.7,6,4.2,7.7,7.4
	c1.7,3.1,2.6,6.8,2.6,11.1c0,6.5-1.1,12.2-3.3,17.2c-2.2,5-5.4,8.9-9.7,11.8c-4.3,2.8-9.7,4.3-16.1,4.4c-5.3-0.1-9.7-1-13.1-2.7
	c-3.4-1.7-5.9-4.2-7.6-7.3c-1.7-3.1-2.5-6.8-2.5-10.9C367.6,51.4,368.7,45.6,370.8,40.6z M400.7,62.2c2.3-3.8,3.4-9.3,3.4-16.7
	c0-3.5-0.7-6-2.1-7.7c-1.4-1.7-3.3-2.5-5.8-2.5c-4.2,0.1-7.5,2-9.7,5.7c-2.3,3.8-3.4,9.4-3.4,16.8c0.1,3.5,0.8,6,2.1,7.6
	c1.4,1.7,3.3,2.5,5.7,2.4C395.2,67.8,398.5,65.9,400.7,62.2z"/>
<path class="st0" d="M451.7,35.3c0.6,1.5,1.2,2.9,1.7,4.4c0.4,1.5,0.8,3,1.1,4.5h0.4c0.9-1.7,1.9-3.3,2.9-4.8c1-1.5,2.2-3,3.3-4.5
	l7-9.5h16.6l-0.3,1.7l-20.3,23.9l7,13.8c0.5,1,1.1,1.8,1.8,2.2c0.7,0.4,1.4,0.6,2.2,0.6c0.7,0,1.4-0.1,2-0.3
	c0.7-0.1,1.3-0.3,1.8-0.6l-1.8,10.7c-1.2,0.4-2.6,0.8-4.2,1c-1.6,0.3-3.3,0.5-5,0.5c-2.8-0.1-4.9-0.8-6.3-2.1
	c-1.5-1.3-2.6-3.1-3.4-5.4l-2-4.9c-0.6-1.5-1-2.9-1.5-4.3c-0.4-1.3-0.8-2.6-1-4h-0.5c-0.8,1.6-1.7,3.1-2.6,4.6
	c-0.9,1.5-1.9,2.9-3,4.4l-7.9,10.5h-16.6l0.3-1.5L444,51.3l-6.4-12.9c-0.5-1-1.1-1.8-1.9-2.2c-0.7-0.4-1.5-0.6-2.4-0.6
	c-0.6,0-1.3,0.1-2,0.3c-0.6,0.2-1.3,0.4-1.9,0.6l2.1-10.7c1.1-0.3,2.5-0.7,4.1-1c1.5-0.3,3.2-0.4,5-0.4c2,0,3.6,0.3,4.8,0.8
	c1.2,0.6,2.1,1.4,2.8,2.4c0.7,1,1.3,2.3,1.9,3.6L451.7,35.3z"/>
<path class="st0" d="M490,61.3h17.2l-2.8,16.4h-17.2L490,61.3z"/>
<path class="st0" d="M533.5,81.4c-0.2,0.6-0.4,1.1-0.6,1.8c-0.2,0.6-0.3,1.3-0.3,1.9c0,1.4,0.6,2.5,1.7,3.2c1.1,0.8,2.7,1.1,4.7,1.1
	c2.8,0.1,5.3-0.8,7.4-2.7c2-1.9,3.4-5.2,4.3-9.9l1-6.7h-0.5c-1.7,1.8-3.7,3.2-5.9,4.2c-2.2,1-4.8,1.5-7.6,1.6
	c-2.9,0-5.7-0.6-8.4-1.9c-2.7-1.3-5-3.3-6.8-6.3c-1.7-2.9-2.6-6.9-2.7-11.9c0-6.5,1.1-12.1,3.4-16.8c2.2-4.7,5.3-8.4,9.2-10.9
	c4-2.6,8.5-3.9,13.6-3.9c2.8,0.1,5.2,0.6,7.1,1.5c1.8,0.9,3.2,1.9,4.3,3.1c1,1.3,1.8,2.3,2.2,3.1h0.6l3.4-6.7h11.2l-9.1,51.5
	c-1.1,7.2-3.8,12.9-8.1,17c-4.3,4.2-10.6,6.3-19,6.4c-7.2-0.1-12.5-1.3-16-3.5c-3.3-2.2-5-5.1-5-8.8c0.1-1.4,0.3-2.7,0.6-4
	c0.4-1.3,0.9-2.3,1.5-3L533.5,81.4z M548.6,64c1.7-0.8,3.2-1.9,4.7-3.5l3.6-19.7c-0.6-1.6-1.7-3-3.1-4.1c-1.5-1.1-3.3-1.7-5.4-1.8
	c-2.6,0.1-4.8,1-6.8,2.7c-1.9,1.8-3.4,4.2-4.5,7.2c-1.1,3-1.7,6.4-1.7,10.1c0.1,3.8,0.9,6.4,2.6,8c1.7,1.5,3.7,2.3,5.9,2.2
	C545.4,65.2,547,64.8,548.6,64z"/>
<path class="st0" d="M589.2,76.8c-2.6-1.5-4.6-3.8-6.2-6.9c-1.6-3.1-2.4-7.1-2.4-12.1c0.1-6.7,1.2-12.5,3.4-17.5
	c2.3-5,5.3-8.9,9.1-11.7c3.8-2.8,7.9-4.3,12.4-4.3c2.8,0,5.2,0.4,7.1,1.1c1.9,0.8,3.4,1.7,4.6,2.8c1.1,1.1,2,2.3,2.7,3.4h0.7
	l3.1-6.4h11.6l-6.7,37.4c-0.1,0.6-0.2,1.3-0.3,2.1c-0.1,0.8,0,1.5,0.3,2.1c0.3,0.6,0.9,0.9,1.9,0.9c0.7,0,1.4-0.1,2.1-0.3
	c0.7-0.2,1.3-0.5,1.9-0.7L633,77.2c-0.8,0.3-1.7,0.6-2.9,0.8c-1.2,0.2-2.4,0.4-3.6,0.5c-1.3,0.2-2.4,0.3-3.4,0.3
	c-3.1,0-5.4-0.6-6.9-1.9c-1.5-1.3-2.3-3-2.5-5.3h-0.5c-0.9,0.9-2.1,1.9-3.5,3c-1.5,1.1-3.2,2.1-5.2,2.9c-1.9,0.8-4.2,1.2-6.9,1.3
	C594.5,78.8,591.7,78.1,589.2,76.8z M617.5,40c-0.6-1.2-1.4-2.3-2.5-3.2c-1.2-0.9-2.7-1.4-4.7-1.5c-2.2,0-4.3,0.9-6.4,2.6
	c-2,1.7-3.7,4.2-5,7.5c-1.3,3.3-1.9,7.3-2,12c0.1,3.8,0.8,6.5,2.3,8.1c1.5,1.6,3.3,2.4,5.4,2.3c1.9,0,3.5-0.4,5-1.3
	c1.5-0.9,2.7-2,3.8-3.2L617.5,40z"/>
</svg>
