<?xml version="1.0" encoding="utf-8"?>
<!-- Generator: Adobe Illustrator 26.2.1, SVG Export Plug-In . SVG Version: 6.00 Build 0)  -->
<svg version="1.1" id="Слой_1" xmlns="http://www.w3.org/2000/svg" xmlns:xlink="http://www.w3.org/1999/xlink" x="0px" y="0px"
	 viewBox="0 0 612 612" style="enable-background:new 0 0 612 612;" xml:space="preserve">
<style type="text/css">
	.st0{fill:#FFFFFF;}
</style>
<g id="Layer_2">
</g>
<path class="st0" d="M562,0H50C22.4,0,0,22.4,0,50v512c0,27.6,22.4,50,50,50h512c27.6,0,50-22.4,50-50V50C612,22.4,589.6,0,562,0z
	 M138.1,355.7l1.6-8.5l73.7-253.8H326l-22.5,78.4c0,0.8-0.8,0.8-0.8,1.6l-59.8,208h55.9c-23.3,58.2-41.9,104-54.3,136.6
	C141.2,517.1,112.5,443.4,138.1,355.7z M475.8,356.5C449.4,444.2,346.9,518.7,246,518.7c-0.8,0-0.8,0-1.6,0l135.8-195.6h-57.4
	l50.5-125C459.5,207.4,499.9,274.9,475.8,356.5z"/>
</svg>
