<?xml version="1.0" encoding="utf-8"?>
<!-- Generator: Adobe Illustrator 26.2.1, SVG Export Plug-In . SVG Version: 6.00 Build 0)  -->
<svg version="1.1" id="Слой_1" xmlns="http://www.w3.org/2000/svg" xmlns:xlink="http://www.w3.org/1999/xlink" x="0px" y="0px"
	 viewBox="0 0 612 612" style="enable-background:new 0 0 612 612;" xml:space="preserve">
<style type="text/css">
	.st0{fill:#FFFFFF;}
</style>
<g id="Layer_2">
</g>
<g>
	<path class="st0" d="M242.7,292.5c-18.7,0-34,17.5-34,39.1c0,21.4,15.3,38.9,34,38.9c18.9,0,34-17.5,34-38.9
		C276.7,310,261.6,292.5,242.7,292.5z"/>
	<path class="st0" d="M369.3,292.5c-18.9,0-34,17.5-34,39.1c0,21.4,15.1,38.9,34,38.9c18.7,0,34-17.5,34-38.9
		C403.3,310,388.1,292.5,369.3,292.5z"/>
	<path class="st0" d="M562,0H50C22.4,0,0,22.4,0,50v512c0,27.6,22.4,50,50,50h512c27.6,0,50-22.4,50-50V50C612,22.4,589.6,0,562,0z
		 M524.7,420.6c-23.8,33.6-75.5,53.8-114.6,56.6c-5.9,0.4-11.6-2.2-15.1-7.1c-0.2,0-0.2-0.2-0.4-0.4c-7.1-9.8-2.9-23.6,8.6-27.9
		c32.6-12,49.3-26.3,50.3-27.3c4.1-3.7,4.5-9.8,1-13.8c-3.7-4.1-9.8-4.5-13.8-0.8c-0.6,0.4-45.8,38.9-134.6,38.9
		s-134-38.5-134.6-38.9c-4.1-3.7-10.2-3.3-13.8,0.8c-3.5,4.1-3.1,10.2,1,13.8c1,1,17.7,15.3,50.3,27.3c11.4,4.3,15.7,18.1,8.6,27.9
		c-0.2,0.2-0.2,0.4-0.4,0.4c-3.5,4.9-9.2,7.5-15.1,7.1c-39.1-2.9-90.8-23-114.6-56.6c-3.7-5.1-5.3-11.4-5.3-17.7
		c1.8-94.3,41.5-200.8,61.5-219.3c34.2-27.3,83.1-34.8,104.3-37.1h0.8c3.3,0,6.3,1.8,7.3,4.9c1.8,4.7-1,9.8-5.7,10.6
		c-23.8,4.9-51.3,13.4-76.4,29.1c-5.1,3.1-6.3,10-2.2,14.7c3.3,3.7,8.8,4.1,13,1.6c48.9-30.1,109.6-31.8,121.4-31.8
		s72.5,1.6,121.4,31.8c4.3,2.4,9.8,2,13-1.6c4.1-4.7,2.9-11.6-2.2-14.7c-25-15.7-52.5-24.2-76.4-29.1c-4.7-0.8-7.5-5.9-5.7-10.6
		c1-3.1,4.1-4.9,7.3-4.9h0.8c21.2,2.2,70.1,9.8,104.3,37.1c20,18.5,59.7,125,61.5,219.3C530,409.2,528.4,415.5,524.7,420.6z"/>
</g>
</svg>
