<?xml version="1.0" encoding="utf-8"?>
<!-- Generator: Adobe Illustrator 26.2.1, SVG Export Plug-In . SVG Version: 6.00 Build 0)  -->
<svg version="1.1" id="Слой_1" xmlns="http://www.w3.org/2000/svg" xmlns:xlink="http://www.w3.org/1999/xlink" x="0px" y="0px"
	 viewBox="0 0 612 612" style="enable-background:new 0 0 612 612;" xml:space="preserve">
<style type="text/css">
	.st0{fill:#FFFFFF;}
</style>
<g id="Layer_2">
</g>
<g>
	<polygon class="st0" points="257.4,372.9 374.1,306 257.4,239.1 	"/>
	<path class="st0" d="M562,0H50C22.4,0,0,22.4,0,50v512c0,27.6,22.4,50,50,50h512c27.6,0,50-22.4,50-50V50C612,22.4,589.6,0,562,0z
		 M507,406.4c-3.8,22-22,36.3-43,41.1c-33.5,6.7-90.8,11.5-154,11.5s-120.5-4.8-154-11.5c-21-4.8-39.2-20.1-43-41.1
		c-4.8-23.9-8.6-57.4-8.6-100.4s3.8-76.5,7.7-100.4c3.8-22,22-36.3,43-41.1c31.6-6.7,90.8-11.5,153.9-11.5
		c63.1,0,121.5,4.8,153,11.5c21.1,4.8,39.2,20.1,43,41.1c4.8,23.9,9.6,57.4,11.5,100.4C515.6,348.1,510.9,382.5,507,406.4z"/>
</g>
</svg>
