<?xml version="1.0" encoding="utf-8"?>
<!-- Generator: Adobe Illustrator 26.2.1, SVG Export Plug-In . SVG Version: 6.00 Build 0)  -->
<svg version="1.1" id="Слой_1" xmlns="http://www.w3.org/2000/svg" xmlns:xlink="http://www.w3.org/1999/xlink" x="0px" y="0px"
	 viewBox="0 0 566.2 100" style="enable-background:new 0 0 566.2 100;" xml:space="preserve">
<style type="text/css">
	.st0{fill:#FFFFFF;}
</style>
<path class="st0" d="M35,24.8H19.5v54.6c0,7-2.4,9.7-5.8,9.7c-2.8,0-5.3-0.5-7.5-1.1L4.6,98.6c3.1,0.9,6.9,1.5,11.8,1.5
	c12.8,0,18.5-7.6,18.5-20.2L35,24.8L35,24.8z M19.5,16.4h15.6V3.1H19.5V16.4z"/>
<path class="st0" d="M55.6,43.3c-0.1-0.9-0.2-1.8-0.2-2.5c0-4.5,3.1-6.6,9.6-6.6s9.4,3.2,9.4,7.9v4.2c-26.4,0.5-35.2,7-35.2,18.1
	c0,9.6,6.8,14.2,17.1,14.2c11.4,0,17.9-6.2,19.7-8.4h0.6c0.2,4,1.9,8.4,9.8,8.4c3.1,0,6.5-0.6,8.8-1.4l-0.6-10.3
	c-0.9,0.3-1.8,0.4-2.7,0.4c-1.5,0-2.4-0.9-2.4-3V42.8c0-9.9-5.1-19.2-23.8-19.2c-16.7,0-24.3,6.5-24.3,16.6c0,1.2,0.1,2.7,0.3,3.9
	L55.6,43.3z M54.1,62.4c0-4.5,4.4-7.7,20.2-8.1V62c-3,3.4-8.1,5.8-13,5.8C56.7,67.9,54.1,66.3,54.1,62.4z"/>
<path class="st0" d="M95,51.2c0,17.3,9.3,27.3,27.8,27.3c22.1,0,24.3-13.1,24.3-18.4c0-0.8,0-1.7-0.2-2.8l-15.4-0.2
	c0.2,0.6,0.2,1.3,0.2,1.7c0,3.2-1.7,8.6-9.4,8.6s-11.5-5.7-11.5-16.3c0-12.4,4.3-16.5,11.5-16.5c7.6,0,9.4,5.5,9.4,8.6
	c0,0.5,0,1.2-0.2,1.8l15.4-0.3c0.2-1.2,0.2-1.9,0.2-2.8c0-5.7-2.3-18.4-24.3-18.4C103.4,23.7,95,36.3,95,51.2z"/>
<path class="st0" d="M151.6,77.5h15.5V61.2c1.9-1.2,6.2-4.1,8.3-5.7c2.4,2.6,12.2,20,14.4,22h16.7v-1.8
	c-2.9-2.4-16.8-25.2-19.6-28.5c5.2-4.4,13-12.3,18.5-20.6v-1.8h-16.9c-5.2,8.3-14,16.6-21.4,21.6V0h-15.5V77.5z"/>
<path class="st0" d="M208.8,77.5h11.6l2.3-5.8h0.6c2.5,2.7,7.1,6.9,16.5,6.9c11.8,0,22.5-7.7,22.5-27.6c0-20-11-27.3-22.5-27.3
	c-7.3,0-12.3,3-14.9,6h-0.6V0h-15.5L208.8,77.5L208.8,77.5z M224.3,39.4c2.4-2.7,6.1-4.6,9.8-4.6c6.9,0,12.4,3.6,12.4,16.3
	c0,12.6-5.2,16.5-12.4,16.5c-4.4,0-7.9-2-9.8-4.5V39.4z"/>
<path class="st0" d="M263.9,51.2c0,16.6,9,27.3,27.8,27.3c18.5,0,27.8-10.8,27.8-27.3c0-16.7-9.3-27.6-27.8-27.6
	C272.9,23.7,263.9,34.5,263.9,51.2z M291.6,67.5c-7.4,0-12.1-4.2-12.1-16.3c0-12.3,4.6-16.5,12.1-16.5c7.2,0,11.9,4.2,11.9,16.5
	C303.6,63.3,298.9,67.5,291.6,67.5z"/>
<path class="st0" d="M317.7,77.5h16.5l7.1-10.7c1.9-3,3.2-5.1,4.8-8.3h0.8c1.7,3.1,2.5,4.7,4.7,8.1l7.3,10.9h16.5V76l-18.9-25.5
	l18.6-24.1v-1.6h-16.5l-6.6,9.6c-2,3-3.4,5.2-5.2,8.5H346c-1.6-3.3-3.2-5.9-5.1-8.6l-6.5-9.5h-16.5v1.6l18.4,24.5L317.7,76V77.5z"/>
<rect x="377.9" y="60.9" class="st0" width="17.9" height="16.6"/>
<path class="st0" d="M403.7,25h11.5l2.2,5.8h0.6c2.5-2.7,7-6.8,16.3-6.8c11.7,0,22.3,7.7,22.3,27.3c0,19.8-10.9,27.1-22.3,27.1
	c-7.2,0-12.1-3-14.8-6H419v26.2h-15.3V25z M419,62.7c2.3,2.7,6.1,4.6,9.7,4.6c6.8,0,12.3-3.5,12.3-16c0-12.5-5.1-16.4-12.3-16.4
	c-4.4,0-7.9,2.1-9.7,4.6V62.7z"/>
<path class="st0" d="M477.1,77.2h-15.5V25H473l1.9,7.2h0.7c2.5-3.7,6.4-8.3,14.5-8.3c10.7,0,14.1,7.7,14.1,16.2c0,2.6-0.5,5.2-1,7.1
	L490,46.5c0.3-1.6,0.4-3.2,0.4-4.4c0-4.6-2.1-7-5.4-7c-4,0-6.8,3.5-7.9,6.5V77.2z"/>
<path class="st0" d="M531.9,23.9c18.3,0,27.5,10.8,27.5,27.3c0,16.4-9.2,27.1-27.5,27.1c-18.5,0-27.5-10.7-27.5-27.1
	C504.4,34.7,513.3,23.9,531.9,23.9z M543.7,51.2c0-12.1-4.7-16.3-11.8-16.3c-7.4,0-11.9,4.2-11.9,16.3c0,11.9,4.6,16.1,11.9,16.1
	C539,67.3,543.7,63.1,543.7,51.2z"/>
</svg>
