<?xml version="1.0" encoding="utf-8"?>
<!-- Generator: Adobe Illustrator 26.2.1, SVG Export Plug-In . SVG Version: 6.00 Build 0)  -->
<svg version="1.1" id="Слой_1" xmlns="http://www.w3.org/2000/svg" xmlns:xlink="http://www.w3.org/1999/xlink" x="0px" y="0px"
	 viewBox="0 0 656 100" style="enable-background:new 0 0 656 100;" xml:space="preserve">
<style type="text/css">
	.st0{fill:#FFFFFF;}
</style>
<path class="st0" d="M31,24.8H15.5v54.6c0,7-2.4,9.7-5.8,9.7c-2.8,0-5.3-0.5-7.5-1.1L0.6,98.6c3.1,0.9,6.9,1.5,11.8,1.5
	c12.8,0,18.5-7.6,18.5-20.2L31,24.8L31,24.8z M15.5,16.4h15.6V3.1H15.5V16.4z"/>
<path class="st0" d="M51.6,43.3c-0.1-0.9-0.2-1.8-0.2-2.5c0-4.5,3.1-6.6,9.6-6.6s9.4,3.2,9.4,7.9v4.2c-26.4,0.5-35.2,7-35.2,18.1
	c0,9.6,6.8,14.2,17.1,14.2c11.4,0,17.9-6.2,19.7-8.4h0.6c0.2,4,1.9,8.4,9.8,8.4c3.1,0,6.5-0.6,8.8-1.4l-0.6-10.3
	c-0.9,0.3-1.8,0.4-2.7,0.4c-1.5,0-2.4-0.9-2.4-3V42.8c0-9.9-5.1-19.2-23.8-19.2c-16.7,0-24.3,6.5-24.3,16.6c0,1.2,0.1,2.7,0.3,3.9
	L51.6,43.3z M50.1,62.4c0-4.5,4.4-7.7,20.2-8.1V62c-3,3.4-8.1,5.8-13,5.8C52.7,67.9,50.1,66.3,50.1,62.4z"/>
<path class="st0" d="M91,51.2c0,17.3,9.3,27.3,27.8,27.3c22.1,0,24.3-13.1,24.3-18.4c0-0.8,0-1.7-0.2-2.8l-15.4-0.2
	c0.2,0.6,0.2,1.3,0.2,1.7c0,3.2-1.7,8.6-9.4,8.6s-11.5-5.7-11.5-16.3c0-12.4,4.3-16.5,11.5-16.5c7.6,0,9.4,5.5,9.4,8.6
	c0,0.5,0,1.2-0.2,1.8l15.4-0.3c0.2-1.2,0.2-1.9,0.2-2.8c0-5.7-2.3-18.4-24.3-18.4C99.4,23.7,91,36.3,91,51.2z"/>
<path class="st0" d="M147.6,77.5h15.5V61.2c1.9-1.2,6.2-4.1,8.3-5.7c2.4,2.6,12.2,20,14.4,22h16.7v-1.8
	c-2.9-2.4-16.8-25.2-19.6-28.5c5.2-4.4,13-12.3,18.5-20.6v-1.8h-16.9c-5.2,8.3-14,16.6-21.4,21.6V0h-15.5V77.5z"/>
<path class="st0" d="M204.8,77.5h11.6l2.3-5.8h0.6c2.5,2.7,7.1,6.9,16.5,6.9c11.8,0,22.5-7.7,22.5-27.6c0-20-11-27.3-22.5-27.3
	c-7.3,0-12.3,3-14.9,6h-0.6V0h-15.5L204.8,77.5L204.8,77.5z M220.3,39.4c2.4-2.7,6.1-4.6,9.8-4.6c6.9,0,12.4,3.6,12.4,16.3
	c0,12.6-5.2,16.5-12.4,16.5c-4.4,0-7.9-2-9.8-4.5V39.4z"/>
<path class="st0" d="M259.9,51.2c0,16.6,9,27.3,27.8,27.3c18.5,0,27.8-10.8,27.8-27.3c0-16.7-9.3-27.6-27.8-27.6
	C268.9,23.7,259.9,34.5,259.9,51.2z M287.6,67.5c-7.4,0-12.1-4.2-12.1-16.3c0-12.3,4.6-16.5,12.1-16.5c7.2,0,11.9,4.2,11.9,16.5
	C299.6,63.3,294.9,67.5,287.6,67.5z"/>
<path class="st0" d="M313.7,77.5h16.5l7.1-10.7c1.9-3,3.2-5.1,4.8-8.3h0.8c1.7,3.1,2.5,4.7,4.7,8.1l7.3,10.9h16.5V76l-18.9-25.5
	l18.6-24.1v-1.6h-16.5l-6.6,9.6c-2,3-3.4,5.2-5.2,8.5H342c-1.6-3.3-3.2-5.9-5.1-8.6l-6.5-9.5h-16.5v1.6l18.4,24.5L313.7,76V77.5z"/>
<rect x="373.9" y="60.9" class="st0" width="17.9" height="16.6"/>
<path class="st0" d="M410.4,77.5h-15.6V24.7h11.4l1.9,7.3h0.8c2.5-3.8,6.5-8.4,14.7-8.4c10.8,0,14.2,7.8,14.2,16.4
	c0,2.6-0.5,5.3-1,7.2l-13.4-0.8c0.3-1.6,0.4-3.2,0.4-4.4c0-4.6-2.2-7.1-5.5-7.1c-4.1,0-6.9,3.6-8,6.6V77.5z"/>
<path class="st0" d="M467.3,23.6c18.5,0,27.8,10.9,27.8,27.6c0,16.6-9.3,27.4-27.8,27.4c-18.7,0-27.8-10.8-27.8-27.4
	C439.5,34.5,448.6,23.6,467.3,23.6z M479.3,51.2c0-12.3-4.7-16.5-12-16.5c-7.4,0-12.1,4.2-12.1,16.5c0,12.1,4.6,16.3,12.1,16.3
	C474.5,67.5,479.3,63.3,479.3,51.2z"/>
<path class="st0" d="M525.3,23.6c22.1,0,24.3,12.7,24.3,18.4c0,0.9,0,1.6-0.2,2.8L534,45.2c0.2-0.6,0.2-1.3,0.2-1.8
	c0-3.1-1.7-8.6-9.4-8.6c-7.2,0-11.5,4.1-11.5,16.5c0,10.6,3.9,16.3,11.5,16.3c7.6,0,9.4-5.4,9.4-8.6c0-0.4,0-1.1-0.2-1.7l15.4,0.2
	c0.2,1.1,0.2,2,0.2,2.8c0,5.3-2.3,18.4-24.3,18.4c-18.5,0-27.8-10-27.8-27.4C497.5,36.2,505.9,23.6,525.3,23.6z"/>
<path class="st0" d="M553.1-0.1h15.5v46.4C576,41.3,584.8,33,590,24.7h16.9v1.8c-5.5,8.3-13.4,16.2-18.5,20.6
	c2.8,3.3,16.7,26.2,19.6,28.5v1.8h-16.7c-2.3-1.9-12.1-19.4-14.4-22c-2,1.6-6.4,4.5-8.3,5.7v16.3h-15.5V-0.1z"/>
<path class="st0" d="M621,59.7c-0.1,0.8-0.1,1.3-0.1,1.7c0,2.8,1.6,6.5,10.9,6.5c6,0,9-2,9-5.2c0-3.2-3.3-4.3-7.6-5.3l-7.6-1.7
	c-12.3-2.8-17.7-7-17.7-16.2c0-9.5,8.2-15.9,23.9-15.9c19.7,0,22.9,9.5,23.1,15.4c0,0.9,0,1.6-0.2,2.7L641.2,42
	c0.1-0.8,0.1-1.3,0.1-1.7c0-2.5-1.8-5.8-9.9-5.8c-6,0-8.8,1.8-8.8,5c0,4.1,4.1,4.7,8.4,5.6l8.3,1.7c12.6,2.6,16.8,7.5,16.8,15.8
	c0,8.7-7.6,16.1-24.2,16.1c-21.2,0-24.9-10.3-24.9-16.5c0-0.8,0.1-1.5,0.2-2L621,59.7z"/>
</svg>
