<?xml version="1.0" encoding="utf-8"?>
<!-- Generator: Adobe Illustrator 26.2.1, SVG Export Plug-In . SVG Version: 6.00 Build 0)  -->
<svg version="1.1" id="Слой_1" xmlns="http://www.w3.org/2000/svg" xmlns:xlink="http://www.w3.org/1999/xlink" x="0px" y="0px"
	 viewBox="0 0 612 612" style="enable-background:new 0 0 612 612;" xml:space="preserve">
<style type="text/css">
	.st0{fill:#FFFFFF;}
</style>
<g id="Layer_2">
</g>
<path class="st0" d="M562,0H50C22.4,0,0,22.4,0,50v512c0,27.6,22.4,50,50,50h512c27.6,0,50-22.4,50-50V50C612,22.4,589.6,0,562,0z
	 M191.8,458.6h-72.7V158.4h72.7V458.6z M291.8,458H219V285.3h72.7V458z M255,238.9l57.4-80c13.9,17.4,15.6,42.6,1.4,62
	C300.5,239.8,276.1,247,255,238.9z M404.5,457.4h-72.7v-17.1l72.7-95V457.4z M318.1,342.9v-95.3l13.9-18.3h73.3L318.1,342.9z
	 M496.9,457.7h-72.7V229.4h72.7V457.7z"/>
</svg>
