<?xml version="1.0" encoding="utf-8"?>
<!-- Generator: Adobe Illustrator 26.2.1, SVG Export Plug-In . SVG Version: 6.00 Build 0)  -->
<svg version="1.1" id="Layer_1" xmlns="http://www.w3.org/2000/svg" xmlns:xlink="http://www.w3.org/1999/xlink" x="0px" y="0px"
	 viewBox="0 0 1695.7 945.7" style="enable-background:new 0 0 1695.7 945.7;" xml:space="preserve">
<style type="text/css">
	.st0{fill-rule:evenodd;clip-rule:evenodd;fill:#EA803C;}
	.st1{fill-rule:evenodd;clip-rule:evenodd;fill:#533F8B;}
	.st2{fill-rule:evenodd;clip-rule:evenodd;fill:#5D9A83;}
	.st3{fill-rule:evenodd;clip-rule:evenodd;fill:#4177B3;}
	.st4{fill-rule:evenodd;clip-rule:evenodd;fill:#FB7C85;}
	.st5{fill-rule:evenodd;clip-rule:evenodd;fill:#EE2A74;}
</style>
<path class="st0" d="M819,326.5c-9.1-25.6-7.6-50.7,4.5-75.5c12-24.6,31.2-41.4,57.4-50.4c26.2-9.3,51.8-8.1,76.8,3.5
	c25.2,11.8,42.5,30.5,51.7,56.1L819,326.5"/>
<path class="st1" d="M798.9,371.1l-5.3-9.8c-8.3-16.7-13-34.1-14-52.3c-1.2-18.1,1.2-36,7.4-53.5c5.7-17.6,14.6-33.3,26.6-47.1
	c12.1-13.8,26.5-24.8,43.2-32.9l16.9,34.2c-11.9,6-22.3,14.1-31.1,24c-8.8,10-15.4,21.2-19.9,33.6c-4.3,12.9-6,26-5.2,39.3
	c0.9,13.2,4.4,25.8,10.7,38c5.8,11.7,13.7,22,23.7,30.8c10,8.8,21.3,15.4,33.9,20c12.9,4.3,25.9,6,39,5.2c13.2-0.9,25.8-4.4,38-10.7
	l16.9,34.5c-16.7,8.1-34.2,12.8-52.6,14c-18.1,1.2-36.1-1.2-53.8-7.4c-15.6-5-29.7-12.8-42.3-23.3
	C818.2,397.4,807.5,385.2,798.9,371.1"/>
<path class="st2" d="M919.4,428.6c12.3,0.4,24.1-1.4,35.6-5.5c11.5-4.3,21.8-10.8,31-19.5c9.2-8.2,16.3-18,21.5-29.4
	c4.9-11.1,7.6-23,8-35.7l35.5,1.2c-0.7,17.4-4.5,33.9-11.5,49.2c-7.2,15.6-17,29.1-29.4,40.5c-11.4,10.6-24,18.8-37.9,24.6
	c-14.1,6-28.8,9.4-44.1,10.3l-10,0.2L919.4,428.6"/>
<path class="st2" d="M689.5,587.1c0.6,4.5-0.5,8.5-3.3,12.1c-2.8,3.6-6.4,5.7-10.9,6.3c-4.7,0.6-8.7-0.5-12.1-3.3
	c-3.8-2.8-6-6.4-6.6-10.9c-0.6-4.7,0.6-8.8,3.7-12.2c2.8-3.8,6.5-6,11.2-6.6c4.5-0.6,8.4,0.7,11.9,3.7
	C686.8,578.8,688.9,582.4,689.5,587.1"/>
<path class="st2" d="M643.2,553.3c0.6,4.7-0.5,8.7-3.3,12.1c-2.8,3.8-6.5,6-11.2,6.6c-4.5,0.4-8.6-1-12.2-4
	c-3.6-2.6-5.7-6.2-6.3-10.9c-0.4-4.5,0.9-8.6,3.7-12.2s6.5-5.6,11-6c4.7-0.6,8.9,0.5,12.5,3.3C640.9,545.1,642.9,548.8,643.2,553.3"
	/>
<path class="st2" d="M716.8,640c0.6,4.5-0.4,8.5-3,12.1c-3,3.6-6.7,5.7-10.9,6.3c-4.7,0.6-8.8-0.6-12.2-3.7c-3.8-2.8-6-6.4-6.6-10.9
	c-0.6-4.7,0.7-8.8,4-12.2c2.6-3.6,6.2-5.7,10.9-6.3c4.3-0.5,8.3,0.7,12.2,3.7C714.3,631.6,716.2,635.3,716.8,640"/>
<path class="st2" d="M726.3,694.8c0.6,4.7-0.5,8.7-3.3,12.1c-2.8,3.8-6.4,6-10.9,6.6c-4.7,0.6-8.8-0.7-12.2-4
	c-3.8-2.6-6-6.2-6.6-10.9c-0.4-4.5,1-8.6,4-12.2c2.6-3.4,6.3-5.4,11-6c4.5-0.6,8.5,0.5,12.1,3.3C724,686.6,726,690.3,726.3,694.8"/>
<path class="st2" d="M714.7,757.5c-1.2,4.5-3.8,7.6-7.9,9.5l-12.9,1c-4.3-1.2-7.4-3.8-9.5-7.9c-2.1-4.3-2.4-8.6-1-12.9
	c1.4-4.3,4.2-7.5,8.2-9.5l12.5-1.3c4.5,1.6,7.8,4.4,9.9,8.5C716.1,749,716.4,753.2,714.7,757.5"/>
<path class="st3" d="M604.4,829.8c-33.2,10.1-65.2,6.8-96-10c-30.8-16.5-51.2-41.5-61.3-74.9c-10.1-33.5-6.8-65.7,9.9-96.7
	c16.7-30.6,41.7-50.8,75-60.7L604.4,829.8"/>
<path class="st4" d="M516.3,569.4c33.5-9.9,65.6-6.6,96.4,9.9c30.8,16.5,51.2,41.7,61.4,75.6c9.7,33.5,6.3,65.5-10.3,96.1
	c-16.5,30.8-41.5,51.2-74.9,61.3L516.3,569.4"/>
<path class="st5" d="M471.9,561l22,73.4l-73.4,22L471.9,561"/>
<g>
	<path d="M158.8,342.1c0.4,1,0.9,2.4,1.7,4.4c0.8,1.9,1.3,2.8,1.5,2.5c-3.2,1.2-5.3,2.7-6.3,4.6c-1,1.9-1.4,4-1.1,6.3
		c0.7,3.7,2.9,7,6.6,9.9c4,3.1,8.6,4.4,13.9,4c7.8-1.3,13.1-5.1,16.1-11.6c3-6.8,3.8-14.8,2.7-24.1c-1.1-8.5-3.7-17.3-8-26.2
		c-3.9-8.7-9.2-16.8-15.8-24.4c-6.8-7.6-14.7-13.3-23.7-17.3c-8.7-4.2-18.6-5.7-29.7-4.2c-10.3,1.3-18.8,6.5-25.6,15.5
		c-7,8.8-12.3,20.4-15.9,34.6c-3.6,14-5.7,29.3-6.4,46c-0.4,16.9,0.5,34,2.8,51.4c3.7,28.6,10,51.7,18.8,69.2
		c8.9,17.8,19.4,30.5,31.3,38.1c11.7,7.4,23.8,10.3,36.4,8.7c12.8-1.6,24.9-7.8,36.3-18.5c11.2-10.4,20.5-24.5,27.9-42.3
		c7.2-17.8,11.1-38.6,11.9-62.4l6.8-0.5c-0.2,4.4-0.2,9.1-0.1,14.2c0.4,5.1,0.9,10.4,1.7,15.9c1.6,12.6,3.8,24.9,6.7,37.1
		c2.8,12.2,5.3,22.2,7.3,30.1c2.3,8.1,3.5,12.3,3.5,12.6l-6.4,0.8c-3-5.5-6.2-9.3-9.5-11.4c-3.3-1.9-6.8-2.6-10.6-2.1
		c-6.5,1.1-13.4,4-20.7,8.8c-7.3,4.8-15.4,9.6-24.2,14.6c-8.8,5.2-18.6,8.9-29.6,11.1l-4.5,0.6c-25.9,3.1-48.9,0.1-68.9-8.8
		c-20.3-8.6-36.7-22.1-49.2-40.4c-12.8-18-20.8-39.7-24.1-65.1l-0.2-1.9c-3.5-31.5-1.2-58.7,7.1-81.7c8-23,20.6-41.5,37.7-55.4
		c17.4-13.7,37.8-22.6,61.3-26.6l1.9-0.2c8.8-0.9,17.5-0.1,26,2.4c8.2,2.5,16,5.1,23.2,7.7c7.5,2.6,14.4,3.8,20.7,3.5
		c4-0.5,7.9-2.3,11.6-5.3c3.4-3,6.7-7.8,9.7-14.3l5.6-1.1c-4.2,13.3-7,25.8-8.6,37.5c-1.3,11.9-2.2,22.9-2.7,32.9
		c-0.2,10-0.9,19-1.9,27.1c-1,8.1-3.1,14.8-6.2,20.3c-2.3,3.9-5.3,6.8-8.8,8.8c-3.3,2-7,3.2-11,3.7c-5.3,0.7-10.3,0.2-15.1-1.5
		c-5-1.4-9.2-3.7-12.4-6.8c-3.5-3.1-5.6-6.7-6.3-10.7c-0.4-3.3,0.5-6.7,2.9-10.3c2.4-3.4,6.3-6.7,11.7-9.9L158.8,342.1z"/>
	<path d="M348.9,256.4c5-0.6,12-1.5,20.9-2.5c8.9-1,19.1-0.6,30.6,1.2c11.5,1.9,20.6,6.2,27.3,13c7,6.8,13.3,17.8,18.8,33.2
		c5.8,15.6,10.5,37.2,14.1,64.8c0.7,5.8,1.4,11.8,1.9,18.1c0.8,6,1.4,12.6,1.8,19.7c0,2,0.2,4.2,0.4,6.5l0.9,6.8
		c1.5,12.1,3.9,23.6,7.1,34.7c3.2,11.3,7.4,20.5,12.3,27.5c5,7,10.9,10.3,17.8,10l0.5,4.1c-0.3-0.2-4.7-0.6-13.2-1
		c-8.5-0.4-19.9,0.1-34.3,1.7c-7.3,0.9-14.9,2.3-22.8,4.1c-7.9,1.8-16.2,4.2-24.7,7.4l-0.5-4.1c5.1-1.9,9.1-6.8,11.9-14.6
		c3-8,5.1-18.1,6.1-30.3c1-11.9,1.4-25.1,1-39.6c-0.6-14.5-1.8-29.3-3.8-44.3c-2.5-19.1-5.8-36.4-10.1-51.9
		c-4-15.3-8.8-27.3-14.2-36.1c-7.8-13-17.4-19.8-28.8-20.2c-11.4-0.4-22.7,0.4-33.9,2.6c3.8,47.5,9,96.3,15.7,146.2
		c1.2,9,2.8,18.8,4.9,29.2c2.1,10.5,4.7,20.3,7.6,29.7c3.2,9.3,7,16.7,11.3,22.3c4.3,5.6,9.3,8.1,15.2,7.6l0.5,4.1l-8.4,0.3
		c-5.1,0.1-11.8,0.5-20.2,1.1l-27.3,2.4c-7,0.9-14,2.2-21,3.8c-6.7,1.4-12.9,2.9-18.6,4.7l-0.5-4.1c9.2-2.2,15.3-8.5,18.3-18.8
		c3-10.3,4.1-23.4,3.4-39.1c-1-15.5-2.6-32.1-4.9-49.9c-2-15.6-4.5-31.3-7.6-47.3c-2.9-16.2-6.3-31.4-10.4-45.4
		c-4.1-13.8-8.8-24.9-14.2-33.4c-5.2-8.8-11.2-13.2-17.8-13.4l0.7-6.2c5.3,1.9,10.7,2.8,16.1,2.9c5.6,0.3,23.7-1.5,54.1-5.4
		C338.6,258,343.9,257.3,348.9,256.4z"/>
	<path d="M705.3,221.8c5.3-0.7,10.6-1.9,16-3.6c5.2-1.2,10.2-3.3,14.9-6.5l2.2,5.5c-6.4,1.8-11,7.6-13.9,17.1
		c-3.2,9.1-5,20.6-5.5,34.4c-0.5,13.9-0.1,28.7,1.1,44.7c0.4,4.8,0.7,9.5,1,14c0.8,10.6,1.9,21.1,3.3,31.4c0.8,6.3,1.7,12.3,2.7,18
		c1.3,10.3,3,20.2,5,29.6c3.2,14.7,7.5,26.5,13,35.5c5.5,8.8,12.9,13,22.3,12.8l0.5,3.8c-5.9-0.3-12.3-0.1-19.1,0.5
		c-7.1,0.1-14.2,0.7-21.2,1.6l-27,4.6c-8.3,1.3-14.9,2.5-19.8,3.7l-5.2,1.1l-0.4-3.4c4.2-0.8,7.5-4.3,9.8-10.4
		c2.8-6.2,4.6-14.1,5.4-23.7c0.6-9.3,0.6-19,0.1-29.1c-0.5-7.6-1-14.8-1.6-21.6l-0.9-6.8c-1.5-11.3-2.9-22-4.5-32l-1.4-10.6
		l-9.8-67.3l-4.4-31.6l-18.8,2.4c-18,2.8-29.9,12.5-35.7,29.1c-1.6,7.1-2,13.5-1.2,19.1s3.2,20.5,7.1,44.5
		c4.4,28.3,7.9,51.5,10.5,69.5c2.3,16,2.6,31,0.8,44.7c-2.1,13.8-7.4,25.2-15.9,34.2c-8.5,9.3-21.8,15.2-39.9,17.8
		c-11.1,1.4-21.5,1.2-31.5-0.6c-9.7-2.1-17.9-6.3-24.6-12.6c-6.7-6-10.7-14.8-12.2-26.4l-0.2-1.5c-0.9-11.1,0.6-20.1,4.6-27
		c4-6.6,9.4-11.7,16.1-15.1c6.5-3.1,13.1-5.1,19.9-6c4.8-0.4,9.4,0.5,13.7,2.5c4.4,2.2,7.9,5.2,10.7,9c3,3.7,4.8,7.8,5.4,12.3
		c0.7,5.5-0.7,10.4-4.2,14.7c-3.6,3.8-8.2,6-13.7,6.7l-4.2,0.2l-3.9-0.6l1.5-6.3l3.4-0.1l3.8-0.1c1.8-0.2,3.1-0.8,4-1.7
		c0.9-1.1,1.3-2.9,1.3-5.1c-0.3-2.5-1-5.6-2-9.3c-0.8-4-2.1-7.8-4.1-11.3c-1.9-3.1-4.7-4.6-8.3-4.7l-2.6,0.3
		c-5.5,0.7-9.3,3.2-11.3,7.6c-2.3,4.4-3.5,9.4-3.8,15c-0.3,5.7,0,10.7,0.8,15.2c0.8,8.1,2.6,15.4,5.5,21.9c2.9,6.3,7.2,11,12.9,14.1
		c5.8,3.3,13.4,4.5,22.7,3.6c8.1-2.6,13.7-8.5,16.9-17.9c2.9-9.1,4.3-20.1,4.2-33.1c-0.1-12.8-1-25.8-2.7-39.1l-2.2-14.3l-2.1-13.1
		c-1.4-8.8-2.6-16-3.6-21.8c-1.7-13.6-3.6-26.7-5.5-39.5c-3.8-25.8,0.9-45.4,14.1-58.7c13.2-13.3,35.6-21.6,67.1-24.9L705.3,221.8z"
		/>
	<path d="M1140.2,184c10-1.3,19.7-2.8,28.9-4.5l25.9-4.5l18.7-3.9l7.1-1.3c0.1,11,1,24.3,2.7,40.1c1.6,15.8,2.9,25.9,3.7,30.4
		l1.6,6.7l-2.6,0.7c-7.3-21-14.5-35.7-21.7-43.9c-6.6-5.5-15.1-9.9-25.4-13.2c-6.9-2.2-15.2-2.8-24.7-1.8c-0.2,6.7,0,13.9,0.5,21.8
		c0.5,19.9,2.3,40.3,5.4,61.4c3.1,21.1,6.3,39.4,9.6,55.1c2.9,12.9,6.3,24.6,10.3,35.1c3.9,10.5,8.3,18.6,13.1,24.4l0.7,5.3
		c-7.7-0.3-15-0.4-21.9-0.3c-6.8,0.4-13.3,0.9-19.3,1.7c-11.8,1.8-20.6,3.6-26.5,5.3l-9.2,3.1l-0.6-4.9c5.1-3.7,8.7-9.5,10.8-17.5
		c2.3-8.2,3.4-17.5,3.3-28c-0.1-10.5-1-24.1-2.9-40.8c-1.9-16.7-4.3-32.3-7.2-46.8c-2.9-14.4-5.8-26.6-8.9-36.4
		c-2.8-9.9-6.1-18.5-9.8-25.9c-1-1.9-2-3.7-3-5.4c-7.7,1.8-14.3,4.3-19.7,7.5c-9.2,5.8-16.3,12.2-21.3,19.2
		c-4.9,9.8-8.2,25.8-9.9,48l-2.7,0l-0.1-6.9c-0.3-4.6-1.7-14.6-4.1-30.3s-4.9-28.8-7.6-39.4l7.2-0.5l19-0.9l26.1-2.2
		c9.4-0.7,19.1-1.7,29.1-3L1140.2,184z"/>
	<path d="M1371.9,246.5c-0.5-1.7-1.2-6.7-2.3-15c-4.2-20.9-8.3-37-12.3-48.2c-4-11.5-8.5-20.7-13.5-27.8
		c-4.7-6.8-9.8-10.5-15.2-11.1l-0.5-4.1c9,0.9,17.6,1.2,25.8,0.9c8.1-0.3,15.8-0.9,23.1-1.8c14.3-2.1,25.5-4.4,33.6-7
		c8.1-2.6,12.3-4,12.5-4.3l0.5,4.1c-6.7,1.4-11.6,6.1-14.7,14.1c-3.1,8-4.7,18-5,29.7c-0.3,11.5,1,26.7,3.9,45.5
		c4.5,35.2,7.7,57,9.5,65.4c1.9,8.5,4.2,17,7.1,25.5c2.9,8.6,6.4,16,10.5,22.4c4.2,6.6,9.1,10.8,14.7,12.7l0.1,3.8
		c-0.3-0.2-4.9-0.4-13.9-0.5c-8.7,0.1-20.1,0.9-34.2,2.5c-7,0.9-14.4,2.2-22.1,4c-7.7,1.5-15.8,3.6-24.1,6.2l-0.5-3.8
		c5.6-1.7,10-6.6,13-14.7c3.1-7.8,5.3-17.4,6.6-28.8c1.1-11.4,1.5-22.9,1.3-34.6c-0.2-7.1-0.5-13.7-1-19.8l-0.4,0l-1.1-8.3
		l-74.2,9.5l1.4,10.9c1.3,10,3,21.1,5,33.1c2.3,12,5.1,23.5,8.3,34.6c2.9,10.9,6.5,19.7,10.7,26.6c4.2,6.6,8.9,9.7,14.2,9.3l1.5-0.2
		l0.5,3.8c-0.3-0.2-3-0.3-8.1-0.1l-20.2,0.7c-8.1,0.3-17,1-26.5,2.3c-7,0.9-13.9,2.3-20.5,4.2c-6.7,1.6-12.8,3.6-18.4,5.8l-0.6-4.5
		l3.4-0.4c6.3-0.8,10.7-5.5,13.1-13.9c2.8-8.3,4-19.3,3.8-33c0-13.8-0.8-29.4-2.6-46.8c-0.5-6.1-1.2-12.2-2-18.5
		c-2.2-17.3-5.7-40.1-10.3-68.4c-3.3-15.4-7.7-27.7-13.2-37c-5.5-9.2-13-13.8-22.4-13.6l-0.5-4.1c5.9,0.3,12.3,0.2,19.1-0.2
		c7.1-0.1,14.2-0.7,21.2-1.6l27-4.6c8.5-1.6,15.1-3,19.8-4.1l8.2-1.8l0.5,4.1c-5.7,1-10,4.7-12.7,11.2c-2.7,6.5-4.5,14.6-5.3,24.4
		c-0.5,9.8-0.5,20,0.1,30.6c2.3,21.9,3.8,36.7,4.5,44.2L1371.9,246.5z"/>
	<path d="M1433.5,141.7l18.9-1.7c9.1-0.9,17.5-1.7,25.3-2.5l15.4-2.7c4.7-0.9,8.4-1.9,11.1-3l0.5,4.1l-1.1,0.1
		c-6,0.8-10.9,4.3-14.7,10.7c-3.8,6.4-6.5,14.4-8,24c-1.7,8.6-2.5,18.6-2.3,29.8c0.2,11.2,0.7,22.4,1.6,33.5
		c-0.3,3.6,0.1,9.7,1.2,18.2c0.8,6,1.5,12.6,2.1,19.6c0.9,7.3,1.6,12.7,2.1,16.2l0.4,3c5.6-8.1,12.1-18,19.6-29.7
		c7.2-11.6,14.4-23.7,21.8-36.1c7.1-12.2,14.6-26.1,22.6-42c7.9-15.8,16.4-34.5,25.4-56.1c3.2,1.4,7.7,2.1,13.3,2.1
		c5.6-0.2,11.8-0.7,18.6-1.6c8.5-1.1,16.9-2.4,25.1-4l20.1-4.5l8.1-2.2l0.6,4.9c-7.5,1-13.3,4.9-17.3,11.8c-3.7,6.6-6.1,15.3-7,26.2
		c-1.2,10.9-1.3,22.6-0.4,35.3c0.7,11.7,2.1,24.2,4.1,37.8l0.9,7.2c1.5,13.6,3.6,27.2,6.4,40.9c3,13.7,7.7,24.9,13.9,33.8
		c6,8.9,14.7,14,26.1,15l0.6,4.9l-77.3,9.9l-0.6-4.9l-0.3,0.4c7.3-1.2,12.6-6.3,16-15.5c3.5-8.9,5.4-20.2,6-34.1
		c0.8-13.9,0.5-28.8-0.8-44.7c-1.1-14.2-2.7-28.6-4.8-43.4c-2-15.6-3.8-27.5-5.4-35.7c-0.3-4-0.5-7.1-0.8-9.1
		c-46.6,77-93.2,148.9-140.1,215.6l0.2-7.7l0.2-19.2c0-7.9-0.3-17.8-0.9-29.6c-0.6-11.8-1.4-21.1-2.2-27.9
		c-1.7-13.3-3.6-27.2-5.7-41.8c-1.4-7.2-3.7-17.8-6.8-31.7c-2.7-13.4-6.1-25.3-9.9-35.5c-3.7-11-8-19.7-12.9-25.9
		c-4.9-6.3-10.1-9.1-15.6-8.3l-0.4,0.1l-0.5-4.1L1433.5,141.7z"/>
</g>
<path d="M414.9,809.8c-6.1,16.2-16.1,30.1-30.1,41.7c-13.7,11.6-31.3,18.9-52.8,21.9l-14.2,1l-35.5,2.4c-14.2,1-28.8,2.4-43.7,4.3
	c-10.2,1.3-19.7,2.8-28.5,4.5c-8.8,1.7-16.4,3.5-22.9,5.4l-0.4-2.9c10.3-2.7,18-8.3,23.1-16.8c4.8-8.5,7.8-19,9.1-31.5
	c1.2-12.5,1.2-26.3-0.2-41.3c-1.1-15-2.7-30.4-5-46.1c-2.1-18.8-4.7-37.8-7.6-56.8c-3.2-18.7-7.1-35.8-11.6-51.2
	c-4.8-15.4-10.7-27.6-17.7-36.5c-7.3-8.9-16.4-12.8-27.2-11.7l-0.5-3.7c21.3-0.2,42.4-1.3,63.2-3.4c20.6-1.8,40.2-3.8,59-6.2
	c12.4-1.6,23.9-3.2,34.4-4.8c10.8-1.4,20.3-2.6,28.6-3.6l15.4,1.8c13.5,2.5,23.4,7.1,29.6,13.9c6,7.1,9.4,15.8,10.5,26.1
	c1.6,10.2,1,20.4-1.6,30.5c-2.6,10.2-8.6,19.9-17.8,29.2c-8.9,9.3-22.2,17.4-39.9,24.4c18.2-0.1,33.7,1.3,46.5,4.2
	c12.4,2.9,22.3,8.7,29.6,17.3c7.3,8.6,12,21.7,14.2,39.1C422.9,777.3,420.9,793.5,414.9,809.8z M359.6,742.6
	c-4.1-12.7-10.3-22.3-18.4-28.8c-7.9-6.6-18.8-9-32.9-7.2l-54.3,6.9c0.9,11.7,1.9,22.7,2.9,32.9c1,10.3,2.1,19.7,3.2,28.3
	c3.4,26.5,6.8,46.9,10.3,61.1c3.4,13.9,6.3,23.4,8.7,28.4c2.3,5,3.5,7.4,3.4,7.2l31.9-4.1c22.4-2.6,37.9-10.3,46.4-23.2
	c8.5-12.6,11.1-31.8,7.9-57.5C366.4,770,363.4,755.3,359.6,742.6z M326.2,596.4c-10.5-9.6-25.3-13.2-44.4-10.8l-35.2,4.5
	c0-0.3-0.4,0.3-1,1.8c-0.7,1.5-1.2,4.9-1.6,10.3c-0.7,5.4-0.7,14.1-0.1,26.1c0.6,11.7,2.3,28.1,5,49.1c0.6,4.7,1.2,9.8,1.9,15.3
	c0.7,5.3,1.5,10.9,2.6,16.9l25.7-3.3c18-2,32.3-4.5,42.9-7.5s17.7-8.7,21.4-17.1c4-8.1,5-20.6,2.8-37.4
	C343.4,621.8,336.7,605.8,326.2,596.4z"/>
<path d="M977.5,790.6l-8.4,0.2l-21.4,1c-8.9,0.6-18.6,1.5-29.1,2.9c-7.7,1-15.5,2.1-23.2,3.4c-8,1.6-15.3,3.5-22,5.7l0.3-1.3l0.5-3
	c4.1-0.8,6.9-2.1,8.3-4c1.7-1.9,2.4-4.4,2-7.4c-1-5.5-3.8-12.4-8.5-20.8c-4.4-8.1-9.5-16.5-15.4-25c-5.9-8.5-10.8-15.6-14.9-21.3
	l-31-44.9c-3.8,5.5-7.2,9.9-10.1,13.1l-7.5,7.7l0.1,3.8c0,2.5,0.3,5.7,0.8,9.6c3.3,25.7,5.8,42.2,7.6,49.6
	c1.5,7.1,3.6,14.3,6.5,21.5c2.9,7.2,6.5,13.2,10.7,18c4.2,4.5,9.3,6.6,15.1,6.1l2.5-0.3l0.5,3.7l-9.2,0.3l-22.7,0.8
	c-9.2,0.6-19,1.6-29.5,2.9c-8,1-15.7,2.3-23.1,3.8c-7.7,1.5-14.6,3.4-20.8,5.6l-0.5-3.7c10.9-5,18.2-15,21.9-29.8
	c3.5-14.8,4.5-33.9,3.3-57.3c-1.3-23.4-5.2-49-11.6-76.7c-6.5-27.7-13.4-47.1-20.7-58.3c-7-10.9-15-17.2-23.9-18.9l0-3.4
	c6.8,0.8,13.2,1.3,19.1,1.4c5.9,0.4,11.7,0.2,17.2-0.5c7.7-1,15.5-3,23.3-5.9c7.5-2.9,15.4-7,23.7-12.3l1.7,3.6
	c-3,0.7-4.9,6.9-5.6,18.8c-0.5,11.9,0.1,27.1,1.6,45.7c2.7,25.8,4.8,42.6,6.4,50.6c1.5,7.7,2.7,11.6,3.6,11.8
	c4.3-3.6,9.2-9.3,14.7-17c5.2-7.4,10.2-15.6,15-24.7c16.7-27.7,26.5-45.6,29.4-53.9c2.9-8.2,4-15,3.3-20.2c-0.2-3.6-2.2-7-5.9-10.2
	c-3.7-2.9-9.6-4.4-17.4-4.5l0.4-3.8c6.6,0.9,13.2,1.3,20,1.3c6.5,0,12.7-0.5,18.8-1.5c12.4-1.6,22.9-3.3,31.4-5.2l12.7-2.9l0.5,4.1
	c-11.3,1.4-21.1,5.6-29.2,12.6c-8.1,7.2-14.9,15.7-20.4,25.3c-5.5,9.7-16.6,29.8-33.2,60.3c0,0.3,6.2,9.7,18.6,28.4
	c12.3,18.7,22,33.4,29,44.4c7,11.2,15.3,22.1,24.8,32.7s20.1,19.2,31.9,25.9c11.8,6.9,24.4,9.8,37.8,8.7L977.5,790.6z"/>
<path d="M1175.8,685.7c-5.2,19.2-13,35.1-23.4,47.6c-10.8,12.6-23.3,20-37.7,22.1c-12.7,1.9-24-1.2-34-9.2
	c-10.2-7.7-19.6-20.7-28.1-39l0.7,8.8c0.4,5.6,1.2,13,2.4,22.4c1.5,11.9,3.6,25.2,6.4,40.1c2.7,14.5,6.2,28.7,10.5,42.5
	c4.3,13.8,9.4,25.1,15.3,33.9c5.9,9.1,12.8,13.7,20.7,13.8l0.4,2.9c-9.6-0.2-18.8,0-27.7,0.6l-26.2,2.5c-16.6,2.4-30,4.8-40.4,7.2
	l-16.4,3.8l-0.4-2.9c8-3.5,13.5-11.7,16.7-24.5c3.1-13,4.5-28.9,4.1-47.7c-0.4-18.5-1.7-38.4-3.8-59.8c-2.4-21-4.9-41.7-7.4-61.8
	c-2.5-19.6-5.1-38.8-7.7-57.6c-2.9-18.5-6.2-35.2-9.7-50.2c-3.9-15-8.5-26.7-13.8-35.3c-5.3-8.3-11.7-12.1-19.2-11.5l-1.7,0.2
	l-1.6,0.6l-0.5-3.7l10.1,0c6.7-0.3,14.6-0.9,23.8-1.8c9.1-1.2,18-3.1,26.6-5.9c8.6-2.8,15.3-6.9,19.9-12.2c0.3,18.2,0.7,36.4,1,54.7
	c4-19.6,9.6-33.9,16.9-43c7.3-9.1,17.1-14.4,29.6-16c15-1.6,29.3,2.8,43,13.1c13.9,10,25.8,24.1,35.7,42.2
	c9.9,18.4,16.5,38.9,19.6,61.6C1181.8,646.1,1180.6,666.6,1175.8,685.7z M1107.7,544.8c-10.1-17.5-21.5-25.6-34.3-24.3
	c-9.4,1.2-16.8,7.1-22.2,17.6c-5.4,10.2-8.8,23.9-10,40.9c-1.5,17-0.9,36.3,1.9,57.9c3,21.3,7.6,40.1,13.9,56.4
	c6.3,16.3,13.5,29,21.7,38.1c8.4,9,17.1,13,26,11.9c13.9-1.5,22.7-11.7,26.4-30.8c4-19.3,3.3-49.2-2.1-89.5
	C1124.7,588.4,1117.5,562.4,1107.7,544.8z"/>
<path d="M1289.3,809.6c4.3-1.7,7.3-4,9.2-7.1c1.9-3,2.6-6.1,2.2-9.1c-0.5-4.2-2.4-7.6-5.5-10.3c-3.2-2.7-7.2-3.7-12.2-3.1
	c-3.9,0.5-7.1,2.7-9.7,6.7c-2.6,4-4.4,8.4-5.5,13.3c-1.1,4.9-1.4,9.2-0.9,12.8c0.7,5.8,2.9,11.4,6.4,16.9c3.2,5.2,7.5,9.4,13,12.7
	c5.2,3,11.1,4.2,17.7,3.6c4.9-0.9,9.8-5.5,14.7-13.7c4.5-8.4,8.6-19.8,12.1-34c3.3-14.2,5.5-30.5,6.9-48.9l-4.5-12.1
	c-3-8.3-7.3-19-12.9-32.1c-5.6-13.3-12.3-27.9-19.9-43.8c-7.9-15.9-16.4-31.6-25.4-47.3c-9.3-15.9-19-30.5-29.1-43.5
	c-10.4-13-20.8-23.3-31.3-31c-10.8-7.9-21.7-11.7-32.6-11.4l-0.6-4.6l7.2-0.1l18-0.6c7-0.1,14.6-0.3,22.7-0.8l21.7-1.9
	c3-0.4,6.6-1.3,10.6-2.6c4.3-1.1,8.3-2.3,11.8-3.6c3.7-1.6,6.1-2.6,7.2-3c0,0.3,1.5,4.3,4.5,12.1c3,7.8,6.9,17.8,11.8,30.1
	c4.9,12.3,10.5,25.2,16.7,38.7c6.2,13.8,12.8,26.8,19.7,38.8c6.9,12.3,13.8,22.3,20.6,29.8l2.9-10.1c1.7-6.7,3.6-15.2,5.6-25.6
	s3.6-21.5,4.6-33.5c1-11.9,0.8-23.4-0.6-34.5c-0.8-6.4-3.6-12.7-8.3-19.2c-4.8-6.7-10.2-12-16.4-16c-6.4-4.2-12.6-6.1-18.4-5.7
	l-2.4,0.7l-2.9,0.4l-0.7-5.8c15.9-0.6,30.5-0.8,43.8-0.5c13.3,0.6,23.4,0.5,30.3-0.1l10.7-1.8c3.8-1,7.9-2.3,12.2-3.7l0.6,5
	c-10.6,9.8-19.1,23.1-25.7,39.9c-6.3,16.8-11.5,35.7-15.5,56.8c-3.8,21-7.1,42.8-9.8,65.3c-2.8,22.5-5.6,44.5-8.5,66
	c-2.6,21.4-6.2,40.8-10.7,58.2c-4.3,17.4-10,31.6-17.3,42.7c-7.3,10.8-16.7,17-28,18.7c-11.1,1.4-21,0.1-30-3.8
	c-8.9-3.9-16.2-9.5-21.9-16.6c-5.7-7.1-9.2-15.3-10.7-24.3c-0.5-5.8,0.9-11.8,4.1-17.8c3.2-6,7.7-11.4,13.6-16
	c5.9-4.4,12.6-7.2,20-8.4c10.3-1,18.7,0.4,25.4,4.4c6.7,4.2,10.6,9.6,11.8,16.2c0.5,3.9-0.5,7.9-3.1,12.2c-2.3,4.2-6.3,8.2-12,12.1
	L1289.3,809.6z"/>
<path d="M1531.2,448.5l-38.9,5.4l2.3,18.2l3.3,36.2c0,4.2,0.1,8.6,0.4,13c1.1,13.1,2.4,25.7,4,37.8c1.9,14.9,4.1,31.1,6.6,48.5
	c2.8,17.4,6.3,34.5,10.7,51.3c4.4,16.9,9.8,32.2,16.4,46c6.8,13.5,15,23.8,24.6,31l0.4,2.9l-13.4,0.4c-9,0.3-21.3,1.3-37.1,3
	c-7.7,1-16.4,2.4-26,4.2l-30,5.9l-0.8-2.9c6.5-6.2,11.1-15.6,13.7-28.3c2.9-12.7,4.3-27.1,4.2-43.1c0.2-15.8-0.4-31.8-1.9-48.2
	c-1.5-16.4-3.2-31.6-5-45.7c-1.8-14.1-3.9-28.4-6.3-43c-2.4-14.6-5.6-28.2-9.4-40.9c-3.6-12.5-8.1-22.6-13.5-30.3
	c-5.2-7.8-11.5-11.7-18.8-11.9l-0.7-5.8c8.7,0,16.7-0.3,23.9-0.9l19.2-1.6l69.6-9.3l36.1-4.6c12.7-1.9,24.1-3.6,34.3-5.2l30-5.9
	c-0.6,4-0.9,9.8-0.7,17.4c0.1,7.6,0.8,16.3,2.1,26.3c1.2,9.4,2.7,19.2,4.6,29.3c1.7,9.1,3.5,17.4,5.3,25c2.1,7.6,4.2,14.1,6.3,19.4
	l-4.6,0.2c-6.1-10.2-12.1-21.1-18.1-32.7c-6-11.6-12.1-22.6-18.5-33c-6.3-10.1-13.1-18.3-20.4-24.4c-7.5-6.3-15.9-8.9-25-7.8
	L1531.2,448.5z"/>
</svg>
