<?xml version="1.0" encoding="utf-8"?>
<!-- Generator: Adobe Illustrator 26.2.1, SVG Export Plug-In . SVG Version: 6.00 Build 0)  -->
<svg version="1.1" id="Layer_1" xmlns="http://www.w3.org/2000/svg" xmlns:xlink="http://www.w3.org/1999/xlink" x="0px" y="0px"
	 viewBox="0 0 1695.7 945.7" style="enable-background:new 0 0 1695.7 945.7;" xml:space="preserve">
<style type="text/css">
	.st0{fill:#533F8B;}
	.st1{fill:#5D9A83;}
	.st2{fill:#EA803C;}
	.st3{fill:#4178B3;}
	.st4{fill:#F27A84;}
	.st5{fill:#EE2A74;}
</style>
<g>
	<g>
		<path class="st0" d="M743.9,318.8c-1.3-2.6-2.6-5.2-3.7-7.9c-11.4-27.2-11.6-57.2-0.4-84.6c11.2-27.3,32.3-48.7,59.5-60.1
			l11.8,28.1c-19.7,8.3-35,23.7-43.1,43.5c-8.1,19.8-8,41.6,0.3,61.3c8.3,19.7,23.8,35,43.5,43.1c19.8,8.1,41.6,8,61.3-0.3
			l11.8,28.1c-27.2,11.4-57.2,11.6-84.6,0.4C775.6,360.3,755.9,342.2,743.9,318.8z"/>
	</g>
	<g>
		<path class="st1" d="M841.3,367.6c19.8,1.2,38.9-5.4,53.8-18.6c14.9-13.2,23.7-31.3,24.9-51.1l28.2,1.7
			c-1.7,27.3-13.9,52.4-34.4,70.6c-18.5,16.4-41.7,25.4-66.1,25.8c-2.7,0-5.4,0-8.1-0.2L841.3,367.6z"/>
	</g>
	<path class="st2" d="M764,283.5c-12-41.7,12.1-85.2,53.8-97.3S903,198.3,915,240L764,283.5z"/>
</g>
<g>
	<path d="M214.6,450.9c9-1.5,17.7-5.9,26.2-13.2c9.5-8,17.6-19.1,24.3-33.2c6.5-14.2,10.6-30.9,12.1-50.2l5.6-0.1
		c-0.3,3.5-0.6,7.4-0.6,11.5c0.1,4.1,0.4,8.4,0.7,13c0.8,10.3,2.1,20.4,4,30.4c1.8,10,3.4,18.2,4.7,24.7c1.6,6.7,2.4,10.1,2.4,10.4
		l-5.2,0.4c-2.2-4.6-4.6-7.8-7.3-9.7c-2.6-1.7-5.5-2.4-8.5-2.1c-5.3,0.6-11,2.7-17.2,6.3c-6.1,3.6-12.9,7.2-20.2,10.9
		c-6.3,3.4-13.2,5.8-20.5,7.2c-0.6,0.3-1.3,0.4-2.1,0.5l-6.5,0.5c-20.8,1.2-39-2.1-54.7-9.9c-16.1-7.8-28.9-19.4-38.4-34.8
		c-9.7-15.1-15.3-33.1-17-53.8l-0.1-1.5c-1.6-25.7,1.4-47.7,9-66.1c7.4-18.4,18.4-32.9,32.8-43.5c14.7-10.5,31.6-16.9,50.9-19.2
		l1.5-0.1c7.2-0.4,14.2,0.6,21,3c6.6,2.4,12.8,4.8,18.5,7.2c6,2.4,11.5,3.6,16.7,3.6c3.3-0.3,6.5-1.5,9.6-3.9
		c2.9-2.3,5.7-6,8.4-11.2l4.6-0.7c-3.9,10.6-6.7,20.7-8.5,30.1c-1.5,9.6-2.7,18.5-3.5,26.6c-0.6,8.1-1.5,15.4-2.6,21.9
		c-1.1,6.5-3.1,11.9-5.8,16.3c-2,3.1-4.5,5.3-7.5,6.8c-2.8,1.5-5.8,2.3-9.1,2.6c-4.3,0.3-8.4-0.3-12.2-1.8c-4-1.3-7.3-3.3-9.8-6
		c-2.7-2.7-4.3-5.7-4.7-8.9c-0.2-2.7,0.7-5.4,2.8-8.3c2.1-2.6,5.4-5.2,9.9-7.6l0,0.3c0.3,0.8,0.7,2,1.2,3.6c0.5,1.6,0.9,2.3,1.1,2.1
		c-2.6,0.8-4.4,2-5.3,3.5c-0.9,1.5-1.3,3.2-1.2,5c0.4,3.1,2.1,5.8,5,8.3c3.1,2.7,6.8,3.9,11.1,3.8c6.3-0.7,10.9-3.7,13.6-8.8
		c2.7-5.4,3.7-11.9,3.1-19.5c-0.6-7-2.4-14.2-5.4-21.6c-2.8-7.2-6.8-14-11.8-20.4c-5.3-6.4-11.4-11.4-18.5-15
		c-6.9-3.8-14.9-5.3-23.9-4.6c-8.4,0.7-15.6,4.5-21.4,11.6c-6.1,6.9-10.8,16-14.3,27.5c-3.5,11.2-5.8,23.6-7,37.1
		c-1,13.7-0.9,27.7,0.2,41.8c1.9,23.4,6,42.4,12.6,57c6.5,14.8,14.5,25.5,23.9,32.2c8.3,6,17.1,8.9,26.4,8.8L214.6,450.9z"/>
	<path d="M392.2,245.3c-3,5.6-5.2,12.4-6.6,20.4c-1.2,8.2-1.9,16.4-2.1,24.7c-0.7,4.4-0.9,9.7-0.6,15.9l1.5,31.2
		c0.2,4.5,0.4,9.4,0.8,14.5c0.6,8,1.7,16.8,3.3,26.4c1.6,9.4,3.7,18.4,6.5,27.1c3,8.7,6.7,15.7,11.3,21.1c4.6,5.4,10.3,8.2,17.1,8.3
		l0.2,2.2l-8.4-0.3l-21.4-0.5c-8.7,0.1-18.2,0.5-28.7,1.3c-7.6,0.6-15.2,1.5-22.7,2.7c-7.8,1.2-15,2.8-21.6,4.8l-0.2-2.2
		c8.2-0.9,14.5-4.9,18.9-12c4.4-7.4,7.3-16.8,8.9-28.3c1.6-11.5,2.2-24,2-37.7c-0.3-13.6-0.9-27.3-2-41.1
		c-1.1-16.6-2.8-31.6-5.1-44.8c-2.3-13.2-6.2-23.5-11.7-30.7c-5.8-7.4-14.3-10.6-25.6-9.8l-1.5,0.1l-0.2-2.8l7.2,0.4l19.6,0.3
		l27.5-1.2l23.6-2.8c8.2-1.3,25-3.2,50.4-5.8c11.1-0.9,21.3-1.5,30.5-1.8c9.5-0.3,18.2-0.8,26.2-1.5c15.6-1.4,27.7-2.9,36.2-4.4
		c8.3-1.7,12.6-2.5,12.8-2.6l0.2,2.5c-5.3,0.6-9.9,4.3-13.7,11c-3.6,6.9-6.5,15.8-8.7,26.7c-2.2,10.9-3.6,23-3.9,36.3
		c-0.6,13.3-0.4,26.8,0.7,40.5c1.2,15.6,3.4,30.3,6.6,44.1c3.4,13.8,8,25.5,13.9,35.2c5.7,9.5,13,15.4,21.9,17.8l0.2,2.2l-13.7-0.2
		c-9.1,0.1-21.4,0.8-37,2c-8,0.6-16.6,1.5-25.8,2.7c-9.2,0.9-19,2.2-29.4,3.9l-0.2-2.2l2.5-0.2c6.1-0.7,10.9-4.1,14.4-10.1
		c3.4-6.1,5.7-13.7,6.9-22.9c1.3-9.2,2-18.7,2.1-28.4c-0.1-9.7-0.8-24.4-2.1-44c-1.2-19.6-2.2-33.5-2.8-41.5
		c-0.3-3.3-1.1-8.8-2.5-16.5c-1.4-7.5-3.4-14.6-6-21.2c-2.6-6.6-6-11.9-10.2-15.9c-4.2-4-14.2-5.6-29.8-4.8
		C404.9,235.7,395.1,239.7,392.2,245.3z"/>
	<path d="M565.1,427.5c0.4,0.2,0.8,0.2,1.3,0.2l1.2-0.1c5.1-0.6,10.2-5,15.4-13.3c5.1-8.5,10.1-19.5,15-33.1
		c5.1-13.4,10-28.2,14.5-44.2c4.7-16.3,9-32.4,12.9-48.4c3.9-16,7.3-30.7,10.1-44.2c2.9-13.2,5.1-24,6.8-32.2
		c1.6-8,2.5-12.1,2.4-12.3c0.6,0.2,1.2,0.2,1.6,0.2l1.6,0.2c1.4-0.3,2.7-0.8,3.9-1.5c1.2-0.9,2.1-2,2.8-3.3
		c5,10.6,10.4,23.1,16.3,37.8c5.7,14.6,11.9,30.1,18.5,46.3c6.7,16.4,13.5,32.5,20.6,48.3c7.2,15.8,14.6,29.9,22,42.6
		c7.6,12.6,15.2,22.7,22.8,30.1c7.6,7.3,15.2,10.7,22.8,10.3l0.9-0.1l0.3,4.3c0-0.2-4.3-0.8-12.8-1.8c-8.5-0.8-20.1-0.7-34.7,0.3
		c-7.4,0.6-15.3,1.6-23.6,3.1c-8.4,1.5-17.2,3.5-26.5,6.1l-0.3-4.3c0.6,0.2,1.3,0.2,1.9,0.2l1.8-0.1c6-0.5,10.1-2.7,12.5-6.6
		c2.4-4.1,3.2-9.4,2.5-16c-0.7-8.6-3.1-18.7-7.3-30.1c-4-11.7-9.1-23.9-15.3-36.6c-6-13-12.2-25.8-18.5-38.5
		c-6.4-12.5-12.1-24.2-17.4-35.2l-2.9,10.1c-1.7,6.8-3.9,15.6-6.6,26.6c-2.7,10.8-5.2,22.5-7.7,35.3c-2.5,12.8-4.4,25.4-5.7,37.6
		c-1.3,12.3-1.7,23.2-1.1,32.6c0.6,8,2.3,14.2,4.9,18.5c2.4,4.6,6.2,6.6,11.3,6.2l1.2-0.1l1.2-0.4l0.3,4.3
		c-7.1-1.1-13.9-1.7-20.3-1.8c-6.4-0.1-12.2,0-17.3,0.4c-10.7,1-18.8,2.4-24.5,4.1c-5.7,1.7-8.5,2.6-8.5,2.8L565.1,427.5z"/>
	<path d="M1121.4,253.9c-2.8-17.3-7.2-31.4-13.2-42c-6-10.7-13.9-19.1-23.7-25.4c-9.6-6.3-21.5-11.5-35.7-15.8
		c-0.9,4.2-1.6,14.2-2,29.9c-0.4,15.7,0.3,36.3,2.1,61.8c1,13.1,2.5,26.9,4.5,41.2c1.8,14.3,4.1,28,7,41c2.9,12.8,6.3,23.8,10.4,33
		c3.8,9.2,8.3,15.3,13.5,18.1c-0.2-0.2-3.8-0.7-10.7-1.6c-7.1-0.9-16.8-0.9-29.2-0.2c-6.2,0.5-12.9,1.3-20.3,2.5
		c-7.3,1.4-15.1,3.4-23.4,5.9c4.5-6.1,7.8-14.9,10-26.2c2.4-11.1,3.9-23.8,4.4-37.9c0.7-14.1,0.8-28.5,0.3-43.1
		c-0.5-14.6-1.3-28.6-2.4-42c-1.1-13.3-2.2-24.9-3.4-34.8c-1.2-9.8-2.4-18.5-3.6-26.1l-2.8-20.2c-10.5,5.8-19.5,11.5-27.2,17
		c-7.4,5.5-13.6,11.6-18.7,18.2c-5,6.8-8.9,14.8-11.4,23.8c-2.4,9.1-3.7,20-3.9,32.9c-0.2-4.9-0.6-11.2-1.2-18.8
		c-0.4-7.6-1-15.9-1.7-25l-2.1-26.8l-1.6-24.4c9.8,0.7,21.3,0.8,34.7,0.3c13.4-0.6,27.5-1.6,42.2-2.7c12.7-1,25-2.1,36.9-3.2
		c12.1-1.2,23-2.3,32.6-3.5l23-2.8l8.6-1.3c0.4,5.3,1.4,15.9,2.8,31.7c1.5,15.8,3.9,37.7,7.4,65.7L1121.4,253.9z"/>
	<path d="M1380.4,358.6l-13.7-0.2c-9.1,0.1-21.4,0.8-37,2c-8,0.6-16.6,1.5-25.8,2.7c-9.2,0.9-19,2.2-29.4,3.9l-0.2-2.2l2.5-0.2
		c6.1-0.7,10.9-4.1,14.4-10.1c3.4-6.1,5.7-13.7,6.9-22.9c1.3-9.2,2-18.7,2.1-28.4c-0.1-9.7-0.5-18.7-1.2-26.9
		c-0.6-7.2-1.2-13.3-1.8-18.5l-1-8.3l-86.6,6.9l0,4.3l0.6,11.1c0.2,4.5,0.4,9.4,0.8,14.5c0.6,8,1.7,16.8,3.3,26.4
		c1.6,9.4,3.7,18.4,6.5,27.1c3,8.7,6.7,15.7,11.3,21.1c4.6,5.4,10.3,8.2,17.1,8.3l0.2,2.2l-8.4-0.3l-21.4-0.5
		c-8.7,0.1-18.2,0.5-28.7,1.3c-7.6,0.6-15.2,1.5-22.7,2.7c-7.8,1.2-15,2.8-21.6,4.8l-0.2-2.2c8.2-0.9,14.5-4.9,18.9-12
		c4.4-7.4,7.3-16.8,8.9-28.3c1.6-11.5,2.2-24,2-37.7c-0.3-13.6-0.9-27.3-2-41.1c-1.1-16.6-2.8-31.6-5.1-44.8
		c-2.3-13.2-6.2-23.5-11.7-30.7c-5.8-7.4-14.3-10.6-25.6-9.8l-1.5,0.1l-0.2-2.8l7.2,0.4l19.6,0.3l27.5-1.2l23.6-2.8
		c8.2-1.3,16.4-2.8,24.7-4.7l0.2,2.8c-0.6-0.2-1.2-0.2-1.6-0.2c-0.2-0.2-0.6-0.2-1.2,0.1c-5.3,0.4-9.4,3.4-12.3,9
		c-3.1,5.6-5.3,12.4-6.8,20.4c-1.2,8.2-1.9,16.4-2.1,24.7c-0.4,8.3-0.4,15.5-0.1,21.7c0.3,6.2,0.5,10.1,0.6,11.7l0,0.6
		c28.9-3.1,57.7-6.1,86.4-9c0-0.2,0-2.6,0.1-7.1c0.2-4.8,0-11.2-0.6-19.2c-0.6-7.2-1.6-14.6-3-22.4c-1.4-7.5-3.4-14.6-6-21.2
		c-2.6-6.6-6-11.9-10.2-15.9c-4.2-4-9.4-5.8-15.6-5.3l-2.8,0.2l-0.2-2.5c11.2,0.4,21.4,0.4,30.7,0.1c9.5-0.3,18.2-0.8,26.2-1.5
		c15.6-1.4,27.7-2.9,36.2-4.4c8.3-1.7,12.6-2.5,12.8-2.6l0.2,2.5c-5.3,0.6-9.9,4.3-13.7,11c-3.6,6.9-6.5,15.8-8.7,26.7
		c-2.2,10.9-3.6,23-3.9,36.3c-0.6,13.3-0.4,26.8,0.7,40.5c1.2,15.6,3.4,30.3,6.6,44.1c3.4,13.8,8,25.5,13.9,35.2
		c5.7,9.5,13,15.4,21.9,17.8L1380.4,358.6z"/>
	<path d="M1379.4,125.9l18.2-0.5c7.4-0.4,14.9-0.8,22.5-1.2l15-1.8c4.7-0.6,8.4-1.4,11-2.4l0.2,2.8l-1.2,0.1
		c-6,0.5-10.9,3.8-14.7,9.8c-3.9,6.1-6.7,14-8.7,23.6c-2.1,9.5-3.6,19.8-4.4,31c-0.8,11.2-1,22.3-0.8,33.2
		c0.2,10.9,0.7,20.7,1.4,29.3c0.5,6,0.9,12.5,1.3,19.7c0.6,7.2,1.1,13.4,1.5,18.5l0.7,8.3c7.8-13.2,15.5-25.4,23.1-36.5
		c7.6-11.3,15.1-23,22.6-35c7.5-11.8,15.5-25.3,23.8-40.6c8.5-15.3,17.6-33.5,27.3-54.5c3,1.6,7.2,2.5,12.6,2.7
		c5.6,0.2,11.7,0,18.2-0.5c8.2-0.6,16.3-1.6,24.3-2.9l19.9-3.4l7.9-1.6l0.2,2.5c-7.4,0.8-13.1,4.4-17.1,11c-4,6.5-6.8,15.1-8.2,25.8
		c-1.4,10.7-2.1,22.4-1.9,35.2c0.2,13,0.9,26.3,2.2,39.8l0.6,7.4c1,15,2.5,29.4,4.6,43c2.3,13.9,6.3,25.3,12,34.4
		c5.5,9.3,13.7,14.7,24.5,16.3l0.2,2.8l-74.2,5.9l-0.2-2.8l2.5,0.1c7-0.8,12.3-5.5,15.9-14.3c3.8-8.8,6.4-20,7.6-33.8
		c1.2-13.7,1.6-28.5,1.1-44.4c-0.4-15.7-1.3-31-2.7-46c-1.2-15.6-2.5-27.5-3.8-35.7c-1.3-8.2-2-12.2-2.2-12.2
		c-49.7,76.5-99.4,153-148.9,229.7l0.3-7.5l1.3-19.3c0.4-7.9,0.9-16.4,1.4-25.5c0.3-9.1,0.5-18.1,0.7-27c-0.1-8.9-0.4-16.7-0.9-23.5
		c-0.9-13.4-2.1-27.3-3.6-41.9c-1.6-14.5-3.5-28.8-5.9-42.6c-2.1-13.7-4.9-26.2-8.2-37.5c-3.2-11.1-6.8-19.9-11.1-26.4
		c-4.4-6.5-9.4-9.5-15-9l-0.3,0l-0.2-2.8L1379.4,125.9z"/>
</g>
<g>
	<g>
		<circle class="st1" cx="587.3" cy="555.8" r="13.7"/>
	</g>
	<g>
		<circle class="st1" cx="627.4" cy="587.7" r="13.7"/>
	</g>
	<g>
		<circle class="st1" cx="650.5" cy="635.6" r="12.5"/>
	</g>
	<g>
		<circle class="st1" cx="656.9" cy="685.1" r="12.5"/>
	</g>
	<g>
		<circle class="st1" cx="645.2" cy="734.2" r="12.5"/>
	</g>
	<g>
		<path class="st3" d="M558.3,800.2c-60.5,15.6-122.1-20.8-137.7-81.2c-15.6-60.5,20.8-122.1,81.2-137.7L558.3,800.2z"/>
	</g>
	<g>
		<path class="st4" d="M487.6,564.1c60.5-15.6,122.1,20.8,137.7,81.2c15.6,60.4-20.8,122.1-81.2,137.7L487.6,564.1z"/>
	</g>
	<g>
		<g>
			<polygon class="st5" points="449,555.9 399.8,639.4 466.1,622.3 			"/>
		</g>
	</g>
	<path d="M405.6,772.8c-6.4,14.6-16.4,26.8-29.8,36.8c-13.2,9.9-29.7,15.7-49.6,17.4l-13.1,0.1l-32.7,0.4
		c-13.1,0.1-26.5,0.7-40.3,1.7c-9.5,0.7-18.3,1.5-26.4,2.6c-8.1,1.1-15.2,2.4-21.3,3.8l-0.2-2.7c9.6-2,17-6.7,22.1-14.3
		c4.9-7.5,8.2-17,9.9-28.4c1.8-11.4,2.4-24.1,2-37.9c-0.2-13.9-1-28.1-2.2-42.6c-1-17.4-2.3-34.9-4.1-52.5c-2-17.3-4.6-33.2-8-47.6
		c-3.6-14.4-8.4-25.9-14.4-34.4c-6.3-8.5-14.4-12.6-24.4-12.2l-0.2-3.5c19.6,0.9,39,1,58.2,0.1c19-0.6,37.1-1.5,54.5-2.7
		c11.5-0.8,22.1-1.7,31.8-2.6c10-0.7,18.8-1.3,26.4-1.9l14,2.5c12.3,3,21.1,7.8,26.4,14.3c5.1,6.8,7.9,15,8.3,24.5
		c0.9,9.4-0.1,18.8-3,27.9c-3,9.2-8.9,17.8-17.8,25.9c-8.7,8.1-21.3,14.9-37.9,20.4c16.8,0.9,30.9,3,42.4,6.3
		c11.3,3.3,20,9.1,26.3,17.4c6.2,8.3,9.9,20.5,11,36.6C414.7,743.4,412,758.3,405.6,772.8z M335.3,572.5
		c-9.1-9.4-22.5-13.4-40.1-12.2l-32.6,2.3c0-0.3-0.4,0.3-1,1.6c-0.7,1.3-1.4,4.5-2,9.4c-0.9,4.9-1.4,12.9-1.4,24
		c0,10.8,0.7,25.9,2,45.3c0.3,4.3,0.6,9.1,1,14.2c0.3,4.9,0.8,10.1,1.5,15.7l23.8-1.7c16.6-0.9,29.9-2.5,39.7-4.7
		s16.7-7.1,20.5-14.5c4.1-7.2,5.6-18.6,4.5-34.2C349.7,596.6,344.4,581.6,335.3,572.5z M358.3,708.4c-3.1-11.8-8.3-21-15.4-27.4
		c-6.9-6.4-16.8-9.2-29.9-8.3l-50.2,3.5c0.2,10.8,0.6,20.9,1,30.4c0.4,9.5,0.9,18.2,1.5,26.1c1.7,24.5,3.8,43.4,6.3,56.6
		c2.5,12.9,4.6,21.8,6.5,26.5c1.9,4.7,2.8,7,2.8,6.7l29.5-2.1c20.7-1.2,35.3-7.5,43.7-18.9c8.5-11.1,11.9-28.6,10.2-52.3
		C363.2,733.8,361.2,720.2,358.3,708.4z"/>
	<path d="M895.1,716.5c2.4,5.5,4.9,9.5,7.4,12.2c2.3,2.9,3.5,4.4,3.8,4.4l-0.9,3.5c-0.5,0.3-2.4-1.1-5.7-4.2
		c-3.6-3.3-7.6-7.7-12.1-13c-4.5-5.3-8.5-11.1-12-17.3c-3.8-6.2-5.9-12.2-6.3-18c-0.7-6.4,1.5-11.8,6.6-16.3
		c5.3-4.5,14.8-7.2,28.3-8.2c10.7-0.8,19.7,1.3,27,6.2c7.3,4.6,12.9,11.2,16.8,19.6c4.2,8.4,6.6,17.8,7.4,28
		c0.7,10.2-0.2,20.4-2.9,30.6c-2.3,10.4-6.3,20.1-11.8,29c-5.5,9.1-12.4,16.5-20.8,22.3c-8.6,5.7-18.6,9-30.1,9.8
		c-14.3,1-25.4-1.4-33.3-7.3c-8.1-5.9-14.2-14-18.3-24.5c-4.1-10.5-7.7-22.2-10.9-35.1c-3.2-12.9-7.2-25.8-12-38.8
		c-4.8-13-11.7-25.1-20.7-36.3l-13.1,11.3l-6.6,5.1c-1.5,1.1-2.9,2.1-4.4,3c-0.2,0.3-0.3,2.9-0.2,7.7c0.1,5.1,0.3,11.7,0.6,19.6
		c0.6,8.2,1.7,17.1,3.4,26.7c1.4,9.7,3.8,19,7,28c3.2,8.8,7.3,15.9,12.3,21.5c5.3,5.8,11.8,8.4,19.4,7.9l1.9-0.1l0.1,1.5l-9.3-0.1
		c-5.7-0.4-13.5-0.5-23.5-0.3c-10-0.1-21,0.3-33,1.2c-9.2,0.6-18.5,1.6-27.9,2.7c-9.4,1.2-18.8,2.9-28.1,5.1l-0.2-2.3
		c9.3-2.4,16.3-7.9,20.8-16.5c4.8-8.8,7.7-19.5,8.9-32.2c1.4-12.7,1.9-26.5,1.3-41.3c-0.5-14.9-1.3-29.8-2.4-44.9
		c-1.2-16.9-2.9-33.6-5.1-50.1c-1.9-16.6-4.8-31.5-8.5-44.9c-3.5-13.6-8-24.3-13.4-32.2c-5.4-7.8-12.2-11.5-20.4-10.9l-1.2,0.1
		l-0.2-3.4l14.3,0.5c9.5,0.4,23.2,0,41.1-1c8.7-0.6,18.4-1.5,29.1-2.8c10.7-1.3,22.4-3,35.1-5.2l0.2,3.4l-3.5,0.2
		c-7.2,0.5-12.7,4.1-16.6,10.8c-3.9,6.4-6.5,14.8-7.9,25.2c-1.3,10.4-1.8,21.4-1.5,33.2c0.1,12.1,0.5,24,1.4,35.7
		c0.9,8.7,1.7,16.7,2.5,24.1l1.6,17.2c0.6,4.3,1,6.6,1.3,6.8c7.6-4.9,13.8-9.7,18.6-14.4c4.8-4.7,9.1-9.9,12.8-15.5
		c4-5.7,8-12.2,12.1-19.7l6.9-11.3c3.5-5.4,7.1-11.8,11-19.3c3.6-7.2,6.7-14.8,9.2-23c2.5-7.9,3.7-15.4,3.4-22.6
		c-0.4-5.6-2.5-10.1-6.3-13.4c-3.8-3.3-10-4.8-18.4-4.5l-0.2-3.1c0.3,0.2,5,0.4,14.3,0.5c9.3,0.4,21.8,0,37.7-1.1
		c7.9-0.6,16.5-1.4,25.6-2.6l28.6-4.3l0.2,3.1c-17.7,7.4-32.6,16.2-44.8,26.3c-11.9,10.1-22,20.8-30.5,32.2
		c-8.2,11.6-15.8,23.5-22.9,35.5c-6.9,12-14.1,23.7-21.8,35c12.5,2,22.4,6.8,29.9,14.5c7.5,7.4,13.2,16.5,17.3,27.3
		c4.4,11,7.7,22.2,10.1,33.6c2.6,11.6,5.3,22.4,8,32.2c2.8,10.1,6.4,18,10.9,23.9c4.5,6.1,10.9,9,19.1,8.7l2.3-0.5l2.3-0.2
		c4.3-1.1,7.6-4.6,10-10.7c2.4-5.8,4.2-13.1,5.4-22c1.4-8.6,2.4-17.4,2.8-26.4c0.4-9,0.5-17.1,0.2-24.3c0-6.9-0.1-11.7-0.2-14.2
		c-0.3-7.4-1.4-13-3.5-16.7c-1.8-3.7-5.8-5.6-12-5.7l-1.9,0.1c-6.4,0.7-10.8,3.6-13.3,8.6c-2.5,5.1-3.4,10.8-2.6,17.1
		C890.8,704.7,892.4,711.3,895.1,716.5z"/>
	<path d="M1134.9,597.9c0.3,9.2-0.4,19.4-1.9,30.6c-1.6,11.2-4.1,21.7-7.7,31.6c-3.5,10.1-8.1,17.9-13.6,23.4
		c-4.2,4-8.4,7.2-12.7,9.4c-4.3,2-9.3,3.5-15,4.6c-5.6,1.1-12.4,2-20.4,2.9l-20.4,2.1l0.2,3.4c0.2,3.6,0.7,9.4,1.6,17.6
		c0.8,8.4,2.1,17.1,4.1,26.2c1.8,9.3,4.5,17.1,8,23.4c3.6,6.3,8.1,9.3,13.3,9l2.1-0.2c0.7-0.1,1.4-0.3,2.1-0.6l0.2,3.8
		c-0.2,0-2.3-0.1-6.3-0.5c-4-0.1-9.6,0-16.6,0.2l-24.1,1.3l-21.4,3c-7.5,1.5-15,3.3-22.6,5.4l-0.4-2.3c5.5-2.4,9.7-6.9,12.8-13.6
		c3.2-7,5.4-15.4,6.7-25.3c1.5-9.6,2.2-19.9,2.2-30.7c0.2-10.8,0-21.3-0.5-31.5l-3.1-65.5c-0.7-15.1-1.6-29.7-2.6-44
		c-1-14-2.5-26.7-4.5-38.1c-2-11.4-4.7-20.2-8.4-26.5c-3.6-6.6-8.4-9.5-14.4-8.9l-1.8,0.2l-0.2-3.8c8.8,0.4,16.8,0.5,23.9,0.2
		c7.2-0.2,13.4-0.6,18.6-1.1c10.8-1.4,18.5-2.8,23.2-4.3c4.8-1.3,7.2-2,7-2.3c27.7-2.9,49.6,3.7,65.6,19.8c16,16.1,25,42,26.9,77.7
		L1134.9,597.9z M1089.3,551.3c-4.2-14.2-10.7-25.3-19.5-33.4c-8.8-7.8-20.8-11.7-36.1-11.7l9.1,190.5l12.3-1.3l14.6-2.3
		c3.6-0.9,6.6-2.1,9-3.6c2.6-1.5,5-3.6,7.3-6.1c3.3-3.7,5.8-9.8,7.5-18.5c1.7-8.4,2.7-18.1,3.1-29.2c0.5-11.3,0.4-22.8-0.3-34.2
		C1095.7,582.5,1093.3,565.8,1089.3,551.3z"/>
	<path d="M1242.7,641.3c-0.2,0.3-1.9,3.9-5.1,10.9c-3.2,7-7,15.8-11.3,26.5c-4.3,10.7-8,21.7-11,33c-3.2,11.4-4.6,21.4-4.4,30.1
		c0.3,4.9,1.4,9,3.5,12.4c1.9,3.2,4.9,5.2,9.1,6.1l0.3,5l-5.7-0.2l-14.4-0.5c-6.2,0.1-13,0.5-20.3,1.2c-5.4,0.5-11,1.3-16.8,2.4
		c-5.8,1.1-11.4,2.5-17,4.3l-0.3-5c9.1-2.7,18-8.9,26.7-18.7c8.5-9.5,16.5-20.8,23.9-33.9c7.6-13.1,14.2-25.9,19.8-38.5
		c5.8-12.4,10.2-22.7,13.4-30.9l5-13.2c-8.7-18.4-17.6-35.7-26.7-51.8c-8.9-16.1-17.8-30.1-26.7-42.1c-8.7-12-17.3-21.3-25.7-28
		c-8.2-6.7-16-9.6-23.3-8.9l-0.3,0l-0.3-5c10.6,1.6,20.5,2.4,29.8,2.5c9.2,0.1,17.7-0.2,25.4-0.9c15.2-1.7,26.7-4,34.7-6.8
		c8.1-2.8,12.3-4.4,12.5-4.7l0.3,5c-3.7,0.4-6.3,1.8-7.7,4.2c-1.4,2.4-2,5.6-1.8,9.4c0.5,6.6,2.4,14.2,5.7,22.6
		c3.2,8.2,7.1,16.3,11.4,24.3c4.2,7.8,7.8,14.4,10.9,19.8c3.1,5.1,4.7,7.8,4.9,8c0.2-0.3,1.7-3.4,4.6-9.3
		c2.9-6.2,6.2-13.8,10.1-22.9c3.9-9.1,7.2-18.1,9.9-27.1c2.7-9.2,4-17.1,3.9-23.5c-0.2-3.3-1.1-5.9-2.7-7.8c-1.4-1.7-3.8-2.3-7.2-2
		l-2,0.2c-0.8,0.1-1.5,0.3-2.2,0.6l-0.3-5c5.3,0.5,10.7,0.8,16.1,0.8l15.5-0.7c6.9-0.9,13.2-1.8,18.8-2.6l13.1-2.8
		c3.2-0.6,4.8-1,5-1.3l0.3,5c-0.8-0.2-1.6-0.2-2.5-0.1l-2.2,0.2c-8,1-15.7,5.2-23.1,12.6c-7.3,7.4-14,16.2-20.1,26.6
		c-6.2,10.6-11.6,21-16.2,31.2c-4.5,10.5-8,19.1-10.5,26c-2.5,6.9-3.7,10.5-3.7,10.8L1242.7,641.3z"/>
	<path d="M1469.6,477.4l34.4-2.7c15-1.2,28.1-2.4,39.2-3.8c11.1-1.1,18.7-2.5,22.8-4.1c-1.4,7.8-2.2,14.4-2.6,19.8
		c-0.4,5.4-0.3,10,0.2,13.9c0.3,4.6,0.8,9.2,1.6,13.7c1,4.5,2,9.7,3.1,15.6c1.3,6.1,2.5,13.7,3.5,22.8l-2.8,0.2
		c-5.4-18.3-11-32.9-17.1-43.7c-6.1-11.1-14-18.8-23.8-23.2c-10-4.4-23.6-5.9-40.7-4.5l-36.4,2.8l7.2,112.7
		c3.4,52.9,5.9,85.8,7.7,98.8c1.8,13,4.2,25.1,7.2,36.4c3.3,11.3,7.5,20.3,12.5,27.1c5.1,6.8,11.3,9.9,18.7,9.3l0.3,4.2
		c-0.2-0.2-3.8-0.6-10.5-1.1c-7-0.5-15.9-0.7-26.5-0.6c-10.7-0.2-22,0-33.8,0.7c-9,0.7-17.7,1.9-25.9,3.6c-8,1.6-15.2,3.9-21.5,6.7
		l-2.5-6c8.5-1.9,14.8-8.2,19-18.8c4.4-10.6,7.6-23.8,9.3-39.6c1.5-16,2.1-32.8,1.7-50.2c-0.2-17.4-0.8-34.1-1.8-49.9
		c-1.1-17.4-2.9-34.3-5.3-50.8c-2.2-16.5-5.3-31.3-9.1-44.4c-3.9-13.3-8.6-23.7-14.2-31.3c-5.6-7.5-12.1-11.1-19.5-10.8l-0.3-5.4
		c8.5,2.7,19.7,4.2,33.4,4.7c13.7,0.5,29.2,0.3,46.3-0.5C1451.8,478.6,1460.6,478.1,1469.6,477.4z"/>
</g>
</svg>
